<?xml version="1.0" encoding="utf-8"?>
<!-- Generator: Adobe Illustrator 16.2.0, SVG Export Plug-In . SVG Version: 6.00 Build 0)  -->
<!DOCTYPE svg PUBLIC "-//W3C//DTD SVG 1.1//EN" "http://www.w3.org/Graphics/SVG/1.1/DTD/svg11.dtd">
<svg version="1.1" id="Layer_1" xmlns="http://www.w3.org/2000/svg" xmlns:xlink="http://www.w3.org/1999/xlink" x="0px" y="0px"
	 width="913px" height="500px" viewBox="0 0 913 500" enable-background="new 0 0 913 500" xml:space="preserve">
<g id="Camada_x0020_1">
	<g id="_1233951872">
		<g>
			<g>
				<path fill="#3A7499" d="M519.139,313.615c0.95-7.174,1.23-14.293,0.872-21.287c-28.307,19.637-67.464,16.848-92.678-8.366
					c-27.621-27.622-28.338-71.958-2.158-100.444l-1.238-0.233c-6.691-1.208-13.358-1.807-19.94-1.862
					c-24.226,35.255-20.674,83.861,10.663,115.205l0.226,0.227C442.584,324.436,484.725,330.846,519.139,313.615z"/>
				<path fill="#E6B609" d="M530.02,283.962L530.02,283.962z M546.066,172.176c-6.629,1.457-13.094,3.482-19.303,6.029
					c1.106,0.981,2.197,2.002,3.256,3.062c28.338,28.338,28.354,74.271,0.055,102.633l-0.055,0.063l0,0l-0.062,0.054
					c-20.261,20.214-49.486,25.971-74.856,17.285c0.865,6.762,2.321,13.383,4.315,19.785c22.387,4.86,46.44,1.223,66.942-11.505
					c1.332-0.825,2.578-1.729,3.855-2.54c3.84-2.422,5.811,0.047,8.373,2.609c4.284,4.277,8.561,8.553,12.837,12.83
					c2.852,2.851,5.702,5.701,8.553,8.561c12.837,12.828,25.666,25.658,38.495,38.494c4.713,4.705,12.409,4.705,17.113-0.008l0,0
					c4.713-4.704,4.713-12.408,0.008-17.113c-4.144-4.136-8.287-8.279-12.432-12.424c-5.709-5.717-11.427-11.427-17.145-17.145
					c-1.425-1.425-2.851-2.851-4.284-4.283c-7.072-7.073-14.138-14.146-21.21-21.211c-1.426-1.434-2.859-2.858-4.284-4.284
					c-2.929-2.929-5.982-5.032-2.858-9.308C576.679,249.821,574.24,203.536,546.066,172.176z"/>
				<path fill="#50A03C" d="M550.709,241.743c6.636-5.546,12.681-11.832,17.978-18.765c-2.111-19.863-10.78-39.157-26.001-54.377
					c-35.349-35.356-92.67-35.356-128.026,0c-16.91,16.911-25.721,38.846-26.452,61.006c5.732,6.481,12.198,12.338,19.302,17.448
					c-4.65-23.049,1.947-47.92,19.824-65.789c28.353-28.354,74.334-28.354,102.687,0
					C546.525,197.772,553.419,220.245,550.709,241.743z"/>
			</g>
			<path fill="#3A7499" d="M459.417,321.086c-1.994-6.402-3.45-13.023-4.315-19.785c-10.149-3.467-19.676-9.246-27.769-17.339
				c-10.484-10.485-17.09-23.384-19.824-36.906c-7.104-5.102-13.569-10.967-19.302-17.448c-0.803,24.162,8.015,48.574,26.452,67.02
				l0.226,0.227C427.449,309.363,442.981,317.519,459.417,321.086z"/>
			<path fill="#C6A71A" d="M455.102,301.301c0.865,6.762,2.321,13.383,4.315,19.785c19.801,4.308,40.918,1.947,59.729-7.471
				c0.95-7.174,1.223-14.293,0.864-21.295C500.786,305.663,476.562,308.654,455.102,301.301z"/>
			<path fill="#E6B609" d="M530.02,283.962L530.02,283.962z M520.011,292.32c0.358,7.002,0.086,14.121-0.864,21.295
				c2.445-1.23,4.853-2.57,7.213-4.034c1.332-0.825,2.578-1.729,3.855-2.54c3.84-2.422,5.811,0.047,8.373,2.609
				c4.284,4.277,8.561,8.553,12.837,12.83c2.852,2.851,5.702,5.701,8.553,8.561c12.837,12.828,25.666,25.658,38.495,38.494
				c4.713,4.705,12.409,4.705,17.113-0.008l0,0c4.713-4.704,4.713-12.408,0.008-17.113c-4.144-4.136-8.287-8.279-12.432-12.424
				c-5.709-5.717-11.427-11.427-17.145-17.145c-1.425-1.425-2.851-2.851-4.284-4.283c-7.072-7.073-14.138-14.146-21.21-21.211
				c-1.426-1.434-2.859-2.858-4.284-4.284c-2.929-2.929-5.982-5.032-2.858-9.308c12.439-18.119,17.541-39.773,15.306-60.781
				c-5.297,6.925-11.342,13.219-17.978,18.765c-1.939,15.415-8.818,30.316-20.635,42.156l-0.055,0.063l0,0l-0.062,0.054
				C526.842,287.132,523.508,289.896,520.011,292.32z"/>
			<path fill="#63A12D" d="M550.709,241.743c6.636-5.546,12.681-11.84,17.978-18.765c-1.947-18.344-9.495-36.197-22.62-50.802
				c-6.637,1.449-13.094,3.482-19.303,6.029c1.106,0.981,2.197,2.002,3.256,3.062C546.525,197.772,553.419,220.252,550.709,241.743z
				"/>
			<path fill="#479546" d="M425.19,183.51l-1.246-0.226c-6.699-1.208-13.366-1.815-19.94-1.87
				c-9.979,14.52-15.244,31.29-15.797,48.193c5.732,6.481,12.198,12.346,19.302,17.448
				C403.045,224.957,408.935,201.184,425.19,183.51z"/>
			<path fill="#50A03C" d="M423.944,183.284l1.246,0.226c0.693-0.755,1.402-1.503,2.143-2.243
				c27.294-27.294,70.906-28.314,99.431-3.062c6.209-2.547,12.666-4.58,19.303-6.029c-1.091-1.215-2.213-2.407-3.381-3.575
				c-35.349-35.356-92.67-35.356-128.026,0c-4.012,4.011-7.556,8.303-10.655,12.813
				C410.578,181.469,417.245,182.077,423.944,183.284z"/>
		</g>
		<g>
			<g>
				<path fill="#3A7499" d="M515.119,264.379c-0.288-0.95-0.592-1.908-0.911-2.851h-20.829h-16.21h-15.313
					c-6.948-2.002-16.093-10.282-21.818-15.462l-0.031-0.031l-1.27-1.145c0.732-1.254,3.763-1.815,6.473-2.313l8.764-1.246
					c3.567-0.397,7.213-0.717,10.897-0.974c3.871-0.265,7.781-0.468,11.668-0.6c4.245-0.156,8.475-0.233,12.58-0.272l2.445,0.039
					l7.556,0.117l5.25,0.078l-1.012-1.713l-1.745-0.031l-2.547-0.039l-0.211-6.839c-0.545-0.771-1.105-1.542-1.667-2.306
					l0.296,9.122l-2.469-0.016l-0.265-12.284c-0.538-0.678-1.083-1.348-1.636-2.01l0.312,14.294l-2.625,0.008h-0.904l-0.015-1.714
					l-0.141-14.613l-0.016-1.877c-10.383-11.45-23.088-20.899-37.537-27.551c-13.18,8.669-21.919,23.594-21.919,40.466l0,0
					c0,7.891,1.908,15.368,5.297,21.974c5.701-1.036,11.286,1.044,17.222,6.94h-12.876c8.85,11.809,22.948,19.489,38.761,19.489l0,0
					C493.169,281.018,506.231,274.561,515.119,264.379z"/>
				<path fill="#E6B609" d="M503.435,191.065c-17.284,12.261-31.267,29.203-39.873,49.385l1.309-0.093
					c3.871-0.265,7.781-0.468,11.668-0.6c4.245-0.156,8.475-0.233,12.58-0.272l2.445,0.039l7.556,0.117l11.646,0.171
					c2.423,0.055,9.254,0.312,15.61,0.997c0.467-2.664,0.708-5.406,0.708-8.194l0,0c0-4.729-0.692-9.301-1.971-13.631l0.023,0.272
					l1.426,19.995l-12.525-0.896l-4.596-0.187l-4.409-0.125l-0.132-2.796l-0.903-19.419l-0.562-12.113l-0.296-6.286l11.342,3.949
					l1.565,0.545C512.502,197.624,508.233,193.94,503.435,191.065z M457.299,259.558c-0.476,2.018-0.904,4.058-1.271,6.13
					c-0.545,2.999-0.958,5.99-1.27,8.974c7.065,4.043,15.236,6.356,23.914,6.356l0,0c16.599,0,31.305-8.459,40.045-21.289
					l-0.07,0.039l-4.362,1.761h-20.906h-16.21h-15.313C460.414,261.115,458.88,260.43,457.299,259.558z M502.422,216.116
					l-0.856-18.5l-3.724,2.072l0.562,17.518l0.662,20.728l2.547,0.039l1.83,0.031l-0.069-1.402L502.422,216.116z M496.829,217.775
					l-0.467-14.917l-2.119-0.577l0.358,16.467l0.413,19.146l2.469,0.016L496.829,217.775z M493.028,219.543l-0.366-16.965
					l-3.093,1.722l0.172,17.277l0.141,14.613l0.015,1.714h0.904l2.625-0.008L493.028,219.543z"/>
				<path fill="#50A03C" d="M478.673,184.203L478.673,184.203z M454.978,267.121c21.856,3.941,43.387,1.527,62.696-5.92
					c0.358-0.482,0.701-0.974,1.044-1.473l-0.07,0.039l-4.362,1.761h-20.906h-16.21h-15.313
					c-6.948-2.002-16.093-10.282-21.818-15.462l-0.031-0.031l-1.27-1.145c0.732-1.254,3.763-1.815,6.473-2.313l8.764-1.246
					c3.567-0.397,7.213-0.717,10.897-0.974c3.871-0.265,7.781-0.468,11.668-0.6c4.245-0.156,8.475-0.233,12.58-0.272l2.445,0.039
					l7.556,0.117l11.646,0.171c2.423,0.055,9.254,0.312,15.61,0.997c0.467-2.664,0.708-5.406,0.708-8.194l0,0
					c0-4.729-0.692-9.301-1.971-13.631l0.023,0.272l1.426,19.995l-12.525-0.896l-4.596-0.187l-4.409-0.125l-0.132-2.796
					l-0.903-19.419l-0.562-12.113l-0.296-6.286l11.342,3.949l1.565,0.545c-8.903-10.804-22.363-17.721-37.373-17.721
					c-26.624,0-48.403,21.779-48.403,48.411l0,0c0,7.891,1.908,15.368,5.297,21.974c5.701-1.036,11.286,1.044,17.222,6.94h-12.876
					c0.631,0.833,1.278,1.651,1.955,2.446C446.129,265.252,450.498,266.318,454.978,267.121z M502.422,216.116l-0.856-18.5
					l-3.724,2.072l0.562,17.518l0.662,20.728l2.547,0.039l1.83,0.031l-0.069-1.402L502.422,216.116z M496.829,217.775l-0.467-14.917
					l-2.119-0.577l0.358,16.467l0.413,19.146l2.469,0.016L496.829,217.775z M493.028,219.543l-0.366-16.965l-3.093,1.722
					l0.172,17.277l0.141,14.613l0.015,1.714h0.904l2.625-0.008L493.028,219.543z"/>
			</g>
			<path fill="#3A7499" d="M454.759,274.661c0.257-2.462,0.585-4.931,0.997-7.399c-0.257-0.047-0.514-0.094-0.778-0.141
				c-4.479-0.803-8.849-1.861-13.103-3.139C445.513,268.242,449.875,271.865,454.759,274.661z"/>
			<path fill="#C6A71A" d="M455.756,267.262c-0.412,2.469-0.74,4.938-0.997,7.399c7.065,4.043,15.236,6.356,23.914,6.356l0,0
				c14.496,0,27.559-6.457,36.446-16.639l-0.623-2.002C496.245,268.812,476.148,270.798,455.756,267.262z"/>
			<path fill="#E6B609" d="M514.496,262.377l0.623,2.002c0.896-1.02,1.752-2.088,2.555-3.186
				C516.622,261.605,515.563,261.996,514.496,262.377z"/>
			<path fill="#63A12D" d="M514.496,262.377c1.066-0.381,2.126-0.771,3.178-1.184c0.358-0.475,0.709-0.966,1.044-1.465l-0.07,0.039
				l-4.362,1.761h-0.069L514.496,262.377z M503.427,191.058c-8.147,5.788-15.57,12.611-22.036,20.331
				c2.921,2.625,5.702,5.398,8.335,8.295l-0.156-15.384l3.093-1.722l0.366,16.965l0.086,4.051c0.553,0.662,1.098,1.332,1.636,2.001
				l-0.148-6.847l-0.358-16.467l2.119,0.577l0.467,14.917l0.358,11.006c0.562,0.763,1.114,1.527,1.659,2.298l-0.443-13.873
				l-0.562-17.518l3.724-2.072l0.856,18.5l0.951,20.486l0.069,1.402h-0.077l1.012,1.713l6.388,0.094
				c2.423,0.055,9.254,0.312,15.61,0.997c0.467-2.664,0.708-5.406,0.708-8.194l0,0c0-4.729-0.692-9.301-1.971-13.631l0.023,0.272
				l1.426,19.995l-12.525-0.896l-4.596-0.187l-4.409-0.125l-0.132-2.796l-0.903-19.419l-0.562-12.113l-0.296-6.286l11.342,3.949
				l1.565,0.545C512.502,197.624,508.233,193.94,503.427,191.058z"/>
			<path fill="#629F30" d="M514.496,262.377l-0.28-0.849h-20.837h-16.21h-15.313c-1.441-0.413-2.976-1.099-4.557-1.971
				c-0.476,2.018-0.904,4.058-1.271,6.13c-0.093,0.521-0.187,1.052-0.272,1.574C476.148,270.798,496.245,268.812,514.496,262.377z
				 M504.377,239.718l-1.012-1.713l-1.753-0.031l-2.547-0.039l-0.219-6.854c-0.545-0.771-1.098-1.535-1.659-2.298l0.296,9.129
				l-2.469-0.016l-0.265-12.3c-0.538-0.67-1.083-1.339-1.636-2.001l0.312,14.301l-2.625,0.008h-0.904l-0.015-1.714l-0.141-14.613
				l-0.016-1.893c-2.633-2.897-5.414-5.67-8.335-8.295c-7.244,8.646-13.288,18.398-17.829,29.062l1.309-0.093
				c3.871-0.265,7.781-0.468,11.668-0.6c4.245-0.156,8.475-0.233,12.58-0.272l2.445,0.039l7.556,0.117L504.377,239.718z"/>
			<path fill="#479546" d="M456.028,265.688c0.366-2.072,0.795-4.112,1.271-6.13c-6.037-3.334-12.721-9.386-17.262-13.491
				l-0.031-0.031l-1.27-1.145c0.732-1.254,3.763-1.815,6.473-2.313l8.764-1.246c3.139-0.351,6.348-0.639,9.589-0.88
				c4.541-10.664,10.585-20.416,17.829-29.062c-8.6-7.75-18.414-14.27-29.202-19.24c-13.18,8.669-21.919,23.594-21.919,40.466l0,0
				c0,7.891,1.908,15.368,5.297,21.974c5.701-1.036,11.286,1.044,17.222,6.94h-12.876c0.631,0.841,1.286,1.659,1.963,2.454
				c4.254,1.277,8.623,2.336,13.103,3.139c0.265,0.047,0.521,0.094,0.778,0.141C455.842,266.739,455.936,266.209,456.028,265.688z"
				/>
			<path fill="#50A03C" d="M478.673,184.203L478.673,184.203z M452.188,192.148c10.788,4.97,20.603,11.489,29.202,19.24
				c6.466-7.719,13.889-14.543,22.036-20.331c-7.252-4.346-15.719-6.854-24.754-6.854
				C468.912,184.203,459.814,187.132,452.188,192.148z"/>
		</g>
		<path fill="#3A7499" d="M433.821,359.799c-4.806,14.831-7.571,30.457-8.031,46.503c-37.202-68.999-99.064-118.384-198.629-122.099
			c17.386-19.926,39.57-35.839,65.182-45.778c-0.164,0.327-0.343,0.646-0.506,0.974c19.038,22.566,38.464,40.738,58.132,55.095
			c30.893,22.558,62.377,35.62,93.854,41.112C439.874,343.371,436.524,351.457,433.821,359.799z"/>
		<path fill="#50A03C" d="M643.706,192.008c-0.507-14.504-2.905-28.657-6.995-42.18c-43.161-30.589-88.456-49.501-143.604-54.643
			c-44.789-4.159-96.37,0.592-158.756,15.33c-9.487,15.431-16.591,32.646-20.712,51.231
			C428.681,114.574,569.543,115.493,643.706,192.008z"/>
	</g>
</g>
</svg>
