<?xml version="1.0" encoding="UTF-8"?>
<!DOCTYPE svg PUBLIC "-//W3C//DTD SVG 1.1//EN" "http://www.w3.org/Graphics/SVG/1.1/DTD/svg11.dtd">
<!-- Creator: CorelDRAW X7 -->
<svg xmlns="http://www.w3.org/2000/svg" xml:space="preserve" width="500px" height="473px" version="1.1" style="shape-rendering:geometricPrecision; text-rendering:geometricPrecision; image-rendering:optimizeQuality; fill-rule:evenodd; clip-rule:evenodd"
viewBox="0 0 13497 12786"
 xmlns:xlink="http://www.w3.org/1999/xlink">
 <defs>
  <style type="text/css">
   <![CDATA[
    .str0 {stroke:white;stroke-width:64.7669}
    .fil3 {fill:#EDEDED}
    .fil2 {fill:#F6F6F6}
    .fil4 {fill:white}
    .fil1 {fill:#003155;fill-rule:nonzero}
    .fil0 {fill:#D9DADB;fill-rule:nonzero}
    .fil5 {fill:white;fill-rule:nonzero}
   ]]>
  </style>
 </defs>
<symbol id="Fm0-2212-0" viewBox="252330 -1571119 28105 179058">
 <polygon class="fil0" points="264116,-1392061 252622,-1392061 252622,-1571119 264116,-1571119 "/>
 <polygon class="fil1" points="280436,-1478020 252330,-1478020 252330,-1485160 280436,-1485160 "/>
</symbol>
<symbol id="Symbol1" viewBox="252330 -1571119 28105 179058">
 <polygon class="fil0" points="264116,-1392061 252622,-1392061 252622,-1571119 264116,-1571119 "/>
 <polygon class="fil1" points="280436,-1478020 252330,-1478020 252330,-1485160 280436,-1485160 "/>
</symbol>
 <g id="Camada_x0020_1">
  <metadata id="CorelCorpID_0Corel-Layer"/>
  <path class="fil2" d="M5809 7303c488,-17 971,-27 1442,-30l280 4c-27,-63 -56,-125 -87,-187l-103 1 -2 -197c-208,-363 -472,-691 -784,-972 -525,-473 -1184,-810 -1930,-944 -694,-125 -1379,-60 -1999,159 -1289,455 -2304,1570 -2563,3010 -82,455 -82,905 -11,1336 1046,-728 1994,-721 3036,315l-2971 0c365,1452 1547,2629 3116,2911 1438,259 2834,-300 3709,-1345 -474,-427 -839,-966 -1061,-1566l-1753 0c-797,-230 -1845,-1178 -2501,-1772l-3 -3 -146 -132c85,-143 432,-208 742,-265l1004 -142c408,-46 826,-82 1248,-112 444,-31 892,-53 1337,-69z"/>
  <path class="fil2" d="M11378 4955l164 2291 -1436 -104 -527 -20 -505 -15 -15 -321c-56,54 -115,105 -175,155l8 162 -209 -4c-93,68 -188,131 -286,191l1334 20c542,12 3010,111 3235,496 -146,132 -283,260 -416,383 -599,558 -1094,1020 -1915,1407l-501 202 -2395 0 -1858 0 -1753 0c-797,-230 -1845,-1178 -2501,-1772l-3 -3 -146 -132c85,-143 432,-208 742,-265l1004 -142c408,-46 826,-82 1248,-112 -882,-484 -1540,-1290 -1846,-2235 -1289,455 -2304,1570 -2563,3010 -82,455 -82,905 -11,1336 1046,-728 1994,-721 3036,315l-2971 0c365,1452 1547,2629 3116,2911 1438,259 2834,-300 3709,-1345 525,473 1184,810 1930,944 2135,385 4178,-1034 4562,-3169 313,-1737 -567,-3413 -2056,-4184zm-588 4768l552 -307 338 -233 44 615 -1093 0 79 -36 80 -39z"/>
  <path class="fil2" d="M7060 63c-2135,-385 -4177,1034 -4562,3170 -119,659 -65,1309 128,1904 306,945 964,1751 1846,2235 444,-31 892,-53 1337,-69 488,-17 971,-27 1442,-30l280 4 866 13c98,-60 193,-123 286,-191l-292 -5 -76 -2375 -64 -2007 426 -238 98 2120 109 2347c60,-50 119,-101 175,-155l-103 -2225 -64 -1388 -34 -720 1300 454c-384,-1421 -1554,-2566 -3098,-2844zm384 7027l-103 1 -2 -197 -17 -1674 -19 -1980 354 -197 42 1945 46 2102 -301 0zm435 -2194l-41 -1886 242 66 55 1709 74 2307 -282 -2 -48 -2194z"/>
  <path class="fil3" d="M4625 4978c-694,-125 -1379,-60 -1999,159 306,945 964,1751 1846,2235 444,-31 892,-53 1337,-69 157,-518 414,-984 746,-1381 -525,-473 -1184,-810 -1930,-944z"/>
  <path class="fil2" d="M6555 5922c-332,397 -589,863 -746,1381 488,-17 971,-27 1442,-30l280 4c-27,-63 -56,-125 -87,-187l-103 1 -2 -197c-208,-363 -472,-691 -784,-972z"/>
  <path class="fil3" d="M8775 4594l109 2347c60,-50 119,-101 175,-155l-103 -2225c-61,10 -121,21 -181,33zm-2220 1328c312,281 576,609 784,972l-17 -1674c-284,198 -543,434 -767,702zm1144 -934l46 2102 -301 0c31,62 60,124 87,187l866 13c98,-60 193,-123 286,-191l-292 -5 -76 -2375c-61,21 -121,43 -180,66l74 2307 -282 -2 -48 -2194c-61,29 -121,60 -180,92z"/>
  <path class="fil2" d="M11378 4955l164 2291 -1436 -104 -527 -20 -505 -15 -15 -321c-56,54 -115,105 -175,155l8 162 -209 -4c-93,68 -188,131 -286,191l1334 20c542,12 3010,111 3235,496 -146,132 -283,260 -416,383 -599,558 -1094,1020 -1915,1407l-501 202 -2395 0c-148,593 -425,1123 -797,1566 525,473 1184,810 1930,944 2135,385 4178,-1034 4562,-3169 313,-1737 -567,-3413 -2056,-4184zm-588 4768l552 -307 338 -233 44 615 -1093 0 79 -36 80 -39z"/>
  <path class="fil3" d="M7739 9798l-1858 0c222,600 587,1139 1061,1566 372,-443 649,-973 797,-1566z"/>
  <path class="fil2" d="M6942 11364c-474,-427 -839,-966 -1061,-1566l-1753 0c-797,-230 -1845,-1178 -2501,-1772l-3 -3 -146 -132c85,-143 432,-208 742,-265l1004 -142c408,-46 826,-82 1248,-112 -882,-484 -1540,-1290 -1846,-2235 -1289,455 -2304,1570 -2563,3010 -82,455 -82,905 -11,1336 1046,-728 1994,-721 3036,315l-2971 0c365,1452 1547,2629 3116,2911 1438,259 2834,-300 3709,-1345z"/>
  <path class="fil4" d="M5759 6026c-86,-395 -437,-691 -858,-691 -418,0 -767,292 -855,684l0 -681 2 -3 -399 0 0 3 -410 782 -411 -785 -402 0 0 1756 396 0 0 -632 417 632 0 0 410 -612 0 612 397 0 0 -684c88,391 437,684 855,684 421,0 772,-296 858,-691l0 691 396 0 0 -878 496 878 402 0 0 -1756 -397 0 0 878 -493 -878 -404 0 0 691zm0 360l-409 0c-69,180 -244,308 -449,308 -265,0 -481,-215 -481,-481 0,-266 216,-481 481,-481 205,0 380,128 449,308l409 0 0 346z"/>
  <path class="fil3" d="M1996 12256c3677,-2537 5565,-5440 7359,-10874l8 4c177,202 337,424 476,665 459,796 625,1678 529,2517 -579,3376 -3895,7381 -4908,7893 -307,116 -340,165 -769,251 -922,186 -1882,16 -2695,-456z"/>
  <path class="fil2" d="M2877 12628c950,-594 2014,-1512 3046,-2723 30,-35 60,-71 90,-107 618,-736 1223,-1578 1783,-2517 44,-73 87,-147 130,-221 90,-156 179,-314 267,-475 58,-106 115,-213 171,-321 154,-295 303,-598 447,-908 56,-122 111,-244 165,-367 53,-122 106,-245 158,-369l-175 0 -182 0 -93 0 -139 -436 -185 -84c-20,49 -40,98 -60,146 -56,135 -113,267 -169,398 -81,186 -163,369 -245,547 -58,125 -116,248 -174,369 -124,257 -250,506 -379,749 -55,104 -111,207 -167,309 -38,68 -76,135 -113,201 -52,92 -105,182 -158,272 -37,63 -75,125 -112,187 -568,932 -1191,1760 -1899,2520 -830,892 -1778,1692 -2888,2458 189,109 386,203 588,279 96,35 193,66 293,93z"/>
  <polygon class="fil3" points="10208,1244 10648,1148 10872,1545 11312,1641 11359,2097 11722,2367 11584,2803 11808,3200 11508,3541 11555,3997 11144,4184 11005,4620 10556,4620 10255,4961 9845,4774 9434,4961 9134,4620 8684,4620 8545,4184 8135,3997 8182,3541 7881,3200 8106,2803 7967,2367 8331,2097 8377,1641 8817,1545 9042,1148 9481,1244 9845,974 "/>
  <g id="_1254334512">
   <polygon class="fil2" points="9292,1579 10081,2036 10974,1910 10798,2804 11205,3626 10308,3721 9667,4356 9288,3520 8484,3090 9147,2479 "/>
   <ellipse class="fil3 str0" transform="matrix(1.2811 -0.607448 0.607448 1.2811 9924.33 2912.32)" rx="546" ry="552"/>
   <ellipse class="fil2 str0" transform="matrix(1.00054 -0.47442 0.47442 1.00054 9924.41 2912.32)" rx="546" ry="552"/>
   <g>
    <polygon class="fil4" points="9626,2554 9692,2569 9752,2540 9759,2607 9805,2656 9744,2683 9712,2742 9667,2691 9601,2678 9635,2621 "/>
    <polygon class="fil4" points="9623,3055 9668,3065 9709,3046 9713,3091 9745,3125 9703,3143 9682,3183 9651,3148 9606,3140 9629,3100 "/>
    <polygon class="fil4" points="10079,2613 10132,2625 10180,2602 10186,2656 10223,2695 10174,2717 10148,2764 10112,2723 10059,2713 10086,2667 "/>
    <polygon class="fil4" points="9906,2831 9954,2842 9999,2821 10003,2870 10038,2907 9992,2926 9969,2969 9936,2932 9888,2923 9912,2880 "/>
    <polygon class="fil4" points="10079,3099 10132,3098 10172,3065 10189,3114 10234,3143 10192,3174 10179,3224 10136,3194 10084,3197 10098,3147 "/>
   </g>
  </g>
  <path class="fil5" d="M5600 11167l-590 -574 424 -437 100 97 -308 318 131 127 287 -295 99 97 -286 295 160 156 319 -330 100 97 -436 449zm533 -558l-617 -535 110 -126 511 444 271 -312 105 91 -380 438zm454 -530l-645 -511 379 -478 109 87 -275 347 143 113 256 -322 109 86 -256 323 175 138 285 -359 109 86 -389 490zm467 -601l-662 -489 99 -134 662 489 -99 134zm242 -867l132 -105c60,72 93,144 96,216 4,73 -19,145 -69,218 -62,90 -144,143 -245,159 -102,16 -206,-13 -313,-87 -113,-77 -181,-167 -203,-268 -22,-101 -1,-200 64,-295 57,-83 128,-133 213,-151 50,-11 108,-6 173,16l-61 158c-40,-16 -80,-19 -118,-7 -37,11 -69,35 -94,72 -34,50 -45,103 -30,160 15,56 62,112 143,167 86,59 157,85 215,80 58,-6 103,-34 137,-83 25,-37 36,-76 30,-118 -5,-42 -28,-86 -70,-132zm226 594l-54 -37c25,-30 47,-58 65,-84 19,-28 28,-52 27,-72 0,-15 -6,-27 -18,-35 -10,-7 -22,-9 -37,-4 -14,4 -28,16 -42,36 -14,20 -24,43 -33,68l-37 -44c8,-30 21,-59 41,-86 26,-39 55,-63 86,-71 30,-8 58,-4 82,13 28,18 42,45 44,79 2,45 -16,96 -54,152 -27,40 -51,68 -70,85zm-171 -859c-71,-44 -125,-91 -160,-143 -26,-38 -45,-79 -56,-124 -12,-45 -14,-89 -8,-130 9,-55 31,-111 66,-168 64,-104 147,-166 249,-189 103,-22 211,2 325,72 114,70 183,156 209,257 27,101 8,203 -56,306 -64,104 -147,167 -249,189 -101,23 -208,-1 -320,-70zm85 -148c80,49 151,67 215,56 64,-11 113,-45 148,-102 35,-56 43,-115 25,-177 -19,-61 -69,-117 -150,-167 -80,-50 -151,-69 -213,-58 -61,11 -110,45 -146,104 -36,58 -45,118 -27,178 18,61 67,116 148,166zm-349 -358l-38 62c-7,-4 -13,-7 -17,-10 -34,-21 -55,-45 -62,-72 -8,-27 -5,-54 11,-79 7,-11 15,-21 23,-29 8,-8 26,-22 53,-40 27,-18 45,-35 54,-49 6,-10 8,-21 6,-32 -2,-11 -11,-21 -25,-33l38 -61c44,27 70,54 79,81 9,27 6,54 -10,78 -6,11 -14,21 -23,30 -6,6 -24,20 -54,42 -30,23 -48,40 -57,54 -6,10 -8,20 -5,29 3,10 12,20 27,29zm1095 -73l-720 -400 296 -533 122 68 -215 387 160 89 200 -360 121 68 -200 359 195 109 223 -401 122 67 -304 547zm113 -754l59 -152c53,17 97,17 133,2 36,-15 66,-45 89,-89 24,-48 32,-89 24,-123 -7,-34 -25,-59 -52,-72 -17,-9 -34,-12 -52,-8 -17,4 -37,16 -58,37 -15,14 -46,48 -93,102 -60,68 -113,112 -158,129 -63,24 -124,21 -182,-9 -37,-19 -67,-47 -89,-85 -22,-38 -31,-81 -28,-129 3,-49 19,-101 48,-157 47,-92 103,-151 167,-176 64,-26 131,-22 200,10l-70 151c-41,-13 -75,-13 -102,-1 -28,12 -52,39 -73,80 -22,43 -30,81 -25,114 4,22 15,37 34,47 18,9 36,9 56,1 25,-11 65,-48 119,-111 53,-63 98,-107 134,-132 36,-25 74,-39 116,-43 41,-3 85,7 131,31 42,21 76,53 101,95 24,42 35,89 31,141 -4,52 -23,109 -55,173 -47,93 -105,153 -173,181 -68,28 -146,25 -232,-7z"/>
 </g>
</svg>
