<?xml version="1.0" encoding="utf-8"?>
<!-- Generator: Adobe Illustrator 16.2.0, SVG Export Plug-In . SVG Version: 6.00 Build 0)  -->
<!DOCTYPE svg PUBLIC "-//W3C//DTD SVG 1.1//EN" "http://www.w3.org/Graphics/SVG/1.1/DTD/svg11.dtd">
<svg version="1.1" id="Layer_1" xmlns="http://www.w3.org/2000/svg" xmlns:xlink="http://www.w3.org/1999/xlink" x="0px" y="0px"
	 width="913px" height="500px" viewBox="0 0 913 500" enable-background="new 0 0 913 500" xml:space="preserve">
<g id="Camada_x0020_1">
	<g id="_1338707856">
		<path fill="#336699" d="M428.604,277.023c14.472-0.518,28.837-0.795,42.811-0.896l8.322,0.123
			c-0.814-1.871-1.678-3.715-2.589-5.537l-3.067,0.007l-0.059-5.845c-6.161-10.764-14.015-20.521-23.27-28.858
			c-15.588-14.036-35.155-24.045-57.317-28.036c-20.613-3.713-40.935-1.762-59.367,4.737
			c-38.266,13.493-68.396,46.596-76.104,89.386c-2.429,13.49-2.432,26.855-0.324,39.648c31.055-21.621,59.203-21.403,90.166,9.364
			h-88.223c10.821,43.104,45.926,78.066,92.506,86.456c42.701,7.689,84.158-8.917,110.164-39.953
			c-14.097-12.694-24.94-28.686-31.508-46.503h-52.079c-23.659-6.833-54.771-34.981-74.253-52.616l-0.084-0.08l-4.351-3.928
			c2.519-4.264,12.827-6.168,22.029-7.865l29.837-4.228c12.11-1.354,24.522-2.446,37.048-3.316
			C402.073,278.167,415.382,277.495,428.604,277.023z"/>
		<path fill="#FFCC00" d="M593.968,207.296l4.86,68.026l-42.619-3.063l-15.648-0.621l-14.998-0.434l-0.444-9.527
			c-1.688,1.59-3.421,3.127-5.197,4.611l0.225,4.798l-6.219-0.108c-2.744,2.006-5.577,3.895-8.484,5.653l39.622,0.59
			c16.103,0.382,89.368,3.307,96.066,14.732c-4.344,3.931-8.419,7.728-12.347,11.388c-17.785,16.576-32.503,30.291-56.885,41.771
			l-14.863,6.004h-71.122h-55.169h-52.079c-23.659-6.833-54.771-34.981-74.253-52.616l-0.084-0.08l-4.351-3.928
			c2.519-4.264,12.827-6.168,22.029-7.865l29.837-4.228c12.11-1.354,24.522-2.446,37.048-3.316
			c-26.194-14.387-45.732-38.329-54.825-66.365c-38.266,13.493-68.396,46.596-76.104,89.386c-2.429,13.49-2.432,26.855-0.324,39.648
			c31.055-21.621,59.203-21.403,90.166,9.364h-88.223c10.821,43.104,45.926,78.066,92.506,86.456
			c42.701,7.689,84.158-8.917,110.164-39.953c15.586,14.039,35.149,24.046,57.315,28.039
			c63.398,11.416,124.052-30.725,135.469-94.123C664.323,279.963,638.175,230.211,593.968,207.296z M576.504,348.9l16.388-9.143
			l10.049-6.915l1.305,18.273h-32.46l2.359-1.081L576.504,348.9z"/>
		<path fill="#5DB945" d="M465.745,62.029c-63.398-11.417-124.05,30.724-135.466,94.124c-3.524,19.574-1.945,38.884,3.788,56.565
			c9.093,28.037,28.631,51.979,54.825,66.365c13.181-0.916,26.489-1.588,39.711-2.06c14.472-0.518,28.837-0.795,42.811-0.896
			l8.322,0.123l25.706,0.382c2.907-1.759,5.74-3.647,8.484-5.653l-8.658-0.147l-2.261-70.532l-1.906-59.602l12.655-7.061
			l2.925,62.955l3.239,69.698c1.776-1.484,3.51-3.021,5.197-4.611l-3.07-66.063l-1.917-41.215l-0.993-21.387l38.59,13.457
			C546.33,104.295,511.599,70.286,465.745,62.029z M477.147,270.713l-3.067,0.007l-0.059-5.845l-0.485-49.699l-0.573-58.792
			l10.498-5.857l1.264,57.746l1.363,62.418L477.147,270.713z M490.064,205.554l-1.223-56.022l7.2,1.962l1.627,50.753l2.194,68.517
			l-8.373-0.061L490.064,205.554z"/>
		<path fill="#52AE51" d="M393.435,207.98c-20.613-3.713-40.935-1.762-59.367,4.737c9.093,28.037,28.631,51.979,54.825,66.365
			c13.181-0.916,26.489-1.588,39.711-2.06c4.642-15.385,12.284-29.233,22.148-41.007C435.164,221.98,415.597,211.971,393.435,207.98
			z"/>
		<path fill="#70B837" d="M450.752,236.017c-9.864,11.774-17.507,25.622-22.148,41.007c14.472-0.518,28.837-0.795,42.811-0.896
			l8.322,0.123c-0.814-1.871-1.678-3.715-2.589-5.537l-3.067,0.007l-0.059-5.845C467.86,254.111,460.007,244.354,450.752,236.017z"
			/>
		<path fill="#72BA34" d="M516.682,196.591l3.239,69.698c1.776-1.484,3.51-3.021,5.197-4.611l-3.07-66.063
			C520.247,195.897,518.459,196.224,516.682,196.591z M450.752,236.017c9.255,8.337,17.108,18.095,23.27,28.858l-0.485-49.699
			C465.086,221.064,457.411,228.067,450.752,236.017z M484.725,208.273l1.363,62.418l-8.94,0.021
			c0.911,1.822,1.774,3.666,2.589,5.537l25.706,0.382c2.907-1.759,5.74-3.647,8.484-5.653l-8.658-0.147l-2.261-70.532
			c-1.796,0.606-3.577,1.257-5.339,1.948l2.194,68.517l-8.373-0.061l-1.426-65.149C488.261,206.414,486.479,207.323,484.725,208.273
			z"/>
		<path fill="#FFCF0A" d="M593.968,207.296l4.86,68.026l-42.619-3.063l-15.648-0.621l-14.998-0.434l-0.444-9.527
			c-1.688,1.59-3.421,3.127-5.197,4.611l0.225,4.798l-6.219-0.108c-2.744,2.006-5.577,3.895-8.484,5.653l39.622,0.59
			c16.103,0.382,89.368,3.307,96.066,14.732c-4.344,3.931-8.419,7.728-12.347,11.388c-17.785,16.576-32.503,30.291-56.885,41.771
			l-14.863,6.004h-71.122c-4.39,17.592-12.637,33.345-23.661,46.503c15.586,14.039,35.149,24.046,57.315,28.039
			c63.398,11.416,124.052-30.725,135.469-94.123C664.323,279.963,638.175,230.211,593.968,207.296z M576.504,348.9l16.388-9.143
			l10.049-6.915l1.305,18.273h-32.46l2.359-1.081L576.504,348.9z"/>
		<path fill="#DFC01D" d="M485.914,351.116h-55.169c6.57,17.819,17.411,33.809,31.508,46.503
			C473.277,384.461,481.524,368.708,485.914,351.116z"/>
		<path fill="#4387B2" d="M462.253,397.619c-14.097-12.694-24.94-28.686-31.508-46.503h-52.079
			c-23.659-6.833-54.771-34.981-74.253-52.616l-0.084-0.08l-4.351-3.928c2.519-4.264,12.827-6.168,22.029-7.865l29.837-4.228
			c12.11-1.354,24.522-2.446,37.048-3.316c-26.194-14.387-45.732-38.329-54.825-66.365c-38.266,13.493-68.396,46.596-76.104,89.386
			c-2.429,13.49-2.432,26.855-0.324,39.648c31.055-21.621,59.203-21.403,90.166,9.364h-88.223
			c10.821,43.104,45.926,78.066,92.506,86.456C394.79,445.262,436.247,428.655,462.253,397.619z"/>
		<path fill="#FFFFFF" d="M427.101,239.101c-2.546-11.728-12.976-20.512-25.458-20.512c-12.409,0-22.788,8.682-25.411,20.304
			v-20.219l0.085-0.084H364.46v0.084l-12.189,23.236l-12.192-23.32h-11.94v52.13h11.771v-18.75l12.361,18.75l0,0l12.189-18.163
			v18.163h11.771v-20.304c2.623,11.622,13.002,20.304,25.411,20.304c12.482,0,22.912-8.786,25.458-20.512v20.512h11.771v-26.066
			l14.713,26.066h11.938v-52.13h-11.77v26.064l-14.631-26.064h-12.022V239.101z M427.101,249.785h-12.12
			c-2.06,5.359-7.254,9.164-13.338,9.164c-7.889,0-14.285-6.4-14.285-14.295c0-7.892,6.396-14.292,14.285-14.292
			c6.084,0,11.278,3.805,13.338,9.166h12.12V249.785z"/>
		<path fill="#52AE51" d="M315.38,424.095c109.165-75.321,165.233-161.519,218.512-322.884l0.252,0.124
			c5.25,5.987,9.997,12.574,14.136,19.743c13.632,23.613,18.536,49.813,15.706,74.733C546.79,296.049,448.323,414.986,418.239,430.2
			c-9.108,3.425-10.102,4.899-22.83,7.457C368.032,443.156,339.521,438.119,315.38,424.095z"/>
		<path fill="#5DB945" d="M341.517,435.165c28.232-17.665,59.817-44.923,90.457-80.868c0.896-1.051,1.793-2.115,2.692-3.181
			c18.341-21.868,36.301-46.849,52.942-74.747c1.296-2.174,2.582-4.365,3.86-6.572c2.676-4.615,5.315-9.307,7.911-14.078
			c1.719-3.152,3.418-6.337,5.098-9.557c4.566-8.745,8.992-17.737,13.254-26.966c1.66-3.597,3.297-7.225,4.909-10.892
			c1.583-3.618,3.145-7.266,4.682-10.952h-5.192h-5.412h-2.74l-4.124-12.956l-5.494-2.495c-0.597,1.455-1.199,2.905-1.799,4.351
			c-1.662,3.991-3.34,7.928-5.024,11.815c-2.4,5.523-4.825,10.942-7.276,16.255c-1.706,3.698-3.427,7.348-5.165,10.947
			c-3.674,7.626-7.418,15.032-11.242,22.238c-1.644,3.1-3.302,6.159-4.975,9.183c-1.111,2.007-2.229,3.998-3.354,5.976
			c-1.545,2.712-3.104,5.397-4.675,8.054c-1.107,1.871-2.224,3.725-3.343,5.567c-16.853,27.676-35.358,52.253-56.375,74.829
			c-24.662,26.499-52.788,50.233-85.751,72.979c5.604,3.256,11.44,6.025,17.447,8.296
			C335.667,433.42,338.565,434.346,341.517,435.165z"/>
		<polygon fill="#52AE51" points="559.233,97.092 572.286,94.259 578.957,106.055 592.01,108.887 593.404,122.433 604.199,130.441 
			600.076,143.395 606.747,155.19 597.818,165.313 599.213,178.856 587.023,184.396 582.899,197.352 569.557,197.352 
			560.628,207.473 548.438,201.933 536.251,207.473 527.322,197.352 513.978,197.352 509.854,184.396 497.664,178.856 
			499.059,165.313 490.13,155.19 496.804,143.395 492.68,130.441 503.473,122.433 504.869,108.887 517.92,106.055 524.591,94.259 
			537.644,97.092 548.438,89.086 		"/>
		<g>
			<polygon fill="#FFCF0A" points="532.028,107.043 555.448,120.632 581.969,116.876 576.755,143.428 588.844,167.844 
				562.196,170.667 543.145,189.511 531.896,164.702 508.033,151.932 527.726,133.777 			"/>
			
				<ellipse transform="matrix(-0.4284 -0.9036 0.9036 -0.4284 654.2885 707.1594)" fill="#5DB945" stroke="#FFFFFF" stroke-width="3" cx="550.802" cy="146.644" rx="23.223" ry="23.003"/>
			
				<ellipse transform="matrix(-0.4284 -0.9036 0.9036 -0.4284 654.2839 707.1631)" fill="#4387B2" stroke="#FFFFFF" stroke-width="2" cx="550.805" cy="146.644" rx="18.137" ry="17.966"/>
			<g>
				<polygon fill="#FFFFFF" points="541.941,136.005 543.892,136.448 545.683,135.602 545.886,137.586 547.264,139.043 
					545.441,139.829 544.498,141.574 543.172,140.071 541.209,139.699 542.212,137.985 				"/>
				<polygon fill="#FFFFFF" points="541.852,150.88 543.179,151.18 544.399,150.605 544.537,151.956 545.475,152.947 
					544.235,153.481 543.595,154.67 542.688,153.648 541.354,153.392 542.035,152.227 				"/>
				<polygon fill="#FFFFFF" points="555.393,137.76 556.961,138.115 558.404,137.434 558.566,139.031 559.676,140.204 
					558.208,140.837 557.449,142.244 556.381,141.033 554.803,140.731 555.607,139.353 				"/>
				<polygon fill="#FFFFFF" points="550.254,144.238 551.685,144.564 553.004,143.941 553.151,145.401 554.167,146.472 
					552.825,147.049 552.132,148.333 551.155,147.23 549.715,146.953 550.452,145.693 				"/>
				<polygon fill="#FFFFFF" points="555.407,152.173 556.961,152.149 558.16,151.18 558.678,152.645 559.987,153.491 
					558.755,154.419 558.36,155.913 557.082,155.021 555.53,155.096 555.973,153.621 				"/>
			</g>
		</g>
		<path fill="#FFFFFF" d="M422.399,391.77l-17.539-17.031l12.605-12.982l2.966,2.879l-9.159,9.43l3.895,3.783l8.516-8.77
			l2.966,2.879l-8.519,8.767l4.753,4.616l9.489-9.774l2.966,2.879L422.399,391.77z M438.219,375.198l-18.312-15.888l3.246-3.74
			l15.189,13.182l8.032-9.258l3.12,2.707L438.219,375.198z M451.707,359.473l-19.156-15.191l11.242-14.178l3.239,2.567l-8.168,10.3
			l4.255,3.374l7.594-9.577l3.239,2.567l-7.597,9.574l5.189,4.116l8.467-10.674l3.234,2.566L451.707,359.473z M465.566,341.619
			l-19.67-14.52l2.941-3.98l19.668,14.517L465.566,341.619z M472.748,315.867l3.918-3.105c1.804,2.129,2.756,4.266,2.869,6.414
			c0.106,2.145-0.58,4.298-2.064,6.459c-1.842,2.681-4.266,4.252-7.282,4.721c-3.012,0.464-6.105-0.392-9.279-2.574
			c-3.353-2.304-5.366-4.963-6.033-7.969c-0.667-3.008-0.029-5.925,1.912-8.748c1.694-2.469,3.802-3.969,6.315-4.504
			c1.496-0.326,3.203-0.159,5.137,0.491l-1.809,4.683c-1.206-0.479-2.371-0.545-3.495-0.206c-1.126,0.343-2.057,1.054-2.799,2.137
			c-1.027,1.493-1.329,3.077-0.895,4.743c0.431,1.667,1.845,3.325,4.247,4.977c2.543,1.747,4.673,2.535,6.382,2.359
			c1.716-0.175,3.071-0.996,4.077-2.461c0.747-1.086,1.047-2.256,0.89-3.506C474.685,318.525,473.995,317.221,472.748,315.867z
			 M479.473,333.515l-1.615-1.109c0.75-0.875,1.396-1.709,1.941-2.502c0.561-0.819,0.836-1.527,0.808-2.124
			c-0.008-0.457-0.187-0.801-0.537-1.043c-0.312-0.212-0.679-0.256-1.104-0.13c-0.426,0.13-0.844,0.493-1.252,1.088
			c-0.406,0.59-0.723,1.259-0.967,2.001l-1.119-1.298c0.239-0.888,0.646-1.74,1.213-2.567c0.788-1.147,1.637-1.842,2.551-2.09
			c0.916-0.25,1.735-0.129,2.458,0.367c0.81,0.561,1.237,1.336,1.288,2.347c0.077,1.36-0.454,2.872-1.598,4.534
			C480.727,332.171,480.038,333.014,479.473,333.515z M474.39,308.012c-2.123-1.309-3.708-2.729-4.762-4.254
			c-0.77-1.125-1.322-2.359-1.663-3.701c-0.336-1.337-0.409-2.617-0.221-3.848c0.254-1.63,0.902-3.3,1.943-4.994
			c1.897-3.072,4.363-4.936,7.404-5.607c3.043-0.662,6.26,0.051,9.656,2.144c3.364,2.076,5.437,4.619,6.21,7.614
			c0.778,3,0.217,6.035-1.668,9.09c-1.91,3.095-4.375,4.978-7.395,5.635C480.882,310.75,477.708,310.061,474.39,308.012z
			 M476.915,303.593c2.359,1.455,4.484,2.011,6.379,1.673c1.888-0.338,3.353-1.35,4.385-3.023c1.037-1.683,1.281-3.428,0.742-5.253
			c-0.549-1.825-2.028-3.479-4.447-4.97c-2.386-1.473-4.491-2.047-6.312-1.719c-1.825,0.319-3.264,1.35-4.336,3.09
			c-1.071,1.73-1.337,3.5-0.808,5.291C473.055,300.477,474.52,302.116,476.915,303.593z M466.551,292.984l-1.129,1.832
			c-0.225-0.121-0.399-0.223-0.52-0.3c-0.991-0.609-1.607-1.325-1.842-2.137c-0.24-0.81-0.124-1.601,0.343-2.356
			c0.205-0.332,0.426-0.617,0.677-0.855c0.249-0.244,0.773-0.637,1.568-1.183c0.801-0.549,1.332-1.03,1.598-1.46
			c0.187-0.303,0.244-0.611,0.182-0.934c-0.065-0.326-0.307-0.649-0.723-0.988l1.129-1.827c1.286,0.806,2.062,1.61,2.332,2.419
			c0.267,0.813,0.172,1.586-0.28,2.321c-0.2,0.323-0.428,0.618-0.688,0.884c-0.193,0.185-0.728,0.6-1.607,1.256
			c-0.885,0.659-1.44,1.186-1.689,1.582c-0.187,0.305-0.237,0.596-0.152,0.881C465.825,292.406,466.096,292.693,466.551,292.984z
			 M499.049,290.804l-21.362-11.886l8.796-15.81l3.613,2.009l-6.391,11.488l4.742,2.637l5.943-10.679L498,270.57l-5.941,10.684
			l5.786,3.217l6.626-11.902l3.608,2.007L499.049,290.804z M502.406,268.424l1.765-4.508c1.566,0.476,2.881,0.492,3.954,0.053
			c1.076-0.442,1.951-1.332,2.63-2.664c0.721-1.408,0.967-2.622,0.732-3.645c-0.231-1.021-0.747-1.736-1.547-2.146
			c-0.518-0.264-1.029-0.336-1.547-0.223c-0.51,0.116-1.095,0.48-1.743,1.1c-0.444,0.414-1.354,1.422-2.743,3.015
			c-1.788,2.045-3.348,3.323-4.689,3.833c-1.88,0.721-3.686,0.634-5.414-0.251c-1.109-0.565-1.992-1.414-2.64-2.53
			c-0.647-1.122-0.921-2.403-0.826-3.842c0.099-1.438,0.57-2.984,1.426-4.66c1.39-2.721,3.041-4.466,4.953-5.218
			c1.916-0.759,3.894-0.655,5.953,0.305l-2.101,4.489c-1.221-0.387-2.231-0.399-3.036-0.036c-0.805,0.362-1.525,1.155-2.153,2.381
			c-0.646,1.269-0.89,2.397-0.73,3.384c0.104,0.634,0.44,1.095,1.006,1.382c0.518,0.264,1.07,0.273,1.655,0.027
			c0.757-0.314,1.927-1.406,3.524-3.285c1.596-1.873,2.925-3.181,3.981-3.928c1.065-0.744,2.209-1.167,3.441-1.269
			c1.235-0.094,2.538,0.206,3.911,0.907c1.245,0.633,2.238,1.581,2.976,2.827c0.735,1.256,1.047,2.645,0.926,4.182
			c-0.116,1.541-0.66,3.254-1.627,5.145c-1.406,2.756-3.12,4.541-5.146,5.365C507.277,269.441,504.979,269.371,502.406,268.424z"/>
	</g>
</g>
</svg>
