<?xml version="1.0" encoding="UTF-8"?>
<!DOCTYPE svg PUBLIC "-//W3C//DTD SVG 1.1//EN" "http://www.w3.org/Graphics/SVG/1.1/DTD/svg11.dtd">
<!-- Creator: CorelDRAW X7 -->
<svg xmlns="http://www.w3.org/2000/svg" xml:space="preserve" width="500px" height="379px" version="1.1" style="shape-rendering:geometricPrecision; text-rendering:geometricPrecision; image-rendering:optimizeQuality; fill-rule:evenodd; clip-rule:evenodd"
viewBox="0 0 33977 25794"
 xmlns:xlink="http://www.w3.org/1999/xlink">
 <defs>
  <style type="text/css">
   <![CDATA[
    .fil2 {fill:none}
    .fil4 {fill:#EDEDED}
    .fil3 {fill:#F6F6F6}
    .fil1 {fill:#003155;fill-rule:nonzero}
    .fil0 {fill:#D9DADB;fill-rule:nonzero}
   ]]>
  </style>
 </defs>
<symbol id="Fm0-2212-0" viewBox="252999 -2001659 36174 230463">
 <polygon class="fil0" points="268169,-1771196 253375,-1771196 253375,-2001659 268169,-2001659 "/>
 <polygon class="fil1" points="289173,-1881833 252999,-1881833 252999,-1891022 289173,-1891022 "/>
</symbol>
<symbol id="Symbol1" viewBox="252999 -2001659 36174 230463">
 <polygon class="fil0" points="268169,-1771196 253375,-1771196 253375,-2001659 268169,-2001659 "/>
 <polygon class="fil1" points="289173,-1881833 252999,-1881833 252999,-1891022 289173,-1891022 "/>
</symbol>
 <g id="Camada_x0020_1">
  <metadata id="CorelCorpID_0Corel-Layer"/>
  <rect class="fil2" width="33977" height="25794"/>
  <g id="_1256254928">
   <g>
    <path class="fil3" d="M22862 17359c66,-503 86,-1003 61,-1494 -1986,1378 -4733,1182 -6503,-587 -1937,-1938 -1988,-5048 -151,-7047l-87 -16c-470,-85 -937,-127 -1399,-131 -1700,2474 -1450,5884 748,8083l16 16c1944,1935 4900,2385 7315,1176z"/>
    <path class="fil3" d="M23625 15278l0 0zm1126 -7843c-466,103 -919,245 -1355,424 78,69 155,140 229,214 1988,1988 1989,5211 4,7201l-4 4 0 0 -4 4c-1422,1418 -3472,1822 -5252,1213 60,474 163,938 303,1388 1570,341 3257,86 4696,-807 93,-58 181,-122 271,-178 269,-170 407,3 587,183 301,300 601,600 901,900 200,200 400,400 600,600 900,900 1800,1801 2701,2701 330,330 870,330 1201,0l0 0c330,-331 330,-871 0,-1201 -291,-290 -582,-581 -872,-872 -401,-401 -802,-802 -1203,-1203 -100,-100 -201,-200 -301,-300 -496,-496 -992,-992 -1488,-1488 -100,-101 -201,-201 -301,-301 -205,-205 -419,-353 -200,-653 1634,-2381 1463,-5629 -513,-7829z"/>
    <path class="fil3" d="M25077 12316c465,-389 889,-830 1261,-1316 -148,-1394 -756,-2748 -1824,-3815 -2481,-2481 -6502,-2481 -8983,0 -1186,1186 -1805,2725 -1856,4280 403,454 856,866 1354,1224 -326,-1617 137,-3362 1391,-4616 1990,-1989 5215,-1989 7205,0 1158,1158 1642,2735 1452,4243z"/>
   </g>
   <path class="fil3" d="M18671 17883c-140,-450 -242,-914 -303,-1388 -711,-244 -1380,-649 -1948,-1217 -736,-736 -1199,-1640 -1391,-2589 -498,-358 -951,-769 -1354,-1224 -56,1695 563,3408 1856,4702l16 16c882,877 1971,1450 3124,1700z"/>
   <path class="fil4" d="M18368 16495c61,474 163,938 303,1388 1390,302 2871,137 4191,-524 66,-503 86,-1003 61,-1494 -1349,936 -3049,1146 -4555,630z"/>
   <path class="fil3" d="M23625 15278l0 0zm-702 587c25,491 5,991 -61,1494 172,-86 340,-181 506,-283 93,-58 181,-122 271,-178 269,-170 407,3 587,183 301,300 601,600 901,900 200,200 400,400 600,600 900,900 1800,1801 2701,2701 330,330 870,330 1201,0l0 0c330,-331 330,-871 0,-1201 -291,-290 -582,-581 -872,-872 -401,-401 -802,-802 -1203,-1203 -100,-100 -201,-200 -301,-300 -496,-496 -992,-992 -1488,-1488 -100,-101 -201,-201 -301,-301 -205,-205 -419,-353 -200,-653 873,-1271 1230,-2790 1074,-4265 -372,487 -796,928 -1261,1317 -137,1082 -619,2127 -1448,2958l-4 4 0 0 -4 4c-219,218 -453,413 -698,583z"/>
   <path class="fil4" d="M25077 12316c465,-389 889,-830 1261,-1317 -137,-1286 -666,-2539 -1587,-3564 -466,102 -919,245 -1355,424 78,69 155,140 229,214 1158,1158 1642,2735 1452,4243z"/>
   <path class="fil4" d="M16270 8231l-88 -16c-469,-85 -937,-128 -1399,-131 -699,1018 -1069,2195 -1108,3381 403,455 856,866 1354,1224 -312,-1550 101,-3218 1241,-4458z"/>
   <path class="fil3" d="M16182 8215l88 16c49,-53 99,-106 150,-158 1915,-1915 4975,-1986 6976,-214 436,-179 889,-322 1355,-424 -77,-85 -156,-169 -237,-250 -2481,-2481 -6502,-2481 -8983,0 -281,281 -530,582 -748,899 462,3 930,46 1399,131z"/>
   <g>
    <path class="fil4" d="M22580 13905c-21,-67 -42,-134 -64,-201l-1462 0 -1137 0 -1074 0c-488,-140 -1130,-721 -1531,-1084l-2 -2 -90 -81c52,-88 264,-127 454,-162l616 -87c249,-28 505,-51 764,-69 272,-19 546,-33 818,-42 299,-11 595,-17 883,-19l172 3 530 8 368 5 -71 -120 -122 -2 -179 -3 -15 -480c-38,-54 -77,-108 -117,-162l21 641 -173 -2 -19 -862c-37,-47 -76,-94 -114,-141l22 1003 -185 1 -63 0 -1 -121 -10 -1025 -1 -132c-729,-803 -1620,-1465 -2634,-1932 -924,608 -1538,1655 -1538,2839l0 0c0,554 134,1078 372,1541 400,-72 792,74 1208,487l-903 0c621,829 1610,1368 2719,1368l0 0c1018,0 1934,-453 2558,-1167z"/>
    <path class="fil4" d="M21760 8761c-1213,860 -2194,2049 -2798,3465l92 -7c272,-19 546,-33 818,-42 299,-11 595,-17 883,-19l172 3 530 8 817 12c170,4 649,22 1095,70 33,-187 50,-379 50,-575l0 0c0,-332 -49,-653 -138,-957l1 20 100 1403 -878 -64 -323 -12 -309 -9 -9 -197 -64 -1362 -40 -850 -20 -441 796 277 109 39c-248,-302 -547,-561 -884,-762zm-3237 4805c-33,142 -63,285 -90,430 -37,210 -67,421 -88,630 495,283 1068,446 1677,446l0 0c1165,0 2197,-594 2810,-1494l-5 3 -306 123 -1467 0 -1137 0 -1074 0c-101,-29 -209,-77 -320,-138zm3166 -3048l-61 -1298 -260 146 39 1229 46 1454 179 3 128 2 -5 -99 -66 -1437zm-392 117l-34 -1047 -148 -40 25 1155 29 1343 173 2 -45 -1413zm-268 124l-25 -1191 -217 121 12 1212 10 1025 1 121 63 0 185 -1 -29 -1287z"/>
    <path class="fil4" d="M20022 8279l0 0zm-1662 5818c1533,276 3044,107 4399,-415 25,-35 49,-69 73,-104l-5 3 -306 123 -1467 0 -1137 0 -1074 0c-488,-140 -1130,-721 -1531,-1084l-2 -2 -90 -81c52,-88 264,-127 454,-162l616 -87c249,-28 505,-51 764,-69 272,-19 546,-33 818,-42 299,-11 595,-17 883,-19l172 3 530 8 817 12c170,4 649,22 1095,70 33,-187 50,-379 50,-575l0 0c0,-332 -49,-653 -138,-957l1 20 100 1403 -878 -64 -323 -12 -309 -9 -9 -197 -64 -1362 -40 -850 -20 -441 796 277 109 39c-624,-758 -1568,-1244 -2622,-1244 -1868,0 -3396,1528 -3396,3397l0 0c0,554 134,1078 372,1541 400,-72 792,74 1208,487l-903 0c44,59 90,116 137,172 299,90 606,164 920,221zm3329 -3579l-61 -1298 -260 146 39 1229 46 1454 179 3 128 2 -5 -99 -66 -1437zm-392 117l-34 -1047 -148 -40 25 1155 29 1343 173 2 -45 -1413zm-268 124l-25 -1191 -217 121 12 1212 10 1025 1 121 63 0 185 -1 -29 -1287z"/>
   </g>
   <path class="fil3" d="M18345 14626c17,-173 40,-346 69,-519 -18,-4 -36,-7 -54,-10 -314,-57 -621,-131 -919,-221 255,299 561,554 904,750z"/>
   <path class="fil4" d="M18414 14107c-29,173 -52,346 -69,519 495,283 1068,446 1677,446l0 0c1018,0 1934,-453 2558,-1167l-44 -141c-1281,451 -2691,591 -4122,343z"/>
   <path class="fil3" d="M22536 13764l44 141c63,-72 122,-147 179,-224 -74,29 -149,56 -223,83z"/>
   <path class="fil4" d="M22536 13764c74,-27 149,-54 223,-83 25,-34 49,-68 73,-103l-5 3 -306 123 -5 0 20 60zm-777 -5004c-572,406 -1092,885 -1546,1426 205,185 400,380 585,583l-11 -1080 217 -121 25 1191 7 284c38,46 77,93 114,141l-10 -481 -25 -1155 148 40 34 1047 24 772c40,53 79,107 117,161l-31 -973 -39 -1229 260 -146 61 1298 66 1437 5 99 -5 0 71 120 448 7c170,4 649,22 1095,70 33,-187 50,-379 50,-575l0 0c0,-332 -49,-653 -138,-957l1 20 100 1403 -878 -64 -323 -12 -309 -9 -9 -197 -64 -1362 -40 -850 -20 -441 796 277 109 39c-248,-302 -548,-561 -885,-763z"/>
   <path class="fil3" d="M22536 13764l-20 -60 -1462 0 -1137 0 -1074 0c-101,-29 -209,-77 -320,-138 -34,142 -63,285 -90,430 -6,37 -12,74 -19,111 1431,248 2841,108 4122,-343zm-710 -1590l-71 -120 -123 -2 -179 -3 -15 -481c-38,-54 -77,-108 -117,-161l21 641 -173 -2 -19 -862c-37,-48 -76,-95 -114,-141l22 1003 -185 1 -63 0 -1 -121 -10 -1025 -1 -132c-185,-203 -380,-398 -585,-583 -508,607 -932,1292 -1251,2040l92 -7c272,-19 546,-33 818,-42 299,-11 595,-17 883,-19l172 3 530 8 369 5z"/>
   <path class="fil4" d="M18433 13996c27,-145 56,-288 90,-430 -424,-234 -893,-658 -1211,-946l-2 -2 -90 -81c52,-88 264,-127 454,-162l616 -87c220,-25 445,-46 672,-62 319,-748 743,-1433 1251,-2040 -603,-543 -1292,-1001 -2049,-1349 -924,608 -1538,1655 -1538,2839l0 0c0,554 134,1078 372,1541 400,-72 792,74 1208,487l-903 0c44,59 90,117 138,172 298,90 605,164 919,221 18,3 36,6 54,10 7,-37 13,-74 19,-111z"/>
   <path class="fil3" d="M20022 8279l0 0zm-1858 558c757,348 1446,806 2049,1349 454,-541 974,-1020 1546,-1426 -508,-305 -1103,-481 -1737,-481 -684,0 -1323,206 -1858,558z"/>
   <path class="fil3" d="M16876 20599c-338,1040 -532,2137 -564,3263 -2610,-4841 -6950,-8306 -13936,-8567 1220,-1398 2776,-2514 4574,-3212 -12,23 -24,46 -36,69 1336,1583 2699,2858 4078,3865 2168,1583 4377,2500 6585,2885 -277,544 -512,1112 -701,1697z"/>
   <path class="fil3" d="M31601 8827c-36,-1018 -204,-2011 -490,-2960 -3029,-2146 -6207,-3473 -10076,-3833 -3143,-292 -6761,41 -11138,1075 -666,1083 -1164,2291 -1453,3595 8071,-3310 17954,-3245 23157,2123z"/>
  </g>
 </g>
</svg>
