<?xml version="1.0" encoding="UTF-8"?>
<!DOCTYPE svg PUBLIC "-//W3C//DTD SVG 1.1//EN" "http://www.w3.org/Graphics/SVG/1.1/DTD/svg11.dtd">
<!-- Creator: CorelDRAW X7 -->
<svg xmlns="http://www.w3.org/2000/svg" xml:space="preserve" width="501px" height="458px" version="1.1" style="shape-rendering:geometricPrecision; text-rendering:geometricPrecision; image-rendering:optimizeQuality; fill-rule:evenodd; clip-rule:evenodd"
viewBox="0 0 24457 22366"
 xmlns:xlink="http://www.w3.org/1999/xlink">
 <defs>
  <style type="text/css">
   <![CDATA[
    .fil6 {fill:none}
    .fil3 {fill:#EDEDED}
    .fil2 {fill:#F6F6F6}
    .fil5 {fill:white}
    .fil1 {fill:#003155;fill-rule:nonzero}
    .fil0 {fill:#D9DADB;fill-rule:nonzero}
    .fil4 {fill:#EDEDED;fill-rule:nonzero}
   ]]>
  </style>
 </defs>
<symbol id="Fm0-2212-0" viewBox="253090 -1728154 31232 198978">
 <polygon class="fil0" points="266187,-1529176 253414,-1529176 253414,-1728154 266187,-1728154 "/>
 <polygon class="fil1" points="284322,-1624698 253090,-1624698 253090,-1632632 284322,-1632632 "/>
</symbol>
<symbol id="Symbol1" viewBox="253090 -1728154 31232 198978">
 <polygon class="fil0" points="266187,-1529176 253414,-1529176 253414,-1728154 266187,-1728154 "/>
 <polygon class="fil1" points="284322,-1624698 253090,-1624698 253090,-1632632 284322,-1632632 "/>
</symbol>
 <g id="Camada_x0020_1">
  <metadata id="CorelCorpID_0Corel-Layer"/>
  <g id="_1254372496">
   <ellipse class="fil2" cx="12305" cy="9359" rx="9548" ry="7493"/>
   <path class="fil2" d="M18423 13088c465,-54 1835,-303 2160,-2229l-5251 3c132,1674 1394,2210 3091,2226z"/>
   <path class="fil2" d="M9597 13081c-27,-562 -230,-1135 -610,-1445l-391 -289c-1774,-843 -3926,-186 -4006,1745l5007 -11z"/>
   <path class="fil3" d="M9113 18772c-144,-664 -735,-1161 -1441,-1161 -703,0 -1290,491 -1439,1149l0 -1145 5 -4 -671 0 0 4 -690 1316 -691 -1320 -675 0 0 2951 666 0 0 -1062 700 1062 0 0 690 -1028 0 1028 666 0 0 -1150c149,658 736,1150 1439,1150 706,0 1297,-498 1441,-1161l0 1161 666 0 0 -1476 833 1476 676 0 0 -2951 -666 0 0 1475 -829 -1475 -680 0 0 1161zm0 605l-686 0c-117,303 -411,518 -755,518 -447,0 -809,-362 -809,-809 0,-447 362,-809 809,-809 344,0 638,215 755,519l686 0 0 581z"/>
   <path class="fil4" d="M13050 20224c0,48 -39,87 -88,87 -48,0 -87,-39 -87,-87l0 -1508 -134 -245c-24,-43 -8,-96 34,-119 37,-20 81,-11 108,19 209,221 389,433 550,621 272,320 487,572 684,685 324,185 639,-38 1213,-1041l468 -1030c20,-44 71,-63 115,-44 35,16 55,52 51,88 -4,168 -11,324 -18,475 -31,711 -58,1321 152,2049 13,46 -14,95 -60,108 -46,13 -94,-14 -108,-60 -218,-756 -190,-1379 -158,-2105l1 -34 -285 626c-1,4 -3,7 -5,11 -642,1122 -1022,1355 -1453,1108 -222,-127 -446,-389 -730,-722 -78,-92 -161,-190 -250,-291l0 1409zm5318 -632c7,-18 19,-33 34,-43 12,-27 18,-61 20,-105 -33,36 -88,39 -124,7 -35,-32 -39,-87 -6,-123 39,-44 82,-85 128,-127 -3,-660 20,-1720 472,-2192l8 -8c182,-146 335,-206 457,-202 109,4 194,54 255,137 54,74 88,174 104,290 38,293 -44,703 -223,1023l-1 2c-324,536 -620,791 -846,985l-51 43 1 130c1,45 -2,86 -8,122l77 -1c69,-25 107,-68 136,-100 14,-15 27,-29 40,-41 95,-84 170,-80 386,159l79 5c139,8 254,15 365,-15l-6 -15c-38,-97 -26,-209 73,-339l2 -3c78,-101 187,-137 275,-124 42,6 80,23 110,48l0 0c33,28 56,65 65,109 16,79 -14,180 -124,286 -38,37 -76,69 -113,95l10 7c99,71 217,95 338,91 128,-4 263,-38 387,-78 219,-71 227,-172 235,-274 1,-20 3,-39 5,-59 6,-48 50,-83 97,-77 33,4 59,25 71,53l51 109 193 0c48,0 88,39 88,87l-1 12c-3,40 -7,77 -11,113 -15,129 -29,251 86,299 44,19 65,70 47,114 -19,45 -70,66 -114,47 -237,-98 -215,-284 -193,-480l2 -17 -152 0c-9,0 -19,-2 -28,-5 -37,93 -120,179 -322,244l-1 0c-136,45 -286,82 -435,86 -157,5 -311,-27 -445,-123 -25,-18 -50,-37 -73,-57 -153,60 -304,51 -491,40 -37,-2 -75,-4 -110,-6 -24,1 -49,-9 -67,-29 -135,-154 -158,-176 -163,-172 -7,6 -16,16 -26,27 -44,49 -102,114 -223,153 -8,2 -16,4 -25,4l-182 3c-61,61 -150,96 -280,123 -221,46 -409,-8 -556,-123 -86,-66 -157,-153 -213,-252 -137,163 -274,283 -398,314 -148,36 -273,-22 -359,-220 -122,146 -234,195 -339,163 -125,-38 -218,-195 -289,-438 -13,-47 14,-95 60,-109 46,-13 94,14 108,60 54,186 110,301 171,319 53,16 131,-53 244,-231 26,-40 80,-52 121,-26 19,12 32,31 37,52l1 0c52,210 123,280 202,260 107,-26 233,-149 363,-316 -14,-41 -26,-82 -36,-124 -49,-214 -62,-458 -51,-697 12,-286 57,-565 113,-774l2 -6c179,-527 392,-811 576,-907 95,-49 185,-54 265,-20 76,33 138,101 179,199 91,218 81,610 -110,1091 -2,6 -5,11 -8,17 -26,46 -57,103 -95,175 -144,270 -384,722 -639,1067 49,107 117,199 201,265 109,85 249,125 415,90 88,-18 147,-38 182,-67zm1462 -125c38,-25 76,-55 115,-93 60,-58 79,-100 74,-125 0,-4 -3,-8 -5,-10 -6,-4 -14,-8 -23,-9 -34,-5 -77,12 -112,57l-2 2c-56,74 -66,129 -49,172l2 6zm-2325 -365c214,-316 423,-707 550,-947 42,-78 76,-142 95,-176 173,-434 186,-776 110,-958 -23,-55 -52,-91 -86,-106 -31,-13 -70,-9 -115,15 -148,77 -327,328 -491,805 -53,199 -96,463 -107,733 -9,219 1,441 44,634zm1510 -1968c-372,393 -418,1283 -421,1916 208,-180 467,-424 747,-888 162,-288 236,-654 202,-913 -12,-87 -35,-160 -72,-209 -29,-41 -69,-65 -119,-66 -82,-3 -193,44 -337,160z"/>
   <path class="fil3" d="M14028 13081l1029 -11276 -2726 0 0 11276 -408 0 0 -11276 -2727 0 1029 11276 -5634 0c87,-1923 2235,-2576 4005,-1734 -616,-659 -2038,-803 -3083,-392 -603,238 -791,413 -1160,847 -329,387 -331,943 -538,1279l-1211 0 0 664 9319 0 408 0 9304 0 0 -664 -3470 0c-1566,-67 -2707,-632 -2833,-2219l5251 -3c-49,292 -123,545 -213,765l-1 2c115,-95 292,-495 312,-1026l-6097 26c90,1429 1111,2192 1970,2455l-2526 0z"/>
   <path class="fil5" d="M17800 9446c71,-446 421,-1145 799,-1285 185,904 -19,1216 -248,1985 650,-161 1717,-1458 790,-2895 -433,-671 -1229,-1324 -1507,-1777 -208,-338 -135,-568 -333,-862 -239,1213 213,1360 644,2197 351,684 -27,1163 -214,1820 -54,190 -241,817 69,817zm-508 730l178 144c-98,-268 -121,-335 -113,-629 25,-916 478,-1345 443,-2218 -26,-652 -441,-1066 -919,-1699 -31,-42 -52,-71 -86,-112 -81,-95 -83,-93 -159,-166l500 1820 57 449c-403,-335 -237,-660 -879,-845 341,1023 221,665 256,1814 23,730 319,1050 722,1442z"/>
  </g>
  <rect class="fil6" width="24457" height="22366"/>
 </g>
</svg>
