<?xml version="1.0" encoding="UTF-8"?>
<!DOCTYPE svg PUBLIC "-//W3C//DTD SVG 1.1//EN" "http://www.w3.org/Graphics/SVG/1.1/DTD/svg11.dtd">
<!-- Creator: CorelDRAW X7 -->
<svg xmlns="http://www.w3.org/2000/svg" xml:space="preserve" width="913px" height="500px" version="1.1" style="shape-rendering:geometricPrecision; text-rendering:geometricPrecision; image-rendering:optimizeQuality; fill-rule:evenodd; clip-rule:evenodd"
viewBox="0 0 106772 58479"
 xmlns:xlink="http://www.w3.org/1999/xlink">
 <defs>
  <style type="text/css">
   <![CDATA[
    .fil2 {fill:none}
    .fil3 {fill:white}
    .fil1 {fill:#003155;fill-rule:nonzero}
    .fil0 {fill:#D9DADB;fill-rule:nonzero}
   ]]>
  </style>
 </defs>
<symbol id="Fm0-2212-0" viewBox="-452713 -4225629 45678 291012">
 <polygon class="fil0" points="-433557,-3934617 -452238,-3934617 -452238,-4225629 -433557,-4225629 "/>
 <polygon class="fil1" points="-407035,-4074321 -452713,-4074321 -452713,-4085925 -407035,-4085925 "/>
</symbol>
<symbol id="Symbol1" viewBox="-452713 -4225629 45678 291012">
 <polygon class="fil0" points="-433557,-3934617 -452238,-3934617 -452238,-4225629 -433557,-4225629 "/>
 <polygon class="fil1" points="-407035,-4074321 -452713,-4074321 -452713,-4085925 -407035,-4085925 "/>
</symbol>
 <g id="Camada_x0020_1">
  <metadata id="CorelCorpID_0Corel-Layer"/>
  <path class="fil2" d="M8716 0l89339 0c5510,8399 8717,18444 8717,29239 0,10796 -3207,20840 -8717,29240l-89339 0c-5509,-8400 -8716,-18444 -8716,-29240 0,-10795 3207,-20840 8716,-29239z"/>
  <path class="fil3" d="M50121 32425c1694,-60 3375,-93 5010,-105l974 15 3009 45 4637 69c1884,44 10459,386 11243,1723 -508,461 -985,905 -1445,1333 -2081,1941 -3804,3546 -6657,4889l-1740 703 -8323 0 -6457 0 -6095 0c-2769,-800 -6410,-4094 -8690,-6158l-10 -10 -510 -459c295,-499 1502,-722 2579,-921l3492 -495c1417,-158 2870,-286 4336,-388 1542,-107 3100,-185 4647,-241zm-176 -4438c-298,-1373 -1518,-2401 -2979,-2401 -1452,0 -2667,1016 -2974,2377l0 -2367 10 -10 -1388 0 0 10 -1427 2720 -1426 -2730 -1398 0 0 6101 1378 0 0 -2194 1446 2194 0 0 1427 -2125 0 2125 1378 0 0 -2376c307,1360 1522,2376 2974,2376 1461,0 2681,-1028 2979,-2400l0 2400 1378 0 0 -3050 1722 3050 1397 0 0 -6101 -1378 0 0 3051 -1712 -3051 -1407 0 0 2401zm0 1250l-1418 0c-241,628 -849,1073 -1561,1073 -924,0 -1672,-749 -1672,-1673 0,-924 748,-1673 1672,-1673 712,0 1320,445 1561,1073l1418 0 0 1200zm5858 2450l-360 0 -6 -684 -57 -5816 -67 -6881 1228 -685 148 6758 160 7305 -1046 3zm-16746 -6788c-4478,1579 -8005,5454 -8907,10461 -284,1579 -284,3144 -38,4641 3635,-2531 6929,-2505 10553,1096l-10325 0c1266,5044 5375,9136 10826,10118 4998,900 9850,-1044 12893,-4676 1824,1643 4114,2814 6708,3282 7420,1336 14518,-3596 15855,-11016 1086,-6036 -1974,-11859 -7147,-14540l568 7961 -4988 -358 -1831 -73 -1755 -51 -52 -1115 -360 -7732 -224 -4823 -116 -2503 4516 1575c-1334,-4936 -5399,-8916 -10765,-9883 -7420,-1336 -14518,3596 -15854,11016 -413,2291 -228,4551 443,6620zm21752 6270l26 561 -728 -12 -1013 -18 -265 -8254 -223 -6976 1481 -826 342 7368 380 8157zm-3495 -7108l-143 -6557 843 230 190 5940 257 8018 -980 -6 -167 -7625zm10116 16776l1919 -1069 1176 -810 152 2139 -3799 0 276 -127 276 -133z"/>
 </g>
</svg>
