<?xml version="1.0" encoding="utf-8"?>
<!-- Generator: Adobe Illustrator 16.2.0, SVG Export Plug-In . SVG Version: 6.00 Build 0)  -->
<!DOCTYPE svg PUBLIC "-//W3C//DTD SVG 1.1//EN" "http://www.w3.org/Graphics/SVG/1.1/DTD/svg11.dtd">
<svg version="1.1" id="Layer_1" xmlns="http://www.w3.org/2000/svg" xmlns:xlink="http://www.w3.org/1999/xlink" x="0px" y="0px"
	 width="913px" height="500px" viewBox="0 0 913 500" enable-background="new 0 0 913 500" xml:space="preserve">
<g id="Camada_x0020_1">
	<g id="_1228639616">
		<path fill="#336699" d="M428.57,277.252c14.491-0.516,28.87-0.793,42.86-0.897l8.332,0.122c-0.817-1.869-1.682-3.717-2.588-5.545
			l-3.075,0.01l-0.057-5.853c-6.169-10.774-14.028-20.542-23.296-28.888c-15.606-14.052-35.194-24.071-57.381-28.067
			c-20.637-3.717-40.98-1.767-59.435,4.738c-38.312,13.509-68.471,46.654-76.189,89.49c-2.433,13.505-2.433,26.887-0.326,39.691
			c31.094-21.643,59.274-21.426,90.27,9.376h-88.324c10.836,43.153,45.979,78.154,92.608,86.553
			c42.751,7.699,84.256-8.928,110.287-39.999c-14.108-12.705-24.963-28.718-31.538-46.554h-52.143
			c-23.683-6.839-54.829-35.02-74.333-52.676l-0.085-0.08l-4.354-3.931c2.522-4.27,12.843-6.178,22.054-7.878l29.871-4.232
			c12.125-1.351,24.548-2.446,37.088-3.315C402.015,278.4,415.34,277.725,428.57,277.252z"/>
		<path fill="#FFCC00" d="M594.122,207.444l4.865,68.103l-42.667-3.061l-15.663-0.624l-15.016-0.435l-0.444-9.537
			c-1.69,1.592-3.424,3.127-5.205,4.615l0.223,4.804l-6.226-0.108c-2.744,2.008-5.579,3.896-8.493,5.658l39.668,0.591
			c16.121,0.383,89.471,3.312,96.174,14.751c-4.351,3.93-8.427,7.732-12.356,11.398c-17.813,16.598-32.545,30.329-56.951,41.82
			l-14.879,6.009h-71.205H430.72h-52.143c-23.683-6.839-54.829-35.02-74.333-52.676l-0.085-0.08l-4.354-3.931
			c2.522-4.27,12.843-6.178,22.054-7.878l29.871-4.232c12.125-1.351,24.548-2.446,37.088-3.315
			c-26.224-14.406-45.784-38.374-54.886-66.445c-38.312,13.509-68.471,46.654-76.189,89.49c-2.433,13.505-2.433,26.887-0.326,39.691
			c31.094-21.643,59.274-21.426,90.27,9.376h-88.324c10.836,43.153,45.979,78.154,92.608,86.553
			c42.751,7.699,84.256-8.928,110.287-39.999c15.606,14.058,35.194,24.076,57.381,28.072
			c63.474,11.431,124.193-30.76,135.619-94.229C664.559,280.194,638.376,230.386,594.122,207.444z M576.641,349.209l16.404-9.154
			l10.062-6.92l1.304,18.294h-32.493l2.362-1.081L576.641,349.209z"/>
		<path fill="#5DB945" d="M465.758,62.019c-63.469-11.431-124.188,30.754-135.619,94.228c-3.528,19.593-1.946,38.926,3.793,56.625
			c9.102,28.071,28.662,52.039,54.886,66.445c13.197-0.916,26.522-1.592,39.753-2.064c14.491-0.516,28.87-0.793,42.86-0.897
			l8.332,0.122l25.733,0.383c2.914-1.762,5.749-3.65,8.493-5.658l-8.663-0.151l-2.263-70.61l-1.913-59.667l12.669-7.066
			l2.933,63.025l3.24,69.774c1.781-1.488,3.515-3.023,5.205-4.615l-3.074-66.137l-1.918-41.264l-0.997-21.412l38.634,13.476
			C546.435,104.332,511.66,70.285,465.758,62.019z M477.175,270.932l-3.075,0.01l-0.057-5.853l-0.486-49.752l-0.572-58.859
			l10.51-5.862l1.262,57.811l1.365,62.486L477.175,270.932z M490.103,205.701l-1.224-56.082l7.208,1.96l1.63,50.814l2.196,68.59
			l-8.384-0.057L490.103,205.701z"/>
		<path fill="#52AE51" d="M393.366,208.134c-20.637-3.717-40.98-1.767-59.435,4.738c9.102,28.071,28.662,52.039,54.886,66.445
			c13.197-0.916,26.522-1.592,39.753-2.064c4.647-15.403,12.3-29.267,22.177-41.051C435.141,222.148,415.553,212.13,393.366,208.134
			z"/>
		<path fill="#70B837" d="M450.747,236.201c-9.877,11.785-17.529,25.648-22.177,41.051c14.491-0.516,28.87-0.793,42.86-0.897
			l8.332,0.122c-0.817-1.869-1.682-3.717-2.588-5.545l-3.075,0.01l-0.057-5.853C467.874,254.314,460.015,244.547,450.747,236.201z"
			/>
		<path fill="#72BA34" d="M516.752,196.731l3.24,69.774c1.781-1.488,3.515-3.023,5.205-4.615l-3.074-66.137
			C520.318,196.037,518.528,196.363,516.752,196.731z M450.747,236.201c9.268,8.346,17.127,18.114,23.296,28.888l-0.486-49.752
			C465.097,221.232,457.412,228.241,450.747,236.201z M484.756,208.427l1.365,62.486l-8.946,0.019
			c0.906,1.828,1.771,3.676,2.588,5.545l25.733,0.383c2.914-1.762,5.749-3.65,8.493-5.658l-8.663-0.151l-2.263-70.61
			c-1.8,0.609-3.585,1.261-5.347,1.955l2.196,68.59l-8.384-0.057l-1.427-65.227C488.298,206.565,486.513,207.473,484.756,208.427z"
			/>
		<path fill="#FFCF0A" d="M594.122,207.444l4.865,68.103l-42.667-3.061l-15.663-0.624l-15.016-0.435l-0.444-9.537
			c-1.69,1.592-3.424,3.127-5.205,4.615l0.223,4.804l-6.226-0.108c-2.744,2.008-5.579,3.896-8.493,5.658l39.668,0.591
			c16.121,0.383,89.471,3.312,96.174,14.751c-4.351,3.93-8.427,7.732-12.356,11.398c-17.813,16.598-32.545,30.329-56.951,41.82
			l-14.879,6.009h-71.205c-4.394,17.614-12.649,33.381-23.688,46.554c15.606,14.058,35.194,24.076,57.381,28.072
			c63.474,11.431,124.193-30.76,135.619-94.229C664.559,280.194,638.376,230.386,594.122,207.444z M576.641,349.209l16.404-9.154
			l10.062-6.92l1.304,18.294h-32.493l2.362-1.081L576.641,349.209z"/>
		<path fill="#DFC01D" d="M485.946,351.429H430.72c6.575,17.836,17.43,33.849,31.538,46.554
			C473.297,384.81,481.553,369.043,485.946,351.429z"/>
		<path fill="#4387B2" d="M462.258,397.982c-14.108-12.705-24.963-28.718-31.538-46.554h-52.143
			c-23.683-6.839-54.829-35.02-74.333-52.676l-0.085-0.08l-4.354-3.931c2.522-4.27,12.843-6.178,22.054-7.878l29.871-4.232
			c12.125-1.351,24.548-2.446,37.088-3.315c-26.224-14.406-45.784-38.374-54.886-66.445c-38.312,13.509-68.471,46.654-76.189,89.49
			c-2.433,13.505-2.433,26.887-0.326,39.691c31.094-21.643,59.274-21.426,90.27,9.376h-88.324
			c10.836,43.153,45.979,78.154,92.608,86.553C394.722,445.681,436.227,429.054,462.258,397.982z"/>
		<path fill="#FFFFFF" d="M427.068,239.29c-2.546-11.743-12.989-20.538-25.483-20.538c-12.422,0-22.818,8.691-25.44,20.325v-20.24
			l0.085-0.085h-11.87v0.085L352.154,242.1l-12.205-23.348h-11.955v52.189h11.785V252.17l12.375,18.771l0,0l12.205-18.181v18.181
			h11.785v-20.325c2.622,11.634,13.019,20.325,25.44,20.325c12.494,0,22.938-8.795,25.483-20.533v20.533h11.785v-26.092
			l14.728,26.092h11.955v-52.189h-11.785v26.097l-14.647-26.097h-12.035V239.29z M427.068,249.983h-12.135
			c-2.06,5.366-7.26,9.173-13.349,9.173c-7.902,0-14.303-6.404-14.303-14.307c0-7.907,6.4-14.312,14.303-14.312
			c6.089,0,11.289,3.812,13.354,9.178h12.13V249.983z"/>
	</g>
</g>
</svg>
