<?xml version="1.0" encoding="UTF-8"?>
<!DOCTYPE svg PUBLIC "-//W3C//DTD SVG 1.1//EN" "http://www.w3.org/Graphics/SVG/1.1/DTD/svg11.dtd">
<!-- Creator: CorelDRAW X7 -->
<svg xmlns="http://www.w3.org/2000/svg" xml:space="preserve" width="500px" height="472px" version="1.1" style="shape-rendering:geometricPrecision; text-rendering:geometricPrecision; image-rendering:optimizeQuality; fill-rule:evenodd; clip-rule:evenodd"
viewBox="0 0 146532 138661"
 xmlns:xlink="http://www.w3.org/1999/xlink">
 <defs>
  <style type="text/css">
   <![CDATA[
    .fil4 {fill:#EDEDED}
    .fil3 {fill:#F6F6F6}
    .fil5 {fill:white}
    .fil1 {fill:#003155;fill-rule:nonzero}
    .fil0 {fill:#D9DADB;fill-rule:nonzero}
    .fil2 {fill:#F0F0F0;fill-opacity:0.501961}
   ]]>
  </style>
 </defs>
<symbol id="Fm0-2212-0" viewBox="266792 -20108939 202518 1290239">
 <polygon class="fil0" points="351719,-18818700 268897,-18818700 268897,-20108939 351719,-20108939 "/>
 <polygon class="fil1" points="469310,-19438097 266792,-19438097 266792,-19489543 469310,-19489543 "/>
</symbol>
<symbol id="Symbol1" viewBox="266792 -20108939 202518 1290239">
 <polygon class="fil0" points="351719,-18818700 268897,-18818700 268897,-20108939 351719,-20108939 "/>
 <polygon class="fil1" points="469310,-19438097 266792,-19438097 266792,-19489543 469310,-19489543 "/>
</symbol>
 <g id="Camada_x0020_1">
  <metadata id="CorelCorpID_0Corel-Layer"/>
  <path class="fil2" d="M63067 79283c5290,-189 10542,-290 15651,-328l3043 45c-298,-683 -614,-1358 -946,-2024l-1122 2 -21 -2136c-2253,-3935 -5124,-7503 -8508,-10550 -5699,-5132 -12852,-8791 -20954,-10251 -7536,-1357 -14965,-644 -21704,1732 -13990,4933 -25006,17036 -27823,32679 -888,4932 -890,9818 -119,14496 11354,-7905 21645,-7826 32964,3423l-32253 0c3956,15758 16789,28540 33819,31607 15611,2811 30767,-3260 40275,-14606 -5153,-4641 -9117,-10487 -11519,-17001l-19040 0c-8649,-2498 -20023,-12789 -27146,-19236l-30 -30 -1591 -1435c921,-1559 4689,-2255 8054,-2876l10908 -1546c4427,-495 8965,-894 13544,-1212 4820,-335 9685,-580 14518,-753z"/>
  <path class="fil2" d="M123523 53791l1777 24870 -15582 -1120 -5720 -226 -5483 -159 -163 -3483c-616,581 -1250,1143 -1900,1686l82 1753 -2273 -39c-1004,734 -2039,1424 -3103,2067l14486 216c5887,139 32673,1208 35122,5385 -1589,1437 -3079,2825 -4514,4164 -6503,6060 -11884,11075 -20797,15271l-5434 2195 -26002 0 -20169 0 -19040 0c-8649,-2498 -20023,-12789 -27146,-19236l-30 -30 -1591 -1435c921,-1559 4689,-2255 8054,-2876l10908 -1546c4427,-495 8965,-894 13544,-1212 -9577,-5260 -16720,-14013 -20043,-24263 -13990,4933 -25006,17036 -27823,32679 -888,4932 -890,9818 -119,14496 11354,-7905 21645,-7826 32964,3423l-32253 0c3956,15758 16789,28540 33819,31607 15611,2811 30767,-3260 40275,-14606 5698,5133 12851,8791 20954,10250 23179,4175 45352,-11231 49526,-34410 3395,-18854 -6165,-37043 -22326,-45421zm-6385 51769l5992 -3342 3673 -2528 477 6681 -11866 0 861 -395 863 -416z"/>
  <path class="fil3" d="M76646 683c-23178,-4175 -45352,11232 -49525,34411 -1289,7155 -712,14215 1385,20679 3323,10250 10466,19003 20043,24263 4820,-335 9685,-580 14518,-753 5290,-189 10542,-290 15651,-328l3043 45 9397 140c1064,-643 2099,-1333 3103,-2067l-3166 -54 -826 -25786 -697 -21789 4626 -2582 1070 23016 1184 25481c650,-543 1284,-1105 1900,-1686l-1122 -24152 -701 -15068 -364 -7819 14108 4920c-4166,-15419 -16864,-27852 -33627,-30871zm4169 76293l-1122 2 -21 -2136 -178 -18170 -209 -21493 3837 -2142 462 21112 499 22819 -3268 8zm4722 -23822l-448 -20481 2634 717 594 18556 802 25048 -3061 -21 -521 -23819z"/>
  <path class="fil4" d="M50210 54041c-7536,-1357 -14965,-644 -21704,1732 3323,10250 10466,19003 20043,24263 4820,-335 9685,-580 14518,-753 1697,-5625 4491,-10687 8097,-14991 -5699,-5132 -12852,-8791 -20954,-10251z"/>
  <path class="fil3" d="M71164 64292c-3606,4304 -6400,9366 -8097,14991 5290,-189 10542,-290 15651,-328l3043 45c-298,-683 -614,-1358 -946,-2024l-1122 2 -21 -2136c-2253,-3935 -5124,-7503 -8508,-10550z"/>
  <path class="fil4" d="M95268 49878l1184 25481c650,-543 1284,-1105 1900,-1686l-1122 -24152c-659,103 -1313,223 -1962,357zm-24104 14414c3384,3047 6255,6615 8508,10550l-178 -18170c-3089,2153 -5895,4713 -8330,7620zm12420 -10143l499 22819 -3268 8c332,666 648,1341 946,2024l9397 140c1064,-643 2099,-1333 3103,-2067l-3166 -54 -826 -25786c-657,222 -1308,460 -1952,713l802 25048 -3061 -21 -521 -23819c-660,315 -1311,647 -1953,995z"/>
  <path class="fil3" d="M123523 53791l1777 24870 -15582 -1120 -5720 -226 -5483 -159 -163 -3483c-616,581 -1250,1143 -1900,1686l82 1753 -2273 -39c-1004,734 -2039,1424 -3103,2067l14486 216c5887,139 32673,1208 35122,5385 -1589,1437 -3079,2825 -4514,4164 -6503,6060 -11884,11075 -20797,15271l-5434 2195 -26002 0c-1604,6432 -4620,12191 -8650,17001 5698,5133 12851,8791 20954,10250 23179,4175 45352,-11231 49526,-34410 3395,-18854 -6165,-37043 -22326,-45421zm-6385 51769l5992 -3342 3673 -2528 477 6681 -11866 0 861 -395 863 -416z"/>
  <path class="fil4" d="M84019 106371l-20169 0c2402,6514 6366,12360 11519,17001 4030,-4810 7046,-10569 8650,-17001z"/>
  <path class="fil3" d="M75369 123372c-5153,-4641 -9117,-10487 -11519,-17001l-19040 0c-8649,-2498 -20023,-12789 -27146,-19236l-30 -30 -1591 -1435c921,-1559 4689,-2255 8054,-2876l10908 -1546c4427,-495 8965,-894 13544,-1212 -9577,-5260 -16720,-14013 -20043,-24263 -13990,4933 -25006,17036 -27823,32679 -888,4932 -890,9818 -119,14496 11354,-7905 21645,-7826 32964,3423l-32253 0c3956,15758 16789,28540 33819,31607 15611,2811 30767,-3260 40275,-14606z"/>
  <path class="fil5" d="M62517 65419c-930,-4287 -4743,-7499 -9306,-7499 -4537,0 -8332,3174 -9291,7423l0 -7392 32 -31 -4335 0 0 31 -4457 8495 -4457 -8526 -4365 0 0 19058 4304 0 0 -6854 4518 6854 0 0 4457 -6639 0 6639 4303 0 0 -7423c959,4250 4754,7423 9291,7423 4563,0 8376,-3211 9306,-7499l0 7499 4304 0 0 -9529 5379 9529 4365 0 0 -19058 -4303 0 0 9529 -5349 -9529 -4396 0 0 7499zm0 3905l-4430 0c-753,1960 -2652,3351 -4876,3351 -2885,0 -5223,-2339 -5223,-5226 0,-2886 2338,-5225 5223,-5225 2224,0 4123,1391 4876,3350l4430 0 0 3750z"/>
 </g>
</svg>
