<?xml version="1.0" encoding="utf-8"?>
<!-- Generator: Adobe Illustrator 16.2.0, SVG Export Plug-In . SVG Version: 6.00 Build 0)  -->
<!DOCTYPE svg PUBLIC "-//W3C//DTD SVG 1.1//EN" "http://www.w3.org/Graphics/SVG/1.1/DTD/svg11.dtd">
<svg version="1.1" id="Layer_1" xmlns="http://www.w3.org/2000/svg" xmlns:xlink="http://www.w3.org/1999/xlink" x="0px" y="0px"
	 width="913px" height="500px" viewBox="0 0 913 500" enable-background="new 0 0 913 500" xml:space="preserve">
<g id="Camada_x0020_1">
	<g id="_1446717808">
		<ellipse fill="#F0F0F0" cx="458.06" cy="213.077" rx="193.246" ry="151.656"/>
		<path fill="#FDEFEE" d="M581.888,288.556c9.408-1.096,37.147-6.142,43.709-45.113l-106.271,0.044
			C522.004,277.367,547.536,288.232,581.888,288.556z"/>
		<path fill="#FCEEED" d="M403.236,288.424c-0.537-11.387-4.649-22.98-12.344-29.27l-7.914-5.833
			c-35.896-17.073-79.466-3.781-81.077,35.308L403.236,288.424z"/>
		<path fill="#EC0289" d="M393.438,403.594c-2.913-13.439-14.859-23.502-29.166-23.502c-14.219,0-26.113,9.945-29.115,23.268
			v-23.172l0.096-0.096h-13.586v0.096l-13.969,26.629l-13.969-26.725h-13.682v59.729h13.491v-21.486l14.16,21.486l0,0l13.969-20.81
			v20.81h13.49v-23.267c3.002,13.322,14.896,23.267,29.115,23.267c14.307,0,26.253-10.063,29.166-23.501v23.501h13.49v-29.864
			l16.859,29.864h13.683v-59.729h-13.491v29.865l-16.764-29.865h-13.777V403.594z M393.438,415.834h-13.881
			c-2.361,6.143-8.313,10.505-15.285,10.505c-9.041,0-16.367-7.335-16.367-16.382c0-9.048,7.326-16.375,16.367-16.375
			c6.973,0,12.924,4.355,15.285,10.498h13.881V415.834z"/>
		<path fill="#EC0289" d="M473.132,432.98c0,0.979-0.795,1.773-1.773,1.773c-0.978,0-1.772-0.795-1.772-1.773v-30.526l-2.714-4.958
			c-0.471-0.854-0.162-1.928,0.698-2.398c0.736-0.404,1.641-0.228,2.178,0.383c4.229,4.48,7.878,8.761,11.129,12.571
			c5.518,6.474,9.864,11.578,13.852,13.858c6.562,3.752,12.924-0.758,24.547-21.067l9.474-20.839
			c0.397-0.891,1.449-1.287,2.34-0.891c0.706,0.324,1.103,1.045,1.037,1.781c-0.104,3.391-0.243,6.546-0.376,9.605
			c-0.632,14.381-1.177,26.739,3.075,41.48c0.265,0.935-0.272,1.912-1.214,2.177c-0.934,0.266-1.912-0.271-2.177-1.213
			c-4.414-15.301-3.862-27.916-3.215-42.599l0.029-0.698l-5.767,12.682c-0.029,0.073-0.06,0.147-0.104,0.213
			c-12.99,22.723-20.699,27.423-29.408,22.436c-4.51-2.574-9.033-7.886-14.778-14.624c-1.581-1.86-3.266-3.832-5.061-5.885V432.98z
			 M580.777,420.196c0.125-0.36,0.368-0.669,0.684-0.883c0.243-0.522,0.361-1.214,0.397-2.11c-0.654,0.728-1.772,0.786-2.493,0.139
			c-0.729-0.654-0.787-1.766-0.14-2.493c0.794-0.89,1.662-1.722,2.604-2.567c-0.073-13.365,0.397-34.815,9.548-44.371l0.169-0.154
			c3.679-2.964,6.761-4.17,9.254-4.09c2.199,0.082,3.913,1.089,5.149,2.781c1.096,1.493,1.787,3.523,2.097,5.862
			c0.786,5.937-0.876,14.233-4.51,20.706l-0.029,0.045c-6.547,10.85-12.542,15.999-17.117,19.927l-1.022,0.883l0.029,2.618
			c0.008,0.92-0.044,1.744-0.176,2.479l1.566-0.029c1.391-0.515,2.162-1.368,2.751-2.022c0.279-0.31,0.529-0.589,0.81-0.832
			c1.92-1.691,3.435-1.618,7.804,3.229l1.604,0.089c2.802,0.161,5.142,0.301,7.393-0.303l-0.125-0.293
			c-0.766-1.979-0.537-4.23,1.479-6.879l0.036-0.043c1.582-2.061,3.781-2.773,5.576-2.517c0.846,0.118,1.618,0.456,2.229,0.972
			v0.007c0.662,0.552,1.126,1.302,1.31,2.199c0.323,1.597-0.287,3.642-2.509,5.782c-0.787,0.75-1.544,1.391-2.287,1.935l0.191,0.132
			c2.015,1.442,4.391,1.913,6.841,1.847c2.604-0.073,5.318-0.765,7.834-1.574c4.428-1.442,4.59-3.487,4.759-5.562
			c0.029-0.389,0.059-0.787,0.11-1.191c0.11-0.971,0.993-1.662,1.964-1.552c0.662,0.081,1.192,0.507,1.428,1.081l1.037,2.192h3.905
			c0.979,0,1.773,0.794,1.773,1.772l-0.015,0.235c-0.052,0.81-0.14,1.552-0.221,2.296c-0.302,2.604-0.589,5.075,1.735,6.046
			c0.897,0.375,1.332,1.412,0.957,2.31c-0.376,0.905-1.413,1.331-2.317,0.956c-4.781-1.993-4.348-5.76-3.892-9.717l0.037-0.353
			h-3.075c-0.198-0.008-0.39-0.037-0.573-0.096c-0.743,1.883-2.42,3.611-6.525,4.942h-0.007c-2.766,0.897-5.797,1.655-8.813,1.744
			c-3.17,0.088-6.282-0.552-9.003-2.502c-0.508-0.367-1.008-0.742-1.472-1.147c-3.104,1.207-6.164,1.03-9.952,0.81
			c-0.736-0.044-1.508-0.088-2.207-0.117c-0.508,0.007-1.008-0.199-1.361-0.604c-2.736-3.104-3.207-3.561-3.31-3.472
			c-0.14,0.132-0.324,0.323-0.515,0.544c-0.891,0.985-2.074,2.303-4.51,3.097c-0.169,0.044-0.338,0.081-0.522,0.081l-3.678,0.066
			c-1.229,1.221-3.03,1.935-5.664,2.479c-4.479,0.941-8.282-0.162-11.262-2.479c-1.735-1.347-3.178-3.097-4.311-5.098
			c-2.772,3.296-5.546,5.715-8.062,6.341c-2.979,0.742-5.51-0.435-7.261-4.436c-2.464,2.942-4.737,3.928-6.855,3.288
			c-2.538-0.766-4.413-3.942-5.848-8.879c-0.265-0.935,0.271-1.913,1.206-2.185c0.935-0.272,1.92,0.271,2.185,1.206
			c1.097,3.759,2.236,6.099,3.465,6.466c1.066,0.324,2.663-1.081,4.95-4.678c0.522-0.816,1.611-1.06,2.436-0.537
			c0.396,0.25,0.654,0.64,0.765,1.059l0,0c1.066,4.26,2.501,5.664,4.104,5.26c2.147-0.537,4.715-3.016,7.341-6.399
			c-0.286-0.824-0.529-1.663-0.728-2.516c-0.993-4.317-1.251-9.269-1.045-14.108c0.25-5.782,1.17-11.432,2.303-15.661l0.036-0.103
			c3.634-10.674,7.944-16.426,11.659-18.367c1.92-1.001,3.752-1.097,5.362-0.405c1.545,0.669,2.796,2.052,3.619,4.023
			c1.847,4.413,1.647,12.343-2.229,22.09c-0.037,0.11-0.089,0.221-0.154,0.331c-0.53,0.927-1.147,2.097-1.928,3.553
			c-2.898,5.451-7.775,14.616-12.924,21.598c0.985,2.154,2.354,4.03,4.067,5.361c2.207,1.714,5.031,2.517,8.386,1.817
			C578.857,421.182,580.057,420.777,580.777,420.196z M610.362,417.658c0.766-0.492,1.538-1.11,2.332-1.875
			c1.214-1.17,1.604-2.016,1.501-2.531c-0.022-0.088-0.06-0.154-0.118-0.205c-0.11-0.089-0.272-0.147-0.463-0.178
			c-0.677-0.095-1.56,0.236-2.266,1.156l-0.037,0.043c-1.133,1.494-1.324,2.598-0.993,3.465L610.362,417.658z M563.292,410.281
			c4.348-6.393,8.563-14.322,11.145-19.17c0.846-1.582,1.53-2.877,1.92-3.561c3.501-8.79,3.773-15.712,2.236-19.397
			c-0.464-1.11-1.066-1.839-1.751-2.133c-0.625-0.272-1.412-0.191-2.332,0.294c-2.993,1.56-6.62,6.628-9.923,16.301
			c-1.074,4.016-1.941,9.363-2.177,14.837C562.219,401.873,562.439,406.359,563.292,410.281z M593.856,370.434
			c-7.525,7.952-8.46,25.98-8.504,38.787c4.193-3.641,9.438-8.568,15.116-17.97c3.267-5.833,4.767-13.233,4.075-18.478
			c-0.228-1.766-0.706-3.236-1.449-4.237c-0.596-0.816-1.397-1.302-2.405-1.339C599.027,367.139,596.776,368.102,593.856,370.434z"
			/>
		<path fill="#F6ADAF" d="M492.934,288.424l20.824-228.246h-55.184v228.246h-8.261V60.178H395.13l20.824,228.246H301.917
			c1.758-38.928,45.23-52.139,81.062-35.103c-12.461-13.351-41.245-16.271-62.4-7.937c-12.195,4.803-15.999,8.348-23.487,17.139
			c-6.657,7.834-6.679,19.096-10.879,25.9h-24.517v13.424h188.619h8.261h188.317v-13.424h-70.233
			c-31.689-1.376-54.794-12.8-57.332-44.938l106.271-0.044c-0.993,5.907-2.479,11.026-4.311,15.483l-0.008,0.029
			c2.317-1.912,5.907-10.003,6.312-20.772l-123.416,0.53c1.824,28.93,22.494,44.371,39.876,49.711H492.934z"/>
		<path fill="#EC0289" d="M569.28,214.828c1.42-9.026,8.503-23.179,16.168-26.011c3.736,18.309-0.39,24.62-5.024,40.2
			c13.16-3.266,34.749-29.534,15.999-58.604c-8.775-13.593-24.877-26.797-30.52-35.963c-4.2-6.848-2.722-11.504-6.723-17.448
			c-4.841,24.539,4.311,27.511,13.02,44.458c7.12,13.836-0.537,23.546-4.317,36.846C566.794,202.146,562.991,214.828,569.28,214.828
			z M558.996,229.613l3.598,2.92c-1.986-5.436-2.449-6.782-2.288-12.748c0.515-18.537,9.666-27.216,8.967-44.878
			c-0.522-13.204-8.93-21.575-18.596-34.396c-0.632-0.846-1.059-1.435-1.758-2.258c-1.618-1.92-1.67-1.891-3.207-3.354
			l10.114,36.816l1.155,9.099c-8.158-6.775-4.789-13.366-17.794-17.095c6.907,20.692,4.486,13.439,5.2,36.713
			C544.844,215.21,550.832,221.676,558.996,229.613z"/>
	</g>
</g>
</svg>
