<?xml version="1.0" encoding="UTF-8"?>
<!DOCTYPE svg PUBLIC "-//W3C//DTD SVG 1.1//EN" "http://www.w3.org/Graphics/SVG/1.1/DTD/svg11.dtd">
<!-- Creator: CorelDRAW X7 -->
<svg xmlns="http://www.w3.org/2000/svg" xml:space="preserve" width="20px" height="30px" version="1.1" style="shape-rendering:geometricPrecision; text-rendering:geometricPrecision; image-rendering:optimizeQuality; fill-rule:evenodd; clip-rule:evenodd"
viewBox="0 0 100 149"
 xmlns:xlink="http://www.w3.org/1999/xlink">
 <defs>
  <style type="text/css">
   <![CDATA[
    .fil2 {fill:white}
    .fil1 {fill:#003155;fill-rule:nonzero}
    .fil0 {fill:#D9DADB;fill-rule:nonzero}
   ]]>
  </style>
 </defs>
<symbol id="Fm0-2212-0" viewBox="10161 -202255 1946 12397">
 <polygon class="fil0" points="10977,-189859 10182,-189859 10182,-202255 10977,-202255 "/>
 <polygon class="fil1" points="12107,-195810 10161,-195810 10161,-196304 12107,-196304 "/>
</symbol>
<symbol id="Symbol1" viewBox="10161 -202255 1946 12397">
 <polygon class="fil0" points="10977,-189859 10182,-189859 10182,-202255 10977,-202255 "/>
 <polygon class="fil1" points="12107,-195810 10161,-195810 10161,-196304 12107,-196304 "/>
</symbol>
 <g id="Camada_x0020_1">
  <metadata id="CorelCorpID_0Corel-Layer"/>
  <path class="fil2" d="M0 0l44 0c-5,0 -10,4 -10,10l0 4c-3,0 -5,1 -8,2 -5,2 -9,4 -13,7 -5,4 -8,8 -10,12 -2,5 -3,9 -3,14l0 -49zm55 0l45 0 0 96c0,-3 -1,-5 -1,-8 -1,-3 -2,-6 -4,-8l0 0c-1,-3 -3,-5 -5,-7 -2,-2 -5,-4 -7,-6 -3,-2 -6,-4 -11,-6 -2,-1 -4,-2 -7,-3l0 -5 1 0c3,1 7,2 11,3l0 0c5,2 11,0 13,-5l7 -18c2,-5 0,-11 -5,-13 -5,-2 -11,-4 -18,-6 -3,0 -6,-1 -9,-1l0 -3c0,-6 -4,-10 -10,-10zm45 97l0 52 -45 0c6,0 10,-4 10,-9l0 -5c2,-1 5,-2 7,-2l1 -1c5,-2 10,-4 14,-7l0 0c4,-4 7,-8 9,-13 3,-4 4,-9 4,-15zm-56 52l-44 0 0 -99c0,5 1,9 2,13 2,4 4,8 7,11l0 0c3,3 7,6 11,9 4,3 9,5 14,7l0 7 -5 -2c-3,0 -6,-1 -8,-2 -2,-1 -4,-2 -6,-3 -2,-1 -3,-1 -5,-1 -5,0 -10,4 -10,10l0 21c0,3 2,7 6,9 5,2 11,4 18,5 3,1 7,1 10,2l0 4c0,5 5,9 10,9z"/>
 </g>
</svg>
