<?xml version="1.0" encoding="UTF-8"?>
<!DOCTYPE svg PUBLIC "-//W3C//DTD SVG 1.1//EN" "http://www.w3.org/Graphics/SVG/1.1/DTD/svg11.dtd">
<!-- Creator: CorelDRAW X7 -->
<svg xmlns="http://www.w3.org/2000/svg" xml:space="preserve" width="850px" height="285px" version="1.1" style="shape-rendering:geometricPrecision; text-rendering:geometricPrecision; image-rendering:optimizeQuality; fill-rule:evenodd; clip-rule:evenodd"
viewBox="0 0 95429 31997"
 xmlns:xlink="http://www.w3.org/1999/xlink">
 <defs>
  <style type="text/css">
   <![CDATA[
    .str0 {stroke:white;stroke-width:101.042}
    .fil4 {fill:#336699}
    .fil12 {fill:#4387B2}
    .fil7 {fill:#52AE51}
    .fil6 {fill:#5DB945}
    .fil2 {fill:#669933}
    .fil8 {fill:#70B837}
    .fil9 {fill:#72BA34}
    .fil11 {fill:#DFC01D}
    .fil5 {fill:#FFCC00}
    .fil10 {fill:#FFCF0A}
    .fil3 {fill:white}
    .fil1 {fill:#003155;fill-rule:nonzero}
    .fil0 {fill:#D9DADB;fill-rule:nonzero}
    .fil13 {fill:white;fill-rule:nonzero}
   ]]>
  </style>
 </defs>
<symbol id="Fm0-2212-0" viewBox="428636 -4804839 43847 279347">
 <polygon class="fil0" points="447023,-4525492 429091,-4525492 429091,-4804839 447023,-4804839 "/>
 <polygon class="fil1" points="472482,-4659596 428636,-4659596 428636,-4670735 472482,-4670735 "/>
</symbol>
<symbol id="Symbol1" viewBox="428636 -4804839 43847 279347">
 <polygon class="fil0" points="447023,-4525492 429091,-4525492 429091,-4804839 447023,-4804839 "/>
 <polygon class="fil1" points="472482,-4659596 428636,-4659596 428636,-4670735 472482,-4670735 "/>
</symbol>
 <g id="Camada_x0020_1">
  <metadata id="CorelCorpID_0Corel-Layer"/>
  <rect class="fil2" width="95429" height="31997"/>
  <polygon class="fil3" points="62927,31997 55998,0 95429,0 95429,31997 "/>
  <g id="_1446769264">
   <path class="fil4" d="M77711 17117c599,-22 1193,-33 1772,-37l344 5c-34,-78 -69,-154 -107,-229l-127 0 -2 -242c-255,-445 -581,-849 -964,-1194 -645,-581 -1454,-995 -2372,-1161 -853,-153 -1694,-73 -2457,196 -1583,559 -2830,1929 -3149,3700 -101,558 -101,1111 -14,1641 1286,-895 2451,-886 3732,387l-3651 0c448,1784 1900,3231 3828,3578 1768,319 3483,-369 4559,-1653 -583,-526 -1032,-1187 -1304,-1925l-2155 0c-979,-283 -2267,-1448 -3073,-2177l-3 -4 -180 -162c104,-177 530,-256 911,-326l1235 -175c501,-56 1015,-101 1533,-137 546,-38 1097,-66 1644,-85z"/>
   <path class="fil5" d="M84555 14231l201 2815 -1764 -126 -648 -26 -620 -18 -19 -394c-70,65 -141,129 -215,191l9 198 -257 -4c-113,83 -231,161 -351,234l1640 24c666,16 3698,137 3976,610 -180,162 -349,319 -511,471 -737,686 -1346,1254 -2355,1729l-615 248 -2943 0 -2284 0 -2155 0c-979,-283 -2267,-1448 -3073,-2177l-3 -4 -180 -162c104,-177 530,-256 911,-326l1235 -175c501,-56 1015,-101 1533,-137 -1084,-596 -1892,-1586 -2269,-2747 -1583,559 -2830,1929 -3149,3700 -101,558 -101,1111 -14,1641 1286,-895 2451,-886 3732,387l-3651 0c448,1784 1900,3231 3828,3578 1768,319 3483,-369 4559,-1653 646,581 1455,995 2373,1160 2623,473 5134,-1271 5606,-3895 384,-2135 -698,-4194 -2527,-5142zm-723 5860l678 -378 416 -286 54 756 -1343 0 97 -45 98 -47z"/>
   <path class="fil6" d="M79248 8219c-2624,-473 -5134,1271 -5606,3895 -146,810 -81,1610 156,2341 377,1161 1185,2151 2269,2747 546,-38 1097,-66 1644,-85 599,-22 1193,-33 1772,-37l344 5 1064 16c120,-73 238,-151 351,-234l-358 -7 -94 -2919 -79 -2466 524 -292 121 2605 134 2885c74,-62 145,-126 215,-191l-127 -2734 -79 -1706 -41 -885 1597 557c-472,-1746 -1909,-3153 -3807,-3495zm472 8637l-127 0 -2 -242 -21 -2057 -23 -2433 434 -242 53 2390 56 2583 -370 1zm535 -2697l-51 -2319 298 82 67 2100 91 2836 -347 -3 -58 -2696z"/>
   <path class="fil7" d="M76255 14259c-853,-153 -1694,-73 -2457,196 377,1161 1185,2151 2269,2747 546,-38 1097,-66 1644,-85 192,-637 508,-1210 916,-1697 -645,-581 -1454,-995 -2372,-1161z"/>
   <path class="fil8" d="M78627 15420c-408,487 -724,1060 -916,1697 599,-22 1193,-33 1772,-37l344 5c-34,-78 -69,-154 -107,-229l-127 0 -2 -242c-255,-445 -581,-849 -964,-1194z"/>
   <path class="fil9" d="M81356 13788l134 2885c74,-62 145,-126 215,-191l-127 -2734c-74,11 -148,25 -222,40zm-2729 1632c383,345 709,749 964,1194l-21 -2057c-349,244 -667,534 -943,863zm1407 -1148l56 2583 -370 1c38,75 73,151 107,229l1064 16c120,-73 238,-151 351,-234l-358 -7 -94 -2919c-74,26 -148,52 -221,81l91 2836 -347 -3 -58 -2696c-75,36 -149,73 -221,113z"/>
   <path class="fil10" d="M84555 14231l201 2815 -1764 -126 -648 -26 -620 -18 -19 -394c-70,65 -141,129 -215,191l9 198 -257 -4c-113,83 -231,161 -351,234l1640 24c666,16 3698,137 3976,610 -180,162 -349,319 -511,471 -737,686 -1346,1254 -2355,1729l-615 248 -2943 0c-182,728 -523,1380 -980,1925 646,581 1455,995 2373,1160 2623,473 5134,-1271 5606,-3895 384,-2135 -698,-4194 -2527,-5142zm-723 5860l678 -378 416 -286 54 756 -1343 0 97 -45 98 -47z"/>
   <path class="fil11" d="M80083 20183l-2284 0c272,738 721,1399 1304,1925 457,-545 798,-1197 980,-1925z"/>
   <path class="fil12" d="M79103 22108c-583,-526 -1032,-1187 -1304,-1925l-2155 0c-979,-283 -2267,-1448 -3073,-2177l-3 -4 -180 -162c104,-177 530,-256 911,-326l1235 -175c501,-56 1015,-101 1533,-137 -1084,-596 -1892,-1586 -2269,-2747 -1583,559 -2830,1929 -3149,3700 -101,558 -101,1111 -14,1641 1286,-895 2451,-886 3732,387l-3651 0c448,1784 1900,3231 3828,3578 1768,319 3483,-369 4559,-1653z"/>
   <path class="fil3" d="M77649 15547c-106,-485 -537,-849 -1054,-849 -513,0 -943,360 -1052,841l0 -837 4 -4 -491 0 0 4 -504 962 -505 -966 -494 0 0 2158 487 0 0 -776 512 776 0 0 504 -752 0 752 487 0 0 -840c109,481 539,840 1052,840 517,0 948,-364 1054,-849l0 849 487 0 0 -1079 609 1079 494 0 0 -2158 -487 0 0 1079 -606 -1079 -497 0 0 849zm0 442l-502 0c-85,222 -300,380 -552,380 -326,0 -591,-265 -591,-592 0,-327 265,-591 591,-591 252,0 467,157 552,379l502 0 0 424z"/>
   <path class="fil7" d="M73025 23203c4518,-3117 6838,-6684 9043,-13362l11 5c217,247 413,520 585,817 564,977 767,2061 650,3093 -712,4148 -4787,9071 -6032,9700 -377,142 -418,203 -945,309 -1133,227 -2313,19 -3312,-562z"/>
   <path class="fil6" d="M74107 23662c1168,-731 2475,-1860 3743,-3347 37,-44 75,-88 112,-132 759,-905 1502,-1939 2191,-3093 53,-90 107,-181 160,-272 110,-191 220,-385 327,-583 71,-130 142,-262 211,-395 189,-362 372,-735 549,-1116 68,-149 136,-299 203,-451 65,-150 130,-301 193,-454l-214 0 -224 0 -114 0 -170 -536 -228 -103c-25,60 -49,120 -74,180 -69,165 -138,328 -208,489 -100,229 -200,453 -301,673 -71,153 -142,304 -214,453 -152,315 -307,622 -465,920 -68,128 -137,255 -206,380 -46,83 -92,166 -139,248 -64,112 -129,223 -194,333 -46,77 -92,154 -138,230 -697,1146 -1463,2163 -2333,3097 -1021,1097 -2185,2079 -3549,3020 232,135 474,250 722,344 118,42 237,81 360,115z"/>
   <polygon class="fil7" points="83117,9670 83657,9553 83933,10041 84474,10158 84531,10719 84978,11050 84807,11586 85084,12075 84714,12493 84772,13054 84267,13283 84097,13819 83544,13819 83175,14238 82670,14009 82166,14238 81796,13819 81244,13819 81074,13283 80569,13054 80627,12493 80257,12075 80533,11586 80363,11050 80809,10719 80867,10158 81407,10041 81683,9553 82224,9670 82670,9339 "/>
   <g>
    <polygon class="fil10" points="81991,10082 82960,10644 84058,10489 83842,11588 84343,12598 83240,12715 82451,13495 81986,12468 80998,11940 81813,11188 "/>
    <ellipse class="fil6 str0" transform="matrix(1.0092 -0.478522 0.478522 1.0092 82768.2 11720.8)" rx="852" ry="861"/>
    <ellipse class="fil12 str0" transform="matrix(0.788187 -0.373729 0.373729 0.788187 82768.3 11720.8)" rx="852" ry="861"/>
    <g>
     <polygon class="fil3" points="82402,11281 82482,11299 82556,11264 82565,11346 82622,11406 82546,11439 82507,11511 82452,11449 82371,11433 82413,11362 "/>
     <polygon class="fil3" points="82398,11896 82453,11909 82503,11885 82509,11941 82548,11982 82496,12004 82470,12053 82432,12011 82377,12000 82405,11952 "/>
     <polygon class="fil3" points="82958,11353 83023,11368 83083,11340 83089,11406 83135,11454 83075,11481 83043,11539 82999,11489 82934,11476 82967,11419 "/>
     <polygon class="fil3" points="82745,11621 82805,11635 82859,11609 82865,11669 82907,11714 82852,11738 82823,11791 82783,11745 82723,11734 82754,11682 "/>
     <polygon class="fil3" points="82959,11950 83023,11949 83073,11909 83094,11969 83148,12004 83097,12043 83081,12104 83028,12068 82964,12071 82982,12010 "/>
    </g>
   </g>
   <path class="fil13" d="M77454 21866l-726 -705 522 -537 123 119 -379 390 161 157 352 -363 123 119 -352 363 196 191 393 -405 123 119 -536 552zm655 -686l-758 -658 134 -154 629 545 332 -383 130 112 -467 538zm558 -651l-793 -629 466 -586 134 106 -338 426 176 140 314 -397 134 107 -314 396 214 170 351 -442 134 107 -478 602zm574 -739l-814 -601 121 -165 814 601 -121 165zm297 -1066l162 -128c75,88 114,176 119,265 4,89 -24,178 -86,268 -76,111 -176,176 -301,195 -125,19 -253,-16 -384,-106 -139,-96 -222,-206 -250,-330 -28,-125 -1,-246 79,-362 70,-103 158,-165 262,-187 62,-13 132,-6 212,21l-75 193c-49,-19 -98,-22 -144,-8 -47,14 -85,43 -116,88 -43,62 -55,128 -37,197 18,69 76,137 176,205 105,73 193,105 264,98 71,-7 127,-41 169,-102 30,-45 43,-93 36,-145 -6,-52 -35,-106 -86,-162zm278 731l-67 -46c31,-36 58,-71 81,-104 23,-34 34,-63 33,-88 0,-19 -8,-33 -22,-43 -13,-9 -28,-10 -46,-5 -17,5 -35,20 -52,45 -16,24 -30,52 -40,83l-46 -54c10,-37 27,-72 50,-106 33,-48 68,-76 106,-87 38,-10 72,-5 101,15 34,24 52,56 54,98 3,56 -19,118 -66,187 -34,49 -62,84 -86,105zm-210 -1056c-88,-54 -154,-113 -197,-176 -32,-46 -55,-98 -69,-153 -14,-55 -17,-108 -9,-159 10,-68 37,-137 80,-207 79,-127 181,-204 307,-232 125,-27 259,2 399,89 140,86 225,191 257,315 32,124 9,250 -69,376 -79,128 -181,206 -306,233 -125,28 -256,-1 -393,-86zm104 -183c98,61 186,84 264,70 78,-14 139,-56 182,-126 43,-69 53,-141 30,-217 -22,-75 -83,-144 -184,-206 -98,-61 -185,-84 -261,-71 -75,13 -135,56 -179,128 -45,72 -56,145 -34,219 23,75 83,142 182,203zm-429 -439l-46 76c-10,-5 -17,-9 -22,-12 -41,-25 -66,-55 -76,-89 -10,-33 -5,-66 14,-97 9,-14 18,-26 28,-36 10,-10 32,-26 65,-49 33,-22 55,-42 66,-60 8,-12 10,-25 8,-39 -3,-13 -13,-26 -30,-41l47 -75c53,33 85,67 96,100 11,34 7,66 -12,96 -8,13 -17,26 -28,37 -8,7 -30,24 -67,52 -36,27 -59,49 -70,65 -7,13 -9,25 -6,37 3,11 15,23 33,35zm1345 -90l-884 -492 364 -654 150 83 -265 475 197 110 246 -442 149 83 -246 442 240 133 274 -493 149 83 -374 672zm139 -926l73 -187c65,20 119,21 164,3 45,-19 81,-56 109,-111 30,-58 40,-108 30,-151 -9,-42 -31,-71 -64,-88 -21,-11 -42,-14 -64,-10 -21,5 -45,20 -72,46 -18,17 -56,59 -114,125 -74,84 -138,137 -194,158 -78,30 -152,27 -224,-10 -46,-24 -82,-59 -109,-105 -27,-46 -38,-99 -34,-159 4,-59 23,-123 59,-193 57,-112 126,-185 205,-216 79,-31 161,-27 246,13l-87 186c-50,-16 -92,-17 -125,-2 -34,15 -63,48 -89,99 -27,52 -37,99 -31,140 5,26 18,45 42,57 21,11 44,11 69,1 31,-13 79,-58 145,-136 66,-77 121,-131 165,-162 44,-31 91,-49 142,-53 52,-4 105,9 162,38 52,26 93,65 123,117 31,52 44,109 39,173 -5,63 -28,134 -67,213 -59,114 -130,188 -213,222 -84,34 -179,31 -286,-8z"/>
  </g>
  <g id="_1446732592">
   <path class="fil7" d="M70645 31997c-6421,-9539 -9553,-19052 -10621,-31997l-8221 0c-806,12628 5589,28933 8423,31805 83,68 160,132 231,192l10188 0z"/>
   <path class="fil6" d="M66761 31997c-1819,-2791 -3573,-6143 -5110,-9967 -66,-165 -132,-330 -197,-496 -1336,-3403 -2499,-7167 -3383,-11233 -68,-316 -135,-635 -201,-955 -136,-669 -266,-1346 -386,-2031 -81,-453 -157,-909 -230,-1369 -198,-1248 -369,-2519 -511,-3813 -55,-505 -105,-1012 -151,-1523 -19,-203 -36,-406 -53,-610l3485 0 33 390c66,769 139,1525 221,2270 56,519 116,1032 181,1540 135,1075 288,2127 458,3158 74,443 150,882 230,1317 53,289 108,577 164,862 77,393 157,782 240,1169 58,272 118,543 179,812 918,4047 2164,7785 3795,11382 1407,3101 3100,6098 5120,9097l-3884 0z"/>
  </g>
  <g id="_655461408">
   <path class="fil3" d="M26281 20948c-131,-601 -665,-1051 -1304,-1051 -636,0 -1168,445 -1302,1041l0 -1036 4 -5 -607 0 0 5 -625 1190 -624 -1195 -612 0 0 2671 603 0 0 -961 633 961 0 0 625 -930 0 930 603 0 0 -1040c134,595 666,1040 1302,1040 639,0 1173,-450 1304,-1051l0 1051 603 0 0 -1335 753 1335 612 0 0 -2671 -603 0 0 1336 -750 -1336 -615 0 0 1051zm0 547l-621 0c-106,275 -372,470 -683,470 -405,0 -732,-328 -732,-732 0,-405 327,-733 732,-733 311,0 577,195 683,470l621 0 0 525z"/>
   <path class="fil13" d="M12595 11038c0,486 -127,854 -382,1104 -255,249 -630,373 -1124,373l-695 0 0 -2899 784 0c462,0 814,121 1055,363 242,242 362,595 362,1059zm-220 8c0,-416 -105,-728 -316,-938 -211,-209 -520,-314 -929,-314l-533 0 0 2543 480 0c865,0 1298,-431 1298,-1291z"/>
   <path id="1" class="fil13" d="M14522 12515l-50 -341 -16 0c-108,140 -220,238 -334,295 -115,58 -250,87 -406,87 -212,0 -376,-54 -494,-163 -118,-109 -177,-258 -177,-450 0,-211 88,-374 264,-490 175,-117 428,-178 760,-185l411 -12 0 -142c0,-206 -42,-360 -125,-465 -83,-104 -218,-156 -403,-156 -199,0 -406,55 -621,166l-73 -170c237,-111 470,-167 702,-167 237,0 413,62 530,184 118,124 176,315 176,576l0 1433 -144 0zm-794 -138c230,0 412,-65 544,-198 133,-131 200,-314 200,-548l0 -212 -377 15c-303,15 -519,63 -647,143 -130,79 -194,205 -194,374 0,134 41,239 124,314 82,75 199,112 350,112z"/>
   <path id="2" class="fil13" d="M16153 10318c155,0 290,29 404,86 113,56 215,154 305,291l12 0c-8,-166 -12,-330 -12,-490l0 -776 194 0 0 3086 -128 0 -50 -328 -16 0c-164,246 -399,369 -706,369 -297,0 -524,-93 -682,-278 -157,-185 -236,-454 -236,-809 0,-373 79,-658 234,-855 156,-197 383,-296 681,-296zm0 179c-236,0 -413,83 -531,248 -118,166 -177,406 -177,722 0,612 237,918 711,918 244,0 422,-71 535,-212 114,-142 171,-376 171,-702l0 -34c0,-334 -56,-574 -167,-720 -112,-147 -293,-220 -542,-220z"/>
   <path id="3" class="fil13" d="M19563 11435c0,352 -85,627 -256,824 -170,198 -405,297 -706,297 -188,0 -355,-46 -499,-137 -144,-91 -255,-222 -331,-393 -77,-171 -115,-368 -115,-591 0,-352 85,-626 256,-822 170,-197 404,-295 701,-295 296,0 529,100 698,299 168,199 252,472 252,818zm-1701 0c0,297 65,527 195,693 130,166 314,249 552,249 239,0 423,-83 553,-249 130,-166 195,-396 195,-693 0,-297 -66,-528 -197,-692 -132,-164 -316,-246 -555,-246 -237,0 -421,82 -550,245 -128,163 -193,395 -193,693z"/>
   <path id="4" class="fil13" d="M21497 11955c0,193 -73,342 -220,445 -146,104 -355,156 -625,156 -288,0 -517,-45 -686,-133l0 -212c217,108 446,162 686,162 213,0 375,-35 485,-106 111,-71 166,-165 166,-282 0,-109 -44,-200 -132,-275 -88,-73 -233,-146 -434,-217 -215,-78 -366,-145 -454,-201 -87,-57 -153,-120 -197,-191 -44,-71 -67,-157 -67,-259 0,-162 68,-289 204,-383 135,-94 325,-141 568,-141 233,0 454,44 662,132l-73 178c-212,-88 -408,-131 -589,-131 -176,0 -316,29 -418,87 -104,58 -156,139 -156,242 0,112 40,202 121,270 80,68 236,143 469,226 194,70 336,133 424,190 89,56 155,119 200,191 44,71 66,155 66,252z"/>
   <path id="5" class="fil13" d="M24444 11955c0,193 -74,342 -220,445 -147,104 -355,156 -625,156 -288,0 -517,-45 -686,-133l0 -212c217,108 446,162 686,162 213,0 375,-35 485,-106 110,-71 166,-165 166,-282 0,-109 -44,-200 -132,-275 -88,-73 -233,-146 -434,-217 -215,-78 -367,-145 -454,-201 -87,-57 -153,-120 -197,-191 -45,-71 -67,-157 -67,-259 0,-162 68,-289 204,-383 135,-94 325,-141 568,-141 232,0 454,44 662,132l-73 178c-212,-88 -408,-131 -589,-131 -176,0 -316,29 -419,87 -103,58 -155,139 -155,242 0,112 40,202 121,270 80,68 236,143 469,226 194,70 335,133 424,190 89,56 155,119 200,191 44,71 66,155 66,252z"/>
   <path id="6" class="fil13" d="M26781 11435c0,352 -85,627 -256,824 -170,198 -405,297 -705,297 -189,0 -356,-46 -500,-137 -144,-91 -254,-222 -331,-393 -77,-171 -115,-368 -115,-591 0,-352 85,-626 256,-822 170,-197 404,-295 702,-295 295,0 528,100 697,299 168,199 252,472 252,818zm-1701 0c0,297 65,527 195,693 130,166 314,249 553,249 238,0 422,-83 552,-249 130,-166 195,-396 195,-693 0,-297 -66,-528 -197,-692 -132,-164 -316,-246 -555,-246 -237,0 -420,82 -550,245 -128,163 -193,395 -193,693z"/>
   <path id="7" class="fil13" d="M28288 10318c301,0 528,95 681,285 153,190 229,467 229,832 0,359 -80,635 -241,829 -161,194 -386,292 -677,292 -153,0 -291,-32 -415,-96 -122,-63 -219,-153 -291,-269l-17 0 -56 324 -123 0 0 -3086 196 0 0 776c0,117 -2,224 -8,322l-5 168 13 0c82,-130 181,-224 297,-285 116,-61 254,-92 417,-92zm-4 179c-253,0 -435,73 -545,219 -110,145 -165,386 -165,721l0 34c0,326 57,560 172,702 114,141 292,212 534,212 235,0 412,-82 531,-247 119,-165 179,-400 179,-705 0,-624 -236,-936 -706,-936z"/>
   <path id="8" class="fil13" d="M30643 10318c91,0 190,10 294,28l-38 189c-90,-22 -183,-34 -280,-34 -183,0 -334,78 -451,234 -118,156 -177,353 -177,591l0 1189 -196 0 0 -2156 166 0 20 390 14 0c89,-159 183,-270 284,-335 100,-64 222,-96 364,-96z"/>
   <path id="9" class="fil13" d="M32165 12556c-313,0 -557,-97 -733,-290 -175,-193 -262,-464 -262,-811 0,-344 84,-620 253,-826 170,-207 398,-311 685,-311 253,0 454,88 601,265 146,176 220,416 220,719l0 157 -1554 0c3,298 72,526 208,683 136,157 330,235 582,235 123,0 231,-9 324,-26 94,-17 212,-54 354,-111l0 179c-121,53 -234,89 -337,108 -103,19 -216,29 -341,29zm-57 -2067c-208,0 -375,68 -500,206 -126,137 -199,335 -220,594l1332 0c0,-251 -54,-447 -162,-588 -109,-142 -259,-212 -450,-212z"/>
   <path id="10" class="fil13" d="M35888 12515l-50 -341 -16 0c-108,140 -220,238 -335,295 -114,58 -249,87 -405,87 -212,0 -376,-54 -494,-163 -118,-109 -177,-258 -177,-450 0,-211 88,-374 264,-490 175,-117 428,-178 760,-185l411 -12 0 -142c0,-206 -42,-360 -125,-465 -83,-104 -218,-156 -403,-156 -199,0 -406,55 -621,166l-73 -170c237,-111 470,-167 702,-167 237,0 413,62 530,184 117,124 176,315 176,576l0 1433 -144 0zm-794 -138c230,0 412,-65 544,-198 133,-131 200,-314 200,-548l0 -212 -377 15c-303,15 -519,63 -648,143 -129,79 -193,205 -193,374 0,134 41,239 124,314 82,75 199,112 350,112z"/>
   <path id="11" class="fil13" d="M38067 11955c0,193 -74,342 -221,445 -146,104 -354,156 -624,156 -289,0 -517,-45 -687,-133l0 -212c218,108 446,162 687,162 213,0 375,-35 485,-106 110,-71 166,-165 166,-282 0,-109 -44,-200 -132,-275 -88,-73 -233,-146 -434,-217 -215,-78 -367,-145 -454,-201 -88,-57 -153,-120 -197,-191 -45,-71 -67,-157 -67,-259 0,-162 67,-289 203,-383 136,-94 325,-141 568,-141 233,0 454,44 663,132l-73 178c-212,-88 -408,-131 -590,-131 -176,0 -315,29 -418,87 -104,58 -155,139 -155,242 0,112 40,202 121,270 79,68 236,143 469,226 194,70 335,133 424,190 89,56 155,119 200,191 44,71 66,155 66,252z"/>
   <path id="12" class="fil13" d="M11216 17533c-313,0 -558,-97 -733,-290 -175,-193 -263,-463 -263,-811 0,-344 85,-619 254,-826 169,-207 397,-311 684,-311 254,0 455,89 602,265 146,176 219,416 219,719l0 158 -1553 0c3,297 72,525 208,682 135,157 329,235 582,235 123,0 231,-9 324,-25 94,-17 211,-54 354,-111l0 178c-122,53 -234,89 -337,108 -103,20 -217,29 -341,29zm-58 -2067c-207,0 -374,68 -500,206 -125,137 -199,336 -220,594l1333 0c0,-251 -54,-447 -162,-588 -109,-142 -259,-212 -451,-212z"/>
   <polygon id="13" class="fil13" points="12770,17492 12574,17492 12574,14406 12770,14406 "/>
   <path id="14" class="fil13" d="M14362 17533c-313,0 -557,-97 -733,-290 -175,-193 -262,-463 -262,-811 0,-344 84,-619 254,-826 169,-207 397,-311 684,-311 254,0 454,89 601,265 147,176 220,416 220,719l0 158 -1553 0c2,297 71,525 207,682 136,157 330,235 582,235 124,0 231,-9 325,-25 93,-17 211,-54 353,-111l0 178c-121,53 -234,89 -336,108 -103,20 -217,29 -342,29zm-57 -2067c-208,0 -374,68 -500,206 -126,137 -199,336 -220,594l1332 0c0,-251 -54,-447 -162,-588 -108,-142 -259,-212 -450,-212z"/>
   <path id="15" class="fil13" d="M15916 17492l-196 0 0 -2156 196 0 0 2156zm-224 -2754c0,-127 42,-190 125,-190 41,0 73,17 97,50 23,33 34,80 34,140 0,59 -11,106 -34,141 -24,34 -56,51 -97,51 -83,0 -125,-64 -125,-192z"/>
   <path id="16" class="fil13" d="M17498 17533c-308,0 -549,-97 -724,-292 -174,-194 -261,-465 -261,-812 0,-358 90,-636 272,-835 180,-199 429,-299 743,-299 187,0 364,33 535,98l-53 175c-186,-63 -349,-94 -486,-94 -264,0 -465,82 -601,245 -136,163 -204,398 -204,705 0,291 68,519 204,683 136,165 326,247 572,247 195,0 377,-35 544,-105l0 183c-137,67 -318,101 -541,101zm212 535c0,133 -45,232 -134,299 -89,67 -213,100 -374,100 -90,0 -151,-7 -186,-22l0 -174c39,13 100,19 182,19 104,0 182,-18 236,-55 54,-37 81,-90 81,-158 0,-124 -127,-204 -382,-240l184 -345 190 0 -130 232c222,49 333,164 333,344z"/>
   <path id="17" class="fil13" d="M20350 16412c0,352 -85,627 -256,825 -170,197 -405,296 -706,296 -188,0 -355,-45 -499,-137 -144,-91 -255,-222 -331,-393 -77,-170 -115,-367 -115,-591 0,-352 85,-626 256,-822 170,-196 404,-295 701,-295 296,0 529,100 698,299 168,199 252,472 252,818zm-1701 0c0,297 65,527 195,693 130,166 314,249 552,249 239,0 423,-83 553,-249 130,-166 195,-396 195,-693 0,-297 -66,-528 -197,-692 -132,-164 -316,-246 -555,-246 -237,0 -421,82 -550,245 -128,163 -193,395 -193,693zm1068 -1385c-48,0 -98,-12 -149,-36 -52,-24 -119,-72 -201,-141 -42,-35 -83,-65 -124,-91 -40,-27 -81,-40 -123,-40 -60,0 -109,23 -149,68 -40,46 -71,126 -95,240l-145 0c13,-146 55,-261 125,-345 70,-84 161,-126 272,-126 63,0 121,17 174,50 52,33 107,72 163,116 44,37 88,71 130,100 42,28 83,43 122,43 60,0 111,-24 152,-72 41,-48 72,-127 95,-237l150 0c-20,153 -66,270 -136,351 -70,81 -157,120 -261,120z"/>
   <path id="18" class="fil13" d="M21818 17533c-313,0 -558,-97 -733,-290 -175,-193 -263,-463 -263,-811 0,-344 85,-619 254,-826 169,-207 397,-311 684,-311 254,0 455,89 602,265 146,176 220,416 220,719l0 158 -1554 0c3,297 72,525 208,682 135,157 330,235 582,235 123,0 231,-9 324,-25 94,-17 211,-54 354,-111l0 178c-122,53 -234,89 -337,108 -103,20 -216,29 -341,29zm-58 -2067c-207,0 -374,68 -500,206 -125,137 -199,336 -220,594l1333 0c0,-251 -54,-447 -162,-588 -109,-142 -259,-212 -451,-212z"/>
   <path id="19" class="fil13" d="M24513 16932c0,193 -74,342 -221,445 -146,104 -354,156 -624,156 -289,0 -517,-45 -687,-133l0 -212c218,108 446,162 687,162 213,0 375,-35 485,-106 110,-70 166,-164 166,-282 0,-108 -44,-200 -132,-274 -88,-74 -233,-146 -434,-218 -215,-78 -367,-145 -454,-201 -87,-57 -153,-120 -197,-191 -45,-70 -67,-157 -67,-259 0,-161 68,-289 204,-383 135,-94 324,-141 567,-141 233,0 455,44 663,132l-73 178c-212,-87 -408,-131 -590,-131 -176,0 -315,29 -418,87 -103,59 -155,139 -155,242 0,112 40,203 121,270 79,68 236,143 469,226 194,71 335,134 424,190 89,56 155,119 200,191 44,71 66,155 66,252z"/>
   <path id="20" class="fil13" d="M27626 17492l0 -1397c0,-217 -46,-374 -137,-473 -91,-98 -232,-148 -424,-148 -258,0 -447,65 -566,196 -120,130 -180,341 -180,633l0 1189 -197 0 0 -2156 167 0 38 297 12 0c140,-225 389,-338 748,-338 489,0 733,263 733,788l0 1409 -194 0z"/>
   <path id="21" class="fil13" d="M30300 16412c0,352 -85,627 -256,825 -170,197 -405,296 -705,296 -189,0 -356,-45 -500,-137 -144,-91 -254,-222 -331,-393 -77,-170 -115,-367 -115,-591 0,-352 85,-626 256,-822 170,-196 404,-295 702,-295 296,0 528,100 697,299 168,199 252,472 252,818zm-1701 0c0,297 65,527 195,693 130,166 314,249 553,249 238,0 422,-83 552,-249 130,-166 196,-396 196,-693 0,-297 -67,-528 -198,-692 -131,-164 -316,-246 -554,-246 -238,0 -421,82 -551,245 -128,163 -193,395 -193,693z"/>
   <path id="22" class="fil13" d="M32002 14593l795 0c359,0 621,61 790,183 168,121 252,305 252,551 0,168 -52,308 -154,419 -103,112 -252,184 -449,216l0 12c231,34 401,107 510,219 109,112 164,267 164,467 0,267 -89,472 -266,617 -177,144 -428,215 -754,215l-888 0 0 -2899zm202 1291l639 0c272,0 470,-45 594,-136 124,-90 185,-232 185,-425 0,-193 -70,-333 -209,-421 -140,-87 -347,-130 -623,-130l-586 0 0 1112zm0 179l0 1251 682 0c537,0 806,-218 806,-654 0,-398 -283,-597 -849,-597l-639 0z"/>
   <path id="23" class="fil13" d="M35347 15295c91,0 189,10 293,28l-38 189c-90,-22 -182,-34 -279,-34 -184,0 -334,78 -452,234 -117,156 -176,353 -176,591l0 1189 -197 0 0 -2156 167 0 20 390 14 0c88,-159 182,-270 283,-334 101,-65 222,-97 365,-97z"/>
   <path id="24" class="fil13" d="M37307 17492l-49 -341 -16 0c-109,140 -220,238 -335,295 -114,58 -249,87 -405,87 -212,0 -376,-54 -494,-162 -118,-109 -177,-259 -177,-451 0,-211 88,-374 263,-490 176,-117 429,-178 761,-184l410 -12 0 -143c0,-205 -41,-360 -124,-465 -84,-104 -218,-156 -403,-156 -200,0 -407,56 -621,167l-73 -171c237,-111 470,-166 701,-166 237,0 414,61 531,184 117,123 176,314 176,575l0 1433 -145 0zm-794 -138c230,0 413,-65 545,-197 133,-132 200,-314 200,-549l0 -212 -377 16c-303,14 -519,62 -648,142 -129,80 -193,205 -193,374 0,135 41,240 123,314 83,75 200,112 350,112z"/>
   <path id="25" class="fil13" d="M39487 16932c0,193 -74,342 -221,445 -146,104 -355,156 -625,156 -288,0 -517,-45 -686,-133l0 -212c217,108 446,162 686,162 214,0 375,-35 486,-106 110,-70 165,-164 165,-282 0,-108 -44,-200 -132,-274 -88,-74 -232,-146 -433,-218 -216,-78 -367,-145 -455,-201 -87,-57 -153,-120 -197,-191 -44,-70 -66,-157 -66,-259 0,-161 67,-289 203,-383 136,-94 325,-141 568,-141 233,0 454,44 663,132l-73 178c-212,-87 -409,-131 -590,-131 -176,0 -315,29 -418,87 -104,59 -155,139 -155,242 0,112 40,203 120,270 80,68 236,143 469,226 195,71 336,134 425,190 88,56 155,119 199,191 44,71 67,155 67,252z"/>
   <path id="26" class="fil13" d="M40237 17492l-196 0 0 -2156 196 0 0 2156zm-224 -2754c0,-127 42,-190 125,-190 41,0 73,17 96,50 24,33 35,80 35,140 0,59 -11,106 -35,141 -23,34 -55,51 -96,51 -83,0 -125,-64 -125,-192z"/>
   <polygon id="27" class="fil13" points="41155,17492 40959,17492 40959,14406 41155,14406 "/>
   <path id="28" class="fil13" d="M11682 21909c0,193 -73,342 -220,445 -146,104 -355,156 -625,156 -288,0 -517,-45 -686,-133l0 -212c217,108 446,162 686,162 213,0 375,-35 485,-106 111,-70 166,-164 166,-282 0,-108 -44,-200 -132,-274 -88,-74 -233,-146 -434,-218 -215,-78 -367,-145 -454,-201 -87,-57 -153,-120 -197,-191 -45,-70 -67,-157 -67,-258 0,-162 68,-289 204,-384 135,-94 325,-140 568,-140 233,0 454,44 662,131l-73 178c-212,-87 -408,-131 -589,-131 -176,0 -316,29 -419,88 -103,58 -155,138 -155,241 0,113 40,203 121,270 80,68 236,143 469,226 194,71 336,134 424,190 89,56 155,120 200,191 44,71 66,155 66,252z"/>
   <path id="29" class="fil13" d="M14019 21389c0,352 -85,627 -255,825 -171,197 -406,296 -706,296 -189,0 -356,-45 -500,-137 -144,-91 -254,-222 -331,-393 -77,-170 -115,-367 -115,-591 0,-352 85,-626 256,-822 171,-196 404,-294 702,-294 296,0 528,99 697,298 168,199 252,472 252,818zm-1701 0c0,297 66,528 195,694 130,165 314,249 553,249 238,0 422,-84 552,-249 130,-166 196,-397 196,-694 0,-297 -67,-527 -198,-692 -131,-164 -316,-246 -554,-246 -238,0 -421,82 -551,245 -128,164 -193,395 -193,693zm548 -1412c97,-104 192,-217 286,-340 95,-122 159,-214 194,-278l279 0 0 34c-47,68 -128,160 -242,273 -115,113 -241,228 -378,343l-139 0 0 -32z"/>
   <path id="30" class="fil13" d="M17175 22470l0 -1398c0,-217 -46,-374 -137,-473 -91,-98 -232,-148 -424,-148 -258,0 -447,65 -566,196 -120,130 -180,341 -180,633l0 1190 -197 0 0 -2157 167 0 38 297 12 0c140,-225 389,-337 748,-337 489,0 733,262 733,787l0 1410 -194 0z"/>
   <path id="31" class="fil13" d="M19849 21389c0,352 -85,627 -256,825 -170,197 -405,296 -705,296 -189,0 -356,-45 -500,-137 -144,-91 -254,-222 -331,-393 -77,-170 -115,-367 -115,-591 0,-352 85,-626 256,-822 170,-196 404,-294 702,-294 296,0 528,99 697,298 168,199 252,472 252,818zm-1701 0c0,297 65,528 195,694 130,165 314,249 553,249 238,0 422,-84 552,-249 130,-166 196,-397 196,-694 0,-297 -67,-527 -198,-692 -131,-164 -316,-246 -554,-246 -238,0 -421,82 -551,245 -128,164 -193,395 -193,693z"/>
  </g>
 </g>
</svg>
