<?xml version="1.0" encoding="UTF-8"?>
<!DOCTYPE svg PUBLIC "-//W3C//DTD SVG 1.1//EN" "http://www.w3.org/Graphics/SVG/1.1/DTD/svg11.dtd">
<!-- Creator: CorelDRAW X7 -->
<svg xmlns="http://www.w3.org/2000/svg" xml:space="preserve" width="850px" height="285px" version="1.1" style="shape-rendering:geometricPrecision; text-rendering:geometricPrecision; image-rendering:optimizeQuality; fill-rule:evenodd; clip-rule:evenodd"
viewBox="0 0 55211 18512"
 xmlns:xlink="http://www.w3.org/1999/xlink">
 <defs>
  <style type="text/css">
   <![CDATA[
    .str0 {stroke:black;stroke-width:58.4583}
    .fil5 {fill:none}
    .fil2 {fill:black}
    .fil4 {fill:white}
    .fil6 {fill:black;fill-rule:nonzero}
    .fil1 {fill:#003155;fill-rule:nonzero}
    .fil0 {fill:#D9DADB;fill-rule:nonzero}
    .fil3 {fill:white;fill-rule:nonzero}
   ]]>
  </style>
 </defs>
<symbol id="Fm0-2212-0" viewBox="427103 -2801528 25368 161617">
 <polygon class="fil0" points="437741,-2639911 427367,-2639911 427367,-2801528 437741,-2801528 "/>
 <polygon class="fil1" points="452471,-2717497 427103,-2717497 427103,-2723941 452471,-2723941 "/>
</symbol>
<symbol id="Symbol1" viewBox="427103 -2801528 25368 161617">
 <polygon class="fil0" points="437741,-2639911 427367,-2639911 427367,-2801528 437741,-2801528 "/>
 <polygon class="fil1" points="452471,-2717497 427103,-2717497 427103,-2723941 452471,-2723941 "/>
</symbol>
 <g id="Camada_x0020_1">
  <metadata id="CorelCorpID_0Corel-Layer"/>
  <rect class="fil2" width="55211" height="18512"/>
  <g id="_1225740960">
   <g>
    <polygon class="fil3" points="24367,11641 24330,11987 24678,11889 24704,12085 24378,12111 24592,12392 24412,12489 24261,12184 24127,12489 23941,12392 24150,12111 23827,12085 23858,11889 24198,11987 24161,11641 "/>
    <polygon id="1" class="fil3" points="25696,13048 24948,13048 24948,11726 25696,11726 25696,11910 25165,11910 25165,12269 25662,12269 25662,12450 25165,12450 25165,12865 25696,12865 "/>
    <path id="2" class="fil3" d="M26631 12764c0,97 -35,172 -107,224 -71,53 -173,79 -305,79 -133,0 -240,-21 -321,-61l0 -184c117,55 227,82 328,82 131,0 196,-40 196,-119 0,-25 -7,-46 -21,-63 -15,-17 -39,-34 -72,-52 -33,-19 -79,-39 -138,-62 -115,-44 -193,-89 -234,-134 -41,-44 -61,-102 -61,-173 0,-86 34,-152 104,-200 69,-47 162,-71 281,-71 118,0 229,24 334,72l-69 160c-108,-45 -198,-67 -272,-67 -112,0 -168,32 -168,96 0,31 14,58 44,79 29,22 93,52 191,90 82,32 142,61 180,88 37,26 65,57 83,92 18,34 27,75 27,124z"/>
    <path id="3" class="fil3" d="M27368 13067c-127,0 -225,-46 -295,-137l-13 0c9,84 13,136 13,154l0 409 -213 0 0 -1444 172 0c5,18 15,63 30,133l11 0c66,-101 166,-152 298,-152 125,0 222,45 292,136 69,90 104,217 104,381 0,163 -35,291 -106,382 -71,92 -169,138 -293,138zm-52 -863c-84,0 -146,25 -185,74 -38,49 -58,129 -58,237l0 32c0,122 19,209 58,264 38,55 101,82 189,82 73,0 130,-30 170,-91 39,-60 59,-146 59,-257 0,-112 -20,-197 -59,-254 -39,-58 -97,-87 -174,-87z"/>
    <path id="4" class="fil3" d="M28450 13067c-155,0 -277,-46 -364,-136 -88,-91 -132,-216 -132,-375 0,-164 41,-292 122,-386 82,-93 193,-140 336,-140 131,0 236,40 312,120 77,81 115,191 115,332l0 115 -666 0c3,97 29,171 78,223 50,52 120,78 209,78 59,0 114,-5 165,-16 51,-11 106,-30 164,-56l0 173c-52,25 -104,42 -157,52 -53,11 -114,16 -182,16zm-38 -876c-68,0 -122,21 -163,64 -40,43 -64,106 -72,188l453 0c-1,-83 -21,-145 -59,-188 -39,-43 -92,-64 -159,-64z"/>
    <path id="5" class="fil3" d="M29484 13067c-152,0 -266,-44 -345,-133 -79,-88 -118,-215 -118,-380 0,-169 41,-298 123,-388 83,-91 201,-136 357,-136 105,0 200,20 285,59l-64 171c-90,-35 -164,-52 -223,-52 -173,0 -259,115 -259,344 0,112 21,196 64,253 44,56 107,84 190,84 94,0 184,-23 268,-71l0 186c-38,23 -78,39 -121,48 -44,10 -96,15 -157,15z"/>
    <path id="6" class="fil3" d="M30210 13048l-212 0 0 -999 212 0 0 999zm-225 -1264c0,-38 10,-67 31,-88 21,-21 51,-31 89,-31 37,0 67,10 87,31 21,21 32,50 32,88 0,36 -11,64 -32,85 -20,21 -50,31 -87,31 -38,0 -68,-10 -89,-31 -21,-21 -31,-49 -31,-85z"/>
    <path id="7" class="fil3" d="M31139 13048l-42 -139 -8 0c-48,61 -96,103 -145,125 -49,22 -112,33 -188,33 -98,0 -175,-27 -230,-80 -55,-53 -83,-128 -83,-225 0,-103 39,-181 115,-233 77,-53 193,-81 350,-86l172 -6 0 -53c0,-64 -15,-112 -44,-144 -30,-31 -76,-47 -139,-47 -51,0 -100,7 -147,22 -48,16 -93,34 -136,54l-69 -152c54,-28 114,-50 178,-65 65,-15 126,-22 183,-22 127,0 223,28 288,83 64,56 97,143 97,262l0 673 -152 0zm-316 -144c77,0 139,-22 186,-65 46,-43 70,-104 70,-181l0 -87 -129 5c-100,4 -173,21 -218,51 -46,29 -68,75 -68,137 0,44 13,79 39,103 27,25 67,37 120,37z"/>
    <polygon id="8" class="fil3" points="31800,13048 31588,13048 31588,11641 31800,11641 "/>
    <polygon id="9" class="fil3" points="32607,13048 32607,11726 32824,11726 32824,12863 33383,12863 33383,13048 "/>
    <path id="10" class="fil3" d="M34431 13048l-132 -366 -506 0 -129 366 -228 0 495 -1327 235 0 494 1327 -229 0zm-189 -553l-124 -360c-9,-24 -22,-62 -38,-114 -16,-52 -26,-90 -33,-114 -16,74 -40,155 -71,243l-119 345 385 0z"/>
    <path id="11" class="fil3" d="M35514 11726l224 0 -463 1322 -228 0 -461 -1322 223 0 276 822c14,40 29,90 45,152 17,62 27,108 32,138 8,-46 20,-99 36,-160 17,-60 30,-104 40,-133l276 -819z"/>
    <path id="12" class="fil3" d="M36658 13048l-132 -366 -505 0 -129 366 -228 0 494 -1327 235 0 495 1327 -230 0zm-189 -553l-123 -360c-10,-24 -22,-62 -38,-114 -16,-52 -27,-90 -33,-114 -16,74 -40,155 -71,243l-120 345 385 0z"/>
    <path id="13" class="fil3" d="M37377 13417c-60,0 -109,-8 -149,-23l0 -181c51,12 95,19 132,19 118,0 177,-75 177,-225l0 -1281 217 0 0 1274c0,135 -32,238 -96,310 -64,71 -158,107 -281,107z"/>
    <path id="14" class="fil3" d="M38917 13048l-132 -366 -505 0 -130 366 -228 0 495 -1327 235 0 494 1327 -229 0zm-189 -553l-124 -360c-9,-24 -22,-62 -38,-114 -16,-52 -26,-90 -33,-114 -16,74 -40,155 -71,243l-119 345 385 0z"/>
    <polygon id="15" class="fil3" points="39648,13048 39432,13048 39432,11912 39044,11912 39044,11726 40037,11726 40037,11912 39648,11912 "/>
    <path id="16" class="fil3" d="M41376 12386c0,215 -54,382 -161,502 -108,119 -260,179 -457,179 -200,0 -353,-59 -460,-178 -107,-118 -161,-287 -161,-505 0,-218 54,-386 162,-503 107,-117 261,-175 460,-175 197,0 349,59 456,178 107,119 161,286 161,502zm-1009 -1c0,163 33,287 99,370 65,85 163,127 292,127 128,0 225,-42 290,-125 65,-83 98,-207 98,-372 0,-161 -32,-284 -97,-368 -65,-84 -161,-126 -290,-126 -129,0 -227,42 -293,126 -66,84 -99,207 -99,368z"/>
    <g>
     <path class="fil4" d="M28298 5558c-113,-523 -578,-915 -1134,-915 -553,0 -1016,387 -1133,905l0 -901 4 -4 -529 0 0 4 -543 1036 -544 -1040 -532 0 0 2324 525 0 0 -836 551 836 0 0 543 -810 0 810 525 0 0 -905c117,518 580,905 1133,905 556,0 1021,-392 1134,-914l0 914 525 0 0 -1162 656 1162 532 0 0 -2324 -524 0 0 1162 -653 -1162 -536 0 0 915zm0 476l-540 0c-92,239 -323,408 -594,408 -352,0 -637,-285 -637,-637 0,-352 285,-637 637,-637 271,0 502,170 594,409l540 0 0 457z"/>
     <polygon class="fil3" points="23896,9773 23896,7449 24058,7449 24058,9773 "/>
     <path id="1" class="fil3" d="M25882 9773l0 -1120c0,-174 -37,-300 -110,-380 -73,-78 -186,-118 -340,-118 -207,0 -358,52 -454,157 -96,104 -144,273 -144,507l0 954 -158 0 0 -1729 134 0 30 238 10 0c112,-180 312,-270 600,-270 391,0 588,210 588,631l0 1130 -156 0z"/>
     <path id="2" class="fil3" d="M26975 9773l-667 -1729 162 0 446 1176c60,151 105,282 134,394l10 0c43,-144 88,-276 133,-397l447 -1173 162 0 -668 1729 -159 0z"/>
     <path id="3" class="fil3" d="M28790 9806c-252,0 -447,-78 -588,-232 -141,-155 -211,-372 -211,-651 0,-276 68,-497 204,-662 136,-166 318,-249 549,-249 203,0 364,70 481,212 118,141 177,333 177,576l0 127 -1246 0c3,239 58,421 167,547 109,126 264,189 467,189 98,0 185,-7 260,-21 75,-14 169,-43 283,-89l0 143c-97,43 -187,71 -270,86 -82,16 -173,24 -273,24zm-46 -1657c-167,0 -300,54 -401,165 -101,110 -160,269 -177,476l1069 0c0,-201 -44,-358 -131,-472 -86,-113 -207,-169 -360,-169z"/>
     <path id="4" class="fil3" d="M30951 9324c0,155 -60,274 -177,357 -118,83 -285,125 -501,125 -231,0 -415,-36 -550,-107l0 -170c174,87 357,130 550,130 171,0 300,-28 389,-85 88,-56 133,-132 133,-226 0,-87 -35,-160 -106,-220 -71,-59 -187,-117 -348,-175 -172,-62 -294,-116 -364,-161 -70,-45 -123,-96 -158,-153 -36,-56 -54,-126 -54,-207 0,-130 55,-232 164,-307 108,-76 260,-113 455,-113 187,0 364,35 531,105l-58 143c-170,-70 -328,-105 -473,-105 -141,0 -253,23 -335,70 -83,47 -125,111 -125,194 0,90 32,162 97,216 64,55 189,115 376,182 156,56 269,106 340,152 71,45 125,96 160,153 36,57 54,124 54,202z"/>
     <path id="5" class="fil3" d="M31851 9669c100,0 187,-9 261,-25l0 124c-76,25 -164,38 -264,38 -152,0 -265,-41 -337,-123 -73,-81 -110,-210 -110,-385l0 -1117 -256 0 0 -92 256 -72 80 -389 81 0 0 416 508 0 0 137 -508 0 0 1097c0,133 23,232 70,296 47,63 120,95 219,95z"/>
     <path id="6" class="fil3" d="M32643 9773l-157 0 0 -1729 157 0 0 1729zm-180 -2208c0,-102 34,-152 101,-152 32,0 58,13 77,39 18,27 28,64 28,113 0,47 -10,85 -28,113 -19,27 -45,41 -77,41 -67,0 -101,-52 -101,-154z"/>
     <path id="7" class="fil3" d="M34570 8044l0 108 -358 23c95,119 143,250 143,394 0,166 -55,301 -166,404 -111,104 -259,156 -446,156 -78,0 -133,-4 -165,-10 -63,33 -111,71 -143,116 -33,44 -50,92 -50,142 0,55 22,95 63,121 42,25 112,38 211,38l302 0c187,0 331,38 431,113 99,76 149,188 149,336 0,182 -73,322 -222,421 -147,99 -358,149 -631,149 -218,0 -386,-42 -505,-126 -119,-83 -179,-200 -179,-349 0,-119 37,-217 110,-295 74,-79 174,-132 300,-161 -52,-22 -94,-54 -125,-94 -31,-41 -47,-88 -47,-141 0,-116 74,-217 222,-305 -101,-41 -180,-106 -236,-195 -56,-88 -84,-190 -84,-305 0,-172 55,-311 164,-415 110,-105 258,-157 445,-157 113,0 201,11 264,32l553 0zm-1399 2021c0,237 176,356 529,356 454,0 681,-144 681,-433 0,-105 -36,-179 -107,-226 -71,-47 -186,-70 -345,-70l-282 0c-317,0 -476,124 -476,373zm132 -1481c0,133 40,237 122,310 80,74 189,111 325,111 144,0 254,-36 331,-110 77,-73 115,-179 115,-318 0,-147 -39,-258 -118,-331 -79,-74 -189,-110 -332,-110 -137,0 -245,39 -325,118 -79,79 -118,189 -118,330z"/>
     <path id="8" class="fil3" d="M35975 9773l-40 -273 -13 0c-87,112 -176,190 -268,236 -92,46 -200,70 -325,70 -170,0 -302,-44 -396,-130 -95,-88 -142,-208 -142,-362 0,-169 71,-299 211,-393 141,-93 344,-142 610,-147l329 -10 0 -115c0,-164 -33,-288 -100,-372 -67,-83 -175,-125 -323,-125 -160,0 -326,44 -498,133l-59 -136c190,-89 378,-134 563,-134 190,0 332,49 426,148 93,98 141,252 141,461l0 1149 -116 0zm-637 -110c184,0 330,-53 437,-159 106,-105 160,-252 160,-439l0 -171 -302 13c-243,12 -417,50 -520,114 -103,64 -155,164 -155,300 0,108 33,192 99,252 67,60 161,90 281,90z"/>
     <path id="9" class="fil3" d="M37106 9669c100,0 187,-9 261,-25l0 124c-76,25 -164,38 -264,38 -153,0 -265,-41 -338,-123 -73,-81 -109,-210 -109,-385l0 -1117 -256 0 0 -92 256 -72 79 -389 82 0 0 416 507 0 0 137 -507 0 0 1097c0,133 23,232 70,296 46,63 120,95 219,95z"/>
     <path id="10" class="fil3" d="M37898 9773l-158 0 0 -1729 158 0 0 1729zm-180 -2208c0,-102 34,-152 101,-152 32,0 58,13 77,39 18,27 27,64 27,113 0,47 -9,85 -27,113 -19,27 -45,41 -77,41 -67,0 -101,-52 -101,-154z"/>
     <path id="11" class="fil3" d="M38854 9773l-667 -1729 162 0 447 1176c59,151 104,282 133,394l10 0c44,-144 88,-276 134,-397l446 -1173 162 0 -668 1729 -159 0z"/>
     <path id="12" class="fil3" d="M41400 8907c0,282 -68,503 -205,661 -137,159 -325,238 -566,238 -151,0 -285,-37 -401,-110 -115,-73 -204,-178 -265,-315 -62,-137 -92,-295 -92,-474 0,-282 68,-502 205,-659 137,-158 324,-236 563,-236 237,0 424,80 559,239 135,160 202,378 202,656zm-1364 0c0,238 52,423 157,556 104,133 251,200 442,200 191,0 339,-67 443,-200 104,-133 157,-318 157,-556 0,-238 -53,-423 -158,-555 -106,-131 -254,-197 -445,-197 -190,0 -337,66 -441,196 -103,131 -155,317 -155,556z"/>
    </g>
    <path class="fil4" d="M15659 9747c-94,291 -148,597 -157,911 -729,-1351 -1939,-2317 -3888,-2390 340,-390 775,-702 1276,-896 -3,6 -7,13 -10,19 373,442 753,797 1138,1078 604,442 1221,698 1837,805 -78,152 -143,310 -196,473z"/>
    <path class="fil4" d="M19767 6463c-10,-283 -57,-560 -137,-825 -845,-599 -1732,-969 -2811,-1069 -876,-82 -1886,11 -3107,300 -186,302 -325,639 -405,1002 2251,-923 5008,-905 6460,592z"/>
    <path class="fil4" d="M16537 6311l0 0zm0 0c293,0 557,135 731,347l-30 -11 -222 -77 5 123 11 237 18 380 2 55 87 2 90 4 245 17 -28 -391 0 -6c25,85 38,175 38,267l0 0c0,55 -5,108 -14,161 -124,-14 -258,-19 -305,-20l-228 -3 -148 -2 -48 -1c-80,0 -163,2 -246,5 -76,3 -153,7 -229,12 -72,5 -143,11 -213,19l-171 24c-53,10 -113,21 -127,45l25 23 1 1c112,101 291,263 427,302l299 0 317 0 410 0 85 -34 1 -1c-171,251 -458,417 -783,417l0 0c-310,0 -586,-151 -759,-382l252 0c-116,-115 -225,-156 -337,-136 -66,-129 -104,-275 -104,-430l0 0c0,-521 427,-947 948,-947zm465 624l-17 -362 -73 41 11 343 13 405 50 1 35 1 -1 -28 -18 -401zm-110 33l-9 -292 -42 -11 7 322 9 375 48 0 -13 -394zm-74 34l-8 -332 -60 34 3 338 3 286 0 34 18 0 51 0 -7 -360z"/>
    <path class="fil4" d="M17542 8263l0 0zm0 0l0 0 1 -1c554,-555 553,-1454 -1,-2009 -555,-555 -1455,-555 -2010,0 -555,555 -555,1455 0,2010 554,555 1453,555 2008,1l2 -1zm1674 1340c93,92 93,243 0,335l0 0c-92,92 -242,92 -334,0 -252,-251 -503,-502 -754,-753 -56,-56 -112,-112 -167,-168 -84,-84 -168,-167 -252,-251 -50,-50 -88,-99 -163,-51 -26,16 -50,33 -76,50 -696,432 -1601,329 -2182,-249l-4 -5c-692,-692 -692,-1814 0,-2506 692,-692 1814,-692 2506,0 613,614 682,1564 209,2254 -61,84 -1,125 56,182 28,28 56,56 84,84 138,139 276,277 415,415 28,28 56,56 84,84 112,112 223,224 335,336 81,81 162,162 243,243z"/>
   </g>
   <g>
    <path class="fil4" d="M41734 13557c81,44 147,93 227,133l24 -84 1489 -53c31,34 112,104 108,150 -14,163 -262,194 -387,219 -140,28 -255,32 -396,41 -181,12 -356,11 -535,-2 -152,-12 -187,-10 -334,-23 -109,-10 -218,9 -326,13 -116,4 -225,17 -343,11 -133,-7 -217,-9 -351,0 -186,13 -262,-20 -436,-65 -28,-8 -56,-15 -85,-21 -83,-15 -447,-13 -316,-175 114,-133 257,-77 406,-90 284,-24 618,-139 903,-77 117,25 240,-20 352,23zm-687 346c-25,-27 -98,-11 -132,-8 -80,7 -161,9 -237,-17 -11,-3 -71,-25 -67,3 4,21 98,44 121,47 56,6 134,4 191,1 18,-2 22,-7 47,-7 19,0 48,2 66,0 11,-3 13,-9 11,-19zm-916 -173c46,-99 -83,-1 -35,47 39,37 77,37 128,46 16,3 67,18 73,-6 11,-43 -178,-9 -171,-71l5 -16z"/>
    <g>
     <path class="fil5 str0" d="M42632 13244c-471,0 -853,119 -853,266 0,148 382,267 853,267 471,0 853,-119 853,-267 0,-147 -382,-266 -853,-266z"/>
     <path id="1" class="fil4" d="M42632 13244c-471,0 -853,119 -853,266 0,148 382,267 853,267 471,0 853,-119 853,-267 0,-147 -382,-266 -853,-266z"/>
    </g>
    <path class="fil4" d="M43468 11376l0 2134 -1672 0 0 -2134c53,40 130,72 225,97 158,41 374,66 611,66 237,0 453,-25 611,-66 95,-25 172,-57 225,-97z"/>
    <path class="fil6" d="M41768 11980c0,48 89,97 233,135 161,43 384,70 631,70 247,0 470,-27 631,-70 144,-38 233,-87 233,-135l101 -43c0,87 -116,161 -302,211 -171,46 -405,74 -663,74 -258,0 -492,-28 -663,-74 -186,-50 -302,-124 -302,-211l101 43z"/>
    <path class="fil6" d="M41768 12777c0,49 89,97 233,136 161,43 384,69 631,69 247,0 470,-26 631,-69 144,-39 233,-87 233,-136l101 -42c0,87 -116,161 -302,211 -171,46 -405,74 -663,74 -258,0 -492,-28 -663,-74 -186,-50 -302,-124 -302,-211l101 42z"/>
    <ellipse class="fil4" cx="42632" cy="11282" rx="836" ry="216"/>
    <ellipse class="fil2" cx="41978" cy="11281" rx="77" ry="32"/>
   </g>
  </g>
 </g>
</svg>
