<?xml version="1.0" encoding="UTF-8"?>
<!DOCTYPE svg PUBLIC "-//W3C//DTD SVG 1.1//EN" "http://www.w3.org/Graphics/SVG/1.1/DTD/svg11.dtd">
<!-- Creator: CorelDRAW X7 -->
<svg xmlns="http://www.w3.org/2000/svg" xml:space="preserve" width="850px" height="285px" version="1.1" style="shape-rendering:geometricPrecision; text-rendering:geometricPrecision; image-rendering:optimizeQuality; fill-rule:evenodd; clip-rule:evenodd"
viewBox="0 0 64769 21717"
 xmlns:xlink="http://www.w3.org/1999/xlink">
 <defs>
  <style type="text/css">
   <![CDATA[
    .str3 {stroke:#FFCC00;stroke-width:76.1391}
    .str1 {stroke:#B08021;stroke-width:68.5791}
    .str2 {stroke:#CC9933;stroke-width:68.5791}
    .str0 {stroke:#FFCC00;stroke-width:76.2291;stroke-linecap:round;stroke-linejoin:round}
    .fil6 {fill:none}
    .fil4 {fill:none;fill-rule:nonzero}
    .fil2 {fill:#B08021}
    .fil5 {fill:#FFCC00}
    .fil1 {fill:#003155;fill-rule:nonzero}
    .fil7 {fill:#B08021;fill-rule:nonzero}
    .fil0 {fill:#D9DADB;fill-rule:nonzero}
    .fil3 {fill:#FFCC00;fill-rule:nonzero}
   ]]>
  </style>
 </defs>
<symbol id="Fm0-2212-0" viewBox="427468 -3259288 29760 189598">
 <polygon class="fil0" points="439947,-3069690 427777,-3069690 427777,-3259288 439947,-3259288 "/>
 <polygon class="fil1" points="457227,-3160709 427468,-3160709 427468,-3168269 457227,-3168269 "/>
</symbol>
<symbol id="Symbol1" viewBox="427468 -3259288 29760 189598">
 <polygon class="fil0" points="439947,-3069690 427777,-3069690 427777,-3259288 439947,-3259288 "/>
 <polygon class="fil1" points="457227,-3160709 427468,-3160709 427468,-3168269 457227,-3168269 "/>
</symbol>
 <g id="Camada_x0020_1">
  <metadata id="CorelCorpID_0Corel-Layer"/>
  <rect class="fil2" width="64769" height="21717"/>
  <path class="fil3" d="M9327 6367l-594 1478 97 0 189 -474 707 0 186 474 98 0 -584 -1478 -99 0zm-279 925l329 -836 4 0 316 836 -649 0z"/>
  <path id="1" class="fil3" d="M10980 7110c-23,-242 -209,-354 -439,-354 -314,0 -488,251 -488,547 0,296 143,567 488,567 230,0 414,-145 449,-400l-78 0c-27,195 -172,331 -371,331 -275,0 -409,-211 -409,-498 0,-242 143,-478 409,-478 193,0 346,97 360,285l79 0z"/>
  <path id="2" class="fil3" d="M11125 7313c0,302 176,557 488,557 313,0 489,-255 489,-557 0,-302 -176,-557 -489,-557 -312,0 -488,255 -488,557zm79 0c0,-254 142,-488 409,-488 267,0 410,234 410,488 0,254 -143,488 -410,488 -267,0 -409,-234 -409,-488z"/>
  <path id="3" class="fil3" d="M12288 7845l78 0 0 -629c0,-273 187,-391 338,-391 68,0 250,25 250,291l0 729 79 0 0 -629c0,-255 140,-391 333,-391 62,0 254,20 254,291l0 729 79 0 0 -726c0,-251 -141,-363 -333,-363 -172,0 -275,81 -337,226l-5 0c-22,-110 -118,-226 -320,-226 -160,0 -300,108 -333,242l-5 0 0 -217 -78 0 0 1064z"/>
  <path id="4" class="fil3" d="M14421 7801c-300,0 -389,-234 -389,-486 0,-252 105,-490 389,-490 286,0 399,248 399,490 0,263 -122,486 -399,486zm-391 -1020l-79 0 0 1444 79 0 0 -602 4 0c62,172 211,247 387,247 325,0 478,-232 478,-555 0,-300 -151,-559 -478,-559 -234,0 -354,164 -387,269l-4 0 0 -244z"/>
  <path id="5" class="fil3" d="M15789 7439c0,56 -40,362 -398,362 -186,0 -279,-103 -279,-231 0,-160 106,-226 292,-247 153,-20 322,-12 385,-82l0 198zm78 -405c0,-220 -186,-278 -372,-278 -251,0 -395,118 -406,352l79 0c10,-184 136,-283 327,-283 242,0 296,161 296,209 0,173 -15,196 -367,221 -175,15 -391,66 -391,315 0,223 156,300 356,300 203,0 346,-110 395,-236l5 0 0 56c0,86 18,155 142,155 21,0 42,-4 65,-9l0 -66c-25,4 -44,6 -58,6 -71,0 -71,-66 -71,-128l0 -614z"/>
  <path id="6" class="fil3" d="M16118 7845l78 0 0 -575c0,-261 145,-445 383,-445 290,0 302,238 302,347l0 673 79 0 0 -658c0,-131 -4,-431 -379,-431 -165,0 -327,94 -381,253l-4 0 0 -228 -78 0 0 1064z"/>
  <path id="7" class="fil3" d="M17191 6367l0 1478 79 0 0 -575c0,-261 145,-445 383,-445 290,0 302,238 302,347l0 673 79 0 0 -658c0,-131 -5,-431 -379,-431 -166,0 -327,94 -381,253l-4 0 0 -642 -79 0z"/>
  <path id="8" class="fil3" d="M19155 7323c14,-304 -134,-567 -468,-567 -320,0 -473,284 -469,576 -4,293 159,538 469,538 253,0 418,-137 460,-385l-79 0c-37,196 -180,316 -381,316 -262,0 -395,-227 -391,-478l859 0zm-859 -68c17,-211 156,-430 391,-430 245,0 385,207 389,430l-780 0z"/>
  <path id="9" class="fil3" d="M19865 7313c0,302 176,557 488,557 312,0 488,-255 488,-557 0,-302 -176,-557 -488,-557 -312,0 -488,255 -488,557zm78 0c0,-254 143,-488 410,-488 267,0 410,234 410,488 0,254 -143,488 -410,488 -267,0 -410,-234 -410,-488z"/>
  <path id="10" class="fil3" d="M20984 7491c6,248 188,379 431,379 186,0 415,-65 415,-294 0,-224 -165,-273 -376,-313 -172,-37 -354,-64 -354,-233 0,-151 161,-205 306,-205 178,0 313,78 315,271l78 0c0,-242 -167,-340 -393,-340 -180,0 -385,62 -385,274 0,217 182,264 367,302 182,37 364,64 364,244 0,184 -199,225 -337,225 -193,0 -340,-113 -352,-310l-79 0z"/>
  <path id="11" class="fil3" d="M7825 10162c-300,0 -389,-234 -389,-486 0,-252 105,-490 389,-490 286,0 399,248 399,490 0,263 -122,486 -399,486zm-391 -1020l-79 0 0 1444 79 0 0 -602 4 0c62,172 211,246 387,246 325,0 478,-231 478,-554 0,-300 -151,-559 -478,-559 -234,0 -354,164 -387,269l-4 0 0 -244z"/>
  <path id="12" class="fil3" d="M8437 9674c0,302 176,556 489,556 312,0 488,-254 488,-556 0,-302 -176,-557 -488,-557 -313,0 -489,255 -489,557zm79 0c0,-255 143,-488 410,-488 267,0 409,233 409,488 0,254 -142,488 -409,488 -267,0 -410,-234 -410,-488z"/>
  <polygon id="13" class="fil3" points="9617,8728 9617,10206 9695,10206 9695,8728 "/>
  <path id="14" class="fil3" d="M10043 10206l0 -1064 -79 0 0 1064 79 0zm-157 -1223l76 0 278 -290 -106 0 -248 290z"/>
  <path id="15" class="fil3" d="M10684 9142l-231 0 0 -331 -79 0 0 331 -197 0 0 68 197 0 0 743c-8,240 147,263 308,253l0 -69c-149,4 -229,-12 -229,-184l0 -743 231 0 0 -68z"/>
  <path id="16" class="fil3" d="M10926 10206l0 -1064 -78 0 0 1064 78 0zm0 -1265l0 -213 -78 0 0 213 78 0z"/>
  <path id="17" class="fil3" d="M12056 9471c-23,-242 -209,-354 -439,-354 -314,0 -488,251 -488,547 0,295 143,566 488,566 230,0 414,-144 449,-399l-78 0c-27,195 -172,331 -371,331 -275,0 -409,-211 -409,-498 0,-243 143,-478 409,-478 193,0 346,97 361,285l78 0z"/>
  <path id="18" class="fil3" d="M12201 9674c0,302 176,556 488,556 313,0 489,-254 489,-556 0,-302 -176,-557 -489,-557 -312,0 -488,255 -488,557zm79 0c0,-255 142,-488 409,-488 267,0 410,233 410,488 0,254 -143,488 -410,488 -267,0 -409,-234 -409,-488z"/>
  <path id="19" class="fil3" d="M13320 9852c7,248 189,378 431,378 186,0 416,-64 416,-293 0,-224 -166,-273 -377,-313 -172,-37 -354,-64 -354,-234 0,-151 162,-204 306,-204 178,0 313,78 315,271l79 0c0,-242 -168,-340 -394,-340 -180,0 -384,62 -384,273 0,218 182,265 366,302 182,38 364,65 364,245 0,184 -199,225 -337,225 -193,0 -340,-114 -352,-310l-79 0z"/>
  <path id="20" class="fil3" d="M15323 9142l-232 0 0 -331 -78 0 0 331 -197 0 0 68 197 0 0 743c-8,240 147,263 308,253l0 -69c-149,4 -230,-12 -230,-184l0 -743 232 0 0 -68z"/>
  <path id="21" class="fil3" d="M16174 9800c0,56 -40,362 -398,362 -186,0 -279,-103 -279,-232 0,-159 105,-225 292,-246 153,-20 322,-12 385,-83l0 199zm78 -405c0,-220 -186,-278 -372,-278 -251,0 -396,118 -406,352l79 0c10,-184 136,-283 327,-283 242,0 296,161 296,209 0,173 -15,196 -367,221 -175,14 -391,66 -391,314 0,224 155,300 356,300 203,0 346,-109 395,-235l5 0 0 55c0,87 18,156 142,156 21,0 42,-5 64,-9l0 -66c-24,4 -43,6 -58,6 -70,0 -70,-66 -70,-128l0 -614z"/>
  <path id="22" class="fil3" d="M16505 10206l78 0 0 -629c0,-274 186,-391 337,-391 69,0 251,24 251,291l0 729 78 0 0 -629c0,-255 141,-391 334,-391 62,0 254,20 254,291l0 729 79 0 0 -727c0,-250 -141,-362 -333,-362 -172,0 -276,81 -338,226l-4 0c-23,-110 -118,-226 -321,-226 -159,0 -300,108 -333,242l-4 0 0 -217 -78 0 0 1064z"/>
  <path id="23" class="fil3" d="M18654 10162c-289,0 -405,-252 -405,-513 0,-267 128,-463 405,-463 255,0 383,227 383,463 0,244 -103,513 -383,513zm-486 44l79 0 0 -238 4 0c16,56 124,262 403,262 147,0 462,-74 462,-581 0,-296 -149,-532 -462,-532 -171,0 -343,85 -403,251l-4 0 0 -640 -79 0 0 1478z"/>
  <path id="24" class="fil3" d="M20190 9684c14,-304 -135,-567 -468,-567 -321,0 -474,284 -470,575 -4,294 160,538 470,538 252,0 418,-136 459,-384l-78 0c-38,196 -180,316 -381,316 -263,0 -395,-227 -391,-478l859 0zm-859 -68c16,-211 155,-430 391,-430 244,0 385,206 389,430l-780 0zm271 -633l77 0 277 -290 -106 0 -248 290z"/>
  <path id="25" class="fil3" d="M20376 10206l78 0 0 -629c0,-274 187,-391 338,-391 68,0 250,24 250,291l0 729 79 0 0 -629c0,-255 140,-391 333,-391 62,0 254,20 254,291l0 729 79 0 0 -727c0,-250 -141,-362 -333,-362 -172,0 -275,81 -337,226l-5 0c-22,-110 -118,-226 -320,-226 -160,0 -300,108 -333,242l-5 0 0 -217 -78 0 0 1064z"/>
  <path id="26" class="fil3" d="M12863 12523c-273,0 -397,-236 -397,-486 0,-257 114,-491 395,-491 273,0 395,243 395,491 0,244 -124,486 -393,486zm395 43l79 0 0 -1477 -79 0 0 652 -4 0c-56,-168 -219,-263 -393,-263 -321,0 -474,244 -474,559 0,294 139,554 460,554 190,0 320,-85 407,-252l4 0 0 227z"/>
  <path id="27" class="fil3" d="M14477 12045c14,-304 -135,-567 -468,-567 -320,0 -473,284 -469,575 -4,294 159,538 469,538 253,0 418,-136 460,-385l-79 0c-37,197 -180,317 -381,317 -262,0 -395,-228 -391,-478l859 0zm-859 -68c17,-211 156,-431 391,-431 244,0 385,207 389,431l-780 0z"/>
  <path id="28" class="fil3" d="M15149 12523c-300,0 -389,-234 -389,-486 0,-253 106,-491 389,-491 286,0 400,249 400,491 0,263 -122,486 -400,486zm-391 -1020l-78 0 0 1444 78 0 0 -602 5 0c62,172 211,246 386,246 325,0 478,-231 478,-554 0,-300 -151,-559 -478,-559 -233,0 -353,164 -386,269l-5 0 0 -244z"/>
  <path id="29" class="fil3" d="M15762 12035c0,302 176,556 488,556 313,0 488,-254 488,-556 0,-302 -175,-557 -488,-557 -312,0 -488,255 -488,557zm78 0c0,-255 143,-489 410,-489 267,0 410,234 410,489 0,254 -143,488 -410,488 -267,0 -410,-234 -410,-488z"/>
  <path id="30" class="fil3" d="M17020 12566l0 -1063 -79 0 0 1063 79 0zm0 -1264l0 -213 -79 0 0 213 79 0z"/>
  <path id="31" class="fil3" d="M17229 12213c6,248 188,378 430,378 186,0 416,-64 416,-294 0,-223 -165,-273 -377,-312 -171,-37 -353,-64 -353,-234 0,-151 161,-205 306,-205 178,0 312,79 314,271l79 0c0,-242 -168,-339 -393,-339 -180,0 -385,62 -385,273 0,218 182,265 366,302 182,38 364,64 364,244 0,185 -198,226 -337,226 -192,0 -339,-114 -352,-310l-78 0z"/>
  <path id="32" class="fil3" d="M19267 12523c-273,0 -397,-236 -397,-486 0,-257 113,-491 395,-491 273,0 395,243 395,491 0,244 -124,486 -393,486zm395 43l79 0 0 -1477 -79 0 0 652 -4 0c-56,-168 -219,-263 -393,-263 -321,0 -474,244 -474,559 0,294 139,554 459,554 191,0 321,-85 408,-252l4 0 0 227z"/>
  <path id="33" class="fil3" d="M20697 12161c0,56 -40,362 -398,362 -186,0 -279,-103 -279,-232 0,-159 105,-225 292,-246 153,-21 322,-12 385,-83l0 199zm78 -406c0,-219 -186,-277 -372,-277 -251,0 -396,118 -406,352l79 0c10,-184 136,-284 327,-284 242,0 296,162 296,209 0,174 -15,197 -367,222 -175,14 -391,66 -391,314 0,224 155,300 356,300 203,0 346,-109 395,-236l5 0 0 56c0,87 18,155 142,155 21,0 42,-4 64,-8l0 -66c-24,4 -43,6 -58,6 -70,0 -70,-66 -70,-128l0 -615z"/>
  <path id="34" class="fil3" d="M20984 12213c6,248 188,378 431,378 186,0 415,-64 415,-294 0,-223 -165,-273 -376,-312 -172,-37 -354,-64 -354,-234 0,-151 161,-205 306,-205 178,0 313,79 315,271l78 0c0,-242 -167,-339 -393,-339 -180,0 -385,62 -385,273 0,218 182,265 367,302 182,38 364,64 364,244 0,185 -199,226 -337,226 -193,0 -340,-114 -352,-310l-79 0z"/>
  <path id="35" class="fil3" d="M15813 14406c15,-304 -134,-567 -467,-567 -321,0 -474,283 -470,575 -4,294 159,538 470,538 252,0 418,-136 459,-385l-78 0c-38,197 -181,317 -381,317 -263,0 -395,-228 -391,-478l858 0zm-858 -68c16,-211 155,-431 391,-431 244,0 385,207 389,431l-780 0z"/>
  <polygon id="36" class="fil3" points="16016,13450 16016,14927 16095,14927 16095,13450 "/>
  <path id="37" class="fil3" d="M17235 14406c14,-304 -135,-567 -468,-567 -320,0 -474,283 -469,575 -5,294 159,538 469,538 253,0 418,-136 460,-385l-79 0c-37,197 -180,317 -381,317 -262,0 -395,-228 -391,-478l859 0zm-859 -68c17,-211 155,-431 391,-431 244,0 385,207 389,431l-780 0z"/>
  <path id="38" class="fil3" d="M17516 14927l0 -1063 -78 0 0 1063 78 0zm0 -1264l0 -213 -78 0 0 213 78 0z"/>
  <path id="39" class="fil3" d="M18646 14193c-23,-242 -209,-354 -439,-354 -314,0 -488,250 -488,546 0,286 132,546 451,565l-99 132 33 27c31,-14 66,-24 110,-24 37,0 101,29 101,95 0,74 -70,97 -130,97 -71,0 -120,-21 -166,-37l-23 49c35,19 100,44 186,44 125,0 212,-44 212,-153 0,-106 -77,-151 -156,-151 -33,0 -58,10 -76,18l-4 -4 80 -93c218,-12 385,-155 418,-397l-78 0c-27,194 -172,331 -371,331 -275,0 -409,-211 -409,-499 0,-242 142,-478 409,-478 193,0 346,97 360,286l79 0z"/>
  <path id="40" class="fil3" d="M18791 14396c0,302 176,556 488,556 313,0 488,-254 488,-556 0,-303 -175,-557 -488,-557 -312,0 -488,254 -488,557zm78 0c0,-255 143,-489 410,-489 267,0 410,234 410,489 0,254 -143,488 -410,488 -267,0 -410,-234 -410,-488zm172 -714c8,-54 35,-118 93,-118 50,0 98,29 145,58 44,27 93,60 143,60 54,0 89,-27 114,-60 25,-33 37,-79 43,-126l-60 0c-6,53 -35,117 -93,117 -43,0 -91,-35 -141,-62 -49,-27 -97,-55 -144,-55 -48,0 -87,22 -114,57 -25,36 -42,83 -46,129l60 0z"/>
  <path id="41" class="fil3" d="M20841 14406c15,-304 -134,-567 -467,-567 -321,0 -474,283 -470,575 -4,294 159,538 470,538 252,0 418,-136 459,-385l-79 0c-37,197 -180,317 -380,317 -263,0 -396,-228 -391,-478l858 0zm-858 -68c16,-211 155,-431 391,-431 244,0 385,207 389,431l-780 0z"/>
  <path id="42" class="fil3" d="M20984 14574c6,248 188,378 431,378 186,0 415,-64 415,-294 0,-223 -165,-273 -376,-312 -172,-37 -354,-64 -354,-234 0,-151 161,-205 306,-205 178,0 313,79 315,271l78 0c0,-242 -167,-339 -393,-339 -180,0 -385,62 -385,273 0,217 182,265 367,302 182,37 364,64 364,244 0,184 -199,226 -337,226 -193,0 -340,-114 -352,-310l-79 0z"/>
  <path id="43" class="fil4 str0" d="M9327 6367l-594 1478 97 0 189 -474 707 0 186 474 98 0 -584 -1478 -99 0zm-279 925l329 -836 4 0 316 836 -649 0z"/>
  <path id="44" class="fil4 str0" d="M10980 7110c-23,-242 -209,-354 -439,-354 -314,0 -488,251 -488,547 0,296 143,567 488,567 230,0 414,-145 449,-400l-78 0c-27,195 -172,331 -371,331 -275,0 -409,-211 -409,-498 0,-242 143,-478 409,-478 193,0 346,97 360,285l79 0z"/>
  <path id="45" class="fil4 str0" d="M11125 7313c0,302 176,557 488,557 313,0 489,-255 489,-557 0,-302 -176,-557 -489,-557 -312,0 -488,255 -488,557zm79 0c0,-254 142,-488 409,-488 267,0 410,234 410,488 0,254 -143,488 -410,488 -267,0 -409,-234 -409,-488z"/>
  <path id="46" class="fil4 str0" d="M12288 7845l78 0 0 -629c0,-273 187,-391 338,-391 68,0 250,25 250,291l0 729 79 0 0 -629c0,-255 140,-391 333,-391 62,0 254,20 254,291l0 729 79 0 0 -726c0,-251 -141,-363 -333,-363 -172,0 -275,81 -337,226l-5 0c-22,-110 -118,-226 -320,-226 -160,0 -300,108 -333,242l-5 0 0 -217 -78 0 0 1064z"/>
  <path id="47" class="fil4 str0" d="M14421 7801c-300,0 -389,-234 -389,-486 0,-252 105,-490 389,-490 286,0 399,248 399,490 0,263 -122,486 -399,486zm-391 -1020l-79 0 0 1444 79 0 0 -602 4 0c62,172 211,247 387,247 325,0 478,-232 478,-555 0,-300 -151,-559 -478,-559 -234,0 -354,164 -387,269l-4 0 0 -244z"/>
  <path id="48" class="fil4 str0" d="M15789 7439c0,56 -40,362 -398,362 -186,0 -279,-103 -279,-231 0,-160 106,-226 292,-247 153,-20 322,-12 385,-82l0 198zm78 -405c0,-220 -186,-278 -372,-278 -251,0 -395,118 -406,352l79 0c10,-184 136,-283 327,-283 242,0 296,161 296,209 0,173 -15,196 -367,221 -175,15 -391,66 -391,315 0,223 156,300 356,300 203,0 346,-110 395,-236l5 0 0 56c0,86 18,155 142,155 21,0 42,-4 65,-9l0 -66c-25,4 -44,6 -58,6 -71,0 -71,-66 -71,-128l0 -614z"/>
  <path id="49" class="fil4 str0" d="M16118 7845l78 0 0 -575c0,-261 145,-445 383,-445 290,0 302,238 302,347l0 673 79 0 0 -658c0,-131 -4,-431 -379,-431 -165,0 -327,94 -381,253l-4 0 0 -228 -78 0 0 1064z"/>
  <path id="50" class="fil4 str0" d="M17191 6367l0 1478 79 0 0 -575c0,-261 145,-445 383,-445 290,0 302,238 302,347l0 673 79 0 0 -658c0,-131 -5,-431 -379,-431 -166,0 -327,94 -381,253l-4 0 0 -642 -79 0z"/>
  <path id="51" class="fil4 str0" d="M19155 7323c14,-304 -134,-567 -468,-567 -320,0 -473,284 -469,576 -4,293 159,538 469,538 253,0 418,-137 460,-385l-79 0c-37,196 -180,316 -381,316 -262,0 -395,-227 -391,-478l859 0zm-859 -68c17,-211 156,-430 391,-430 245,0 385,207 389,430l-780 0z"/>
  <path id="52" class="fil4 str0" d="M19865 7313c0,302 176,557 488,557 312,0 488,-255 488,-557 0,-302 -176,-557 -488,-557 -312,0 -488,255 -488,557zm78 0c0,-254 143,-488 410,-488 267,0 410,234 410,488 0,254 -143,488 -410,488 -267,0 -410,-234 -410,-488z"/>
  <path id="53" class="fil4 str0" d="M20984 7491c6,248 188,379 431,379 186,0 415,-65 415,-294 0,-224 -165,-273 -376,-313 -172,-37 -354,-64 -354,-233 0,-151 161,-205 306,-205 178,0 313,78 315,271l78 0c0,-242 -167,-340 -393,-340 -180,0 -385,62 -385,274 0,217 182,264 367,302 182,37 364,64 364,244 0,184 -199,225 -337,225 -193,0 -340,-113 -352,-310l-79 0z"/>
  <path id="54" class="fil4 str0" d="M7825 10162c-300,0 -389,-234 -389,-486 0,-252 105,-490 389,-490 286,0 399,248 399,490 0,263 -122,486 -399,486zm-391 -1020l-79 0 0 1444 79 0 0 -602 4 0c62,172 211,246 387,246 325,0 478,-231 478,-554 0,-300 -151,-559 -478,-559 -234,0 -354,164 -387,269l-4 0 0 -244z"/>
  <path id="55" class="fil4 str0" d="M8437 9674c0,302 176,556 489,556 312,0 488,-254 488,-556 0,-302 -176,-557 -488,-557 -313,0 -489,255 -489,557zm79 0c0,-255 143,-488 410,-488 267,0 409,233 409,488 0,254 -142,488 -409,488 -267,0 -410,-234 -410,-488z"/>
  <polygon id="56" class="fil4 str0" points="9617,8728 9617,10206 9695,10206 9695,8728 "/>
  <path id="57" class="fil4 str0" d="M10043 10206l0 -1064 -79 0 0 1064 79 0zm-157 -1223l76 0 278 -290 -106 0 -248 290z"/>
  <path id="58" class="fil4 str0" d="M10684 9142l-231 0 0 -331 -79 0 0 331 -197 0 0 68 197 0 0 743c-8,240 147,263 308,253l0 -69c-149,4 -229,-12 -229,-184l0 -743 231 0 0 -68z"/>
  <path id="59" class="fil4 str0" d="M10926 10206l0 -1064 -78 0 0 1064 78 0zm0 -1265l0 -213 -78 0 0 213 78 0z"/>
  <path id="60" class="fil4 str0" d="M12056 9471c-23,-242 -209,-354 -439,-354 -314,0 -488,251 -488,547 0,295 143,566 488,566 230,0 414,-144 449,-399l-78 0c-27,195 -172,331 -371,331 -275,0 -409,-211 -409,-498 0,-243 143,-478 409,-478 193,0 346,97 361,285l78 0z"/>
  <path id="61" class="fil4 str0" d="M12201 9674c0,302 176,556 488,556 313,0 489,-254 489,-556 0,-302 -176,-557 -489,-557 -312,0 -488,255 -488,557zm79 0c0,-255 142,-488 409,-488 267,0 410,233 410,488 0,254 -143,488 -410,488 -267,0 -409,-234 -409,-488z"/>
  <path id="62" class="fil4 str0" d="M13320 9852c7,248 189,378 431,378 186,0 416,-64 416,-293 0,-224 -166,-273 -377,-313 -172,-37 -354,-64 -354,-234 0,-151 162,-204 306,-204 178,0 313,78 315,271l79 0c0,-242 -168,-340 -394,-340 -180,0 -384,62 -384,273 0,218 182,265 366,302 182,38 364,65 364,245 0,184 -199,225 -337,225 -193,0 -340,-114 -352,-310l-79 0z"/>
  <path id="63" class="fil4 str0" d="M15323 9142l-232 0 0 -331 -78 0 0 331 -197 0 0 68 197 0 0 743c-8,240 147,263 308,253l0 -69c-149,4 -230,-12 -230,-184l0 -743 232 0 0 -68z"/>
  <path id="64" class="fil4 str0" d="M16174 9800c0,56 -40,362 -398,362 -186,0 -279,-103 -279,-232 0,-159 105,-225 292,-246 153,-20 322,-12 385,-83l0 199zm78 -405c0,-220 -186,-278 -372,-278 -251,0 -396,118 -406,352l79 0c10,-184 136,-283 327,-283 242,0 296,161 296,209 0,173 -15,196 -367,221 -175,14 -391,66 -391,314 0,224 155,300 356,300 203,0 346,-109 395,-235l5 0 0 55c0,87 18,156 142,156 21,0 42,-5 64,-9l0 -66c-24,4 -43,6 -58,6 -70,0 -70,-66 -70,-128l0 -614z"/>
  <path id="65" class="fil4 str0" d="M16505 10206l78 0 0 -629c0,-274 186,-391 337,-391 69,0 251,24 251,291l0 729 78 0 0 -629c0,-255 141,-391 334,-391 62,0 254,20 254,291l0 729 79 0 0 -727c0,-250 -141,-362 -333,-362 -172,0 -276,81 -338,226l-4 0c-23,-110 -118,-226 -321,-226 -159,0 -300,108 -333,242l-4 0 0 -217 -78 0 0 1064z"/>
  <path id="66" class="fil4 str0" d="M18654 10162c-289,0 -405,-252 -405,-513 0,-267 128,-463 405,-463 255,0 383,227 383,463 0,244 -103,513 -383,513zm-486 44l79 0 0 -238 4 0c16,56 124,262 403,262 147,0 462,-74 462,-581 0,-296 -149,-532 -462,-532 -171,0 -343,85 -403,251l-4 0 0 -640 -79 0 0 1478z"/>
  <path id="67" class="fil4 str0" d="M20190 9684c14,-304 -135,-567 -468,-567 -321,0 -474,284 -470,575 -4,294 160,538 470,538 252,0 418,-136 459,-384l-78 0c-38,196 -180,316 -381,316 -263,0 -395,-227 -391,-478l859 0zm-859 -68c16,-211 155,-430 391,-430 244,0 385,206 389,430l-780 0zm271 -633l77 0 277 -290 -106 0 -248 290z"/>
  <path id="68" class="fil4 str0" d="M20376 10206l78 0 0 -629c0,-274 187,-391 338,-391 68,0 250,24 250,291l0 729 79 0 0 -629c0,-255 140,-391 333,-391 62,0 254,20 254,291l0 729 79 0 0 -727c0,-250 -141,-362 -333,-362 -172,0 -275,81 -337,226l-5 0c-22,-110 -118,-226 -320,-226 -160,0 -300,108 -333,242l-5 0 0 -217 -78 0 0 1064z"/>
  <path id="69" class="fil4 str0" d="M12863 12523c-273,0 -397,-236 -397,-486 0,-257 114,-491 395,-491 273,0 395,243 395,491 0,244 -124,486 -393,486zm395 43l79 0 0 -1477 -79 0 0 652 -4 0c-56,-168 -219,-263 -393,-263 -321,0 -474,244 -474,559 0,294 139,554 460,554 190,0 320,-85 407,-252l4 0 0 227z"/>
  <path id="70" class="fil4 str0" d="M14477 12045c14,-304 -135,-567 -468,-567 -320,0 -473,284 -469,575 -4,294 159,538 469,538 253,0 418,-136 460,-385l-79 0c-37,197 -180,317 -381,317 -262,0 -395,-228 -391,-478l859 0zm-859 -68c17,-211 156,-431 391,-431 244,0 385,207 389,431l-780 0z"/>
  <path id="71" class="fil4 str0" d="M15149 12523c-300,0 -389,-234 -389,-486 0,-253 106,-491 389,-491 286,0 400,249 400,491 0,263 -122,486 -400,486zm-391 -1020l-78 0 0 1444 78 0 0 -602 5 0c62,172 211,246 386,246 325,0 478,-231 478,-554 0,-300 -151,-559 -478,-559 -233,0 -353,164 -386,269l-5 0 0 -244z"/>
  <path id="72" class="fil4 str0" d="M15762 12035c0,302 176,556 488,556 313,0 488,-254 488,-556 0,-302 -175,-557 -488,-557 -312,0 -488,255 -488,557zm78 0c0,-255 143,-489 410,-489 267,0 410,234 410,489 0,254 -143,488 -410,488 -267,0 -410,-234 -410,-488z"/>
  <path id="73" class="fil4 str0" d="M17020 12566l0 -1063 -79 0 0 1063 79 0zm0 -1264l0 -213 -79 0 0 213 79 0z"/>
  <path id="74" class="fil4 str0" d="M17229 12213c6,248 188,378 430,378 186,0 416,-64 416,-294 0,-223 -165,-273 -377,-312 -171,-37 -353,-64 -353,-234 0,-151 161,-205 306,-205 178,0 312,79 314,271l79 0c0,-242 -168,-339 -393,-339 -180,0 -385,62 -385,273 0,218 182,265 366,302 182,38 364,64 364,244 0,185 -198,226 -337,226 -192,0 -339,-114 -352,-310l-78 0z"/>
  <path id="75" class="fil4 str0" d="M19267 12523c-273,0 -397,-236 -397,-486 0,-257 113,-491 395,-491 273,0 395,243 395,491 0,244 -124,486 -393,486zm395 43l79 0 0 -1477 -79 0 0 652 -4 0c-56,-168 -219,-263 -393,-263 -321,0 -474,244 -474,559 0,294 139,554 459,554 191,0 321,-85 408,-252l4 0 0 227z"/>
  <path id="76" class="fil4 str0" d="M20697 12161c0,56 -40,362 -398,362 -186,0 -279,-103 -279,-232 0,-159 105,-225 292,-246 153,-21 322,-12 385,-83l0 199zm78 -406c0,-219 -186,-277 -372,-277 -251,0 -396,118 -406,352l79 0c10,-184 136,-284 327,-284 242,0 296,162 296,209 0,174 -15,197 -367,222 -175,14 -391,66 -391,314 0,224 155,300 356,300 203,0 346,-109 395,-236l5 0 0 56c0,87 18,155 142,155 21,0 42,-4 64,-8l0 -66c-24,4 -43,6 -58,6 -70,0 -70,-66 -70,-128l0 -615z"/>
  <path id="77" class="fil4 str0" d="M20984 12213c6,248 188,378 431,378 186,0 415,-64 415,-294 0,-223 -165,-273 -376,-312 -172,-37 -354,-64 -354,-234 0,-151 161,-205 306,-205 178,0 313,79 315,271l78 0c0,-242 -167,-339 -393,-339 -180,0 -385,62 -385,273 0,218 182,265 367,302 182,38 364,64 364,244 0,185 -199,226 -337,226 -193,0 -340,-114 -352,-310l-79 0z"/>
  <path id="78" class="fil4 str0" d="M15813 14406c15,-304 -134,-567 -467,-567 -321,0 -474,283 -470,575 -4,294 159,538 470,538 252,0 418,-136 459,-385l-78 0c-38,197 -181,317 -381,317 -263,0 -395,-228 -391,-478l858 0zm-858 -68c16,-211 155,-431 391,-431 244,0 385,207 389,431l-780 0z"/>
  <polygon id="79" class="fil4 str0" points="16016,13450 16016,14927 16095,14927 16095,13450 "/>
  <path id="80" class="fil4 str0" d="M17235 14406c14,-304 -135,-567 -468,-567 -320,0 -474,283 -469,575 -5,294 159,538 469,538 253,0 418,-136 460,-385l-79 0c-37,197 -180,317 -381,317 -262,0 -395,-228 -391,-478l859 0zm-859 -68c17,-211 155,-431 391,-431 244,0 385,207 389,431l-780 0z"/>
  <path id="81" class="fil4 str0" d="M17516 14927l0 -1063 -78 0 0 1063 78 0zm0 -1264l0 -213 -78 0 0 213 78 0z"/>
  <path id="82" class="fil4 str0" d="M18646 14193c-23,-242 -209,-354 -439,-354 -314,0 -488,250 -488,546 0,286 132,546 451,565l-99 132 33 27c31,-14 66,-24 110,-24 37,0 101,29 101,95 0,74 -70,97 -130,97 -71,0 -120,-21 -166,-37l-23 49c35,19 100,44 186,44 125,0 212,-44 212,-153 0,-106 -77,-151 -156,-151 -33,0 -58,10 -76,18l-4 -4 80 -93c218,-12 385,-155 418,-397l-78 0c-27,194 -172,331 -371,331 -275,0 -409,-211 -409,-499 0,-242 142,-478 409,-478 193,0 346,97 360,286l79 0z"/>
  <path id="83" class="fil4 str0" d="M18791 14396c0,302 176,556 488,556 313,0 488,-254 488,-556 0,-303 -175,-557 -488,-557 -312,0 -488,254 -488,557zm78 0c0,-255 143,-489 410,-489 267,0 410,234 410,489 0,254 -143,488 -410,488 -267,0 -410,-234 -410,-488zm172 -714c8,-54 35,-118 93,-118 50,0 98,29 145,58 44,27 93,60 143,60 54,0 89,-27 114,-60 25,-33 37,-79 43,-126l-60 0c-6,53 -35,117 -93,117 -43,0 -91,-35 -141,-62 -49,-27 -97,-55 -144,-55 -48,0 -87,22 -114,57 -25,36 -42,83 -46,129l60 0z"/>
  <path id="84" class="fil4 str0" d="M20841 14406c15,-304 -134,-567 -467,-567 -321,0 -474,283 -470,575 -4,294 159,538 470,538 252,0 418,-136 459,-385l-79 0c-37,197 -180,317 -380,317 -263,0 -396,-228 -391,-478l858 0zm-858 -68c16,-211 155,-431 391,-431 244,0 385,207 389,431l-780 0z"/>
  <path id="85" class="fil4 str0" d="M20984 14574c6,248 188,378 431,378 186,0 415,-64 415,-294 0,-223 -165,-273 -376,-312 -172,-37 -354,-64 -354,-234 0,-151 161,-205 306,-205 178,0 313,79 315,271l78 0c0,-242 -167,-339 -393,-339 -180,0 -385,62 -385,273 0,217 182,265 367,302 182,37 364,64 364,244 0,184 -199,226 -337,226 -193,0 -340,-114 -352,-310l-79 0z"/>
  <path class="fil3" d="M26178 7358c0,227 -59,398 -178,514 -119,116 -294,174 -524,174l-323 0 0 -1350 365 0c215,0 379,57 491,169 113,113 169,277 169,493zm-103 4c0,-193 -49,-339 -147,-436 -98,-98 -242,-147 -432,-147l-249 0 0 1184 224 0c403,0 604,-200 604,-601z"/>
  <path id="1" class="fil3" d="M26870 8065c-145,0 -259,-45 -341,-135 -81,-90 -122,-216 -122,-378 0,-160 39,-288 118,-384 79,-97 185,-145 319,-145 118,0 211,41 280,124 68,81 102,193 102,334l0 74 -723 0c1,138 33,244 96,317 64,73 154,110 271,110 58,0 108,-4 151,-12 44,-8 99,-25 165,-52l0 83c-56,25 -109,42 -157,51 -48,9 -101,13 -159,13zm-26 -962c-97,0 -175,32 -233,95 -58,64 -93,157 -103,277l621 0c0,-117 -25,-208 -76,-274 -50,-66 -120,-98 -209,-98z"/>
  <path id="2" class="fil3" d="M28125 7785c0,90 -34,159 -102,208 -69,48 -166,72 -291,72 -135,0 -241,-21 -320,-62l0 -99c101,51 208,76 320,76 99,0 174,-16 226,-49 51,-33 77,-77 77,-132 0,-50 -21,-93 -62,-127 -41,-35 -108,-69 -202,-102 -100,-36 -170,-67 -211,-94 -41,-26 -71,-55 -92,-88 -21,-33 -31,-74 -31,-121 0,-75 32,-134 95,-178 63,-44 151,-66 264,-66 109,0 212,21 309,61l-34 83c-99,-40 -190,-61 -275,-61 -82,0 -147,14 -194,41 -49,27 -73,65 -73,113 0,52 19,94 56,125 38,32 110,67 219,106 90,32 156,62 197,88 42,26 73,56 93,89 21,33 31,72 31,117z"/>
  <path id="3" class="fil3" d="M28784 8065c-144,0 -256,-45 -337,-136 -81,-90 -122,-217 -122,-378 0,-167 42,-296 127,-389 84,-92 200,-139 346,-139 87,0 170,15 249,46l-25 81c-87,-29 -162,-44 -226,-44 -123,0 -216,39 -280,115 -63,75 -95,185 -95,328 0,135 32,241 95,318 64,76 152,115 266,115 91,0 176,-16 254,-49l0 85c-64,31 -148,47 -252,47z"/>
  <path id="4" class="fil3" d="M29361 7042l0 651c0,101 22,174 64,220 42,46 108,69 198,69 119,0 207,-30 263,-91 57,-60 85,-158 85,-294l0 -555 90 0 0 1004 -77 0 -17 -139 -6 0c-65,105 -181,158 -348,158 -228,0 -342,-122 -342,-367l0 -656 90 0z"/>
  <path id="5" class="fil3" d="M30820 7023c141,0 247,44 317,133 72,88 107,217 107,387 0,167 -37,296 -112,386 -75,91 -180,136 -315,136 -72,0 -136,-15 -193,-44 -57,-30 -103,-72 -136,-126l-8 0 -26 151 -57 0 0 -1437 91 0 0 362c0,54 -1,104 -3,149l-3 79 6 0c38,-61 84,-105 138,-133 54,-29 119,-43 194,-43zm-2 83c-117,0 -202,35 -253,102 -51,68 -77,180 -77,336l0 16c0,152 27,261 80,327 53,66 136,99 249,99 109,0 192,-39 247,-116 55,-76 83,-186 83,-328 0,-290 -110,-436 -329,-436z"/>
  <path id="6" class="fil3" d="M31917 7023c43,0 88,5 137,13l-18 88c-42,-10 -85,-16 -130,-16 -85,0 -156,37 -210,109 -55,73 -82,165 -82,275l0 554 -92 0 0 -1004 78 0 9 182 6 0c42,-74 85,-126 132,-156 47,-30 104,-45 170,-45z"/>
  <path id="7" class="fil3" d="M32830 8046l-23 -159 -8 0c-50,65 -102,111 -155,138 -54,27 -117,40 -189,40 -99,0 -175,-25 -230,-76 -55,-50 -82,-120 -82,-209 0,-98 41,-174 122,-229 82,-54 200,-82 354,-85l191 -6 0 -66c0,-96 -19,-168 -58,-217 -38,-48 -101,-72 -187,-72 -93,0 -190,25 -289,77l-34 -79c110,-52 219,-78 326,-78 111,0 193,29 247,86 55,57 82,146 82,268l0 667 -67 0zm-370 -64c107,0 192,-31 254,-92 62,-61 93,-146 93,-255l0 -99 -176 7c-141,7 -241,29 -301,66 -60,37 -90,96 -90,174 0,63 19,112 57,147 39,35 93,52 163,52z"/>
  <path id="8" class="fil3" d="M34543 7543c0,164 -39,292 -119,384 -79,92 -189,138 -329,138 -87,0 -165,-21 -232,-64 -67,-42 -119,-103 -154,-183 -36,-79 -54,-171 -54,-275 0,-164 40,-291 119,-383 80,-91 189,-137 327,-137 138,0 246,47 325,139 78,93 117,220 117,381zm-792 0c0,138 31,246 91,323 61,77 146,116 257,116 111,0 197,-39 257,-116 61,-77 91,-185 91,-323 0,-138 -30,-246 -92,-322 -61,-76 -147,-115 -258,-115 -110,0 -196,39 -256,115 -60,75 -90,183 -90,322z"/>
  <path id="9" class="fil3" d="M35670 8065c-132,0 -234,-44 -307,-131 -72,-88 -109,-214 -109,-379 0,-169 37,-300 109,-393 73,-92 177,-139 312,-139 145,0 254,54 326,161l5 0 17 -142 78 0 0 1458 -91 0 0 -382c0,-75 2,-151 6,-228l-6 0c-72,116 -186,175 -340,175zm1 -79c122,0 209,-34 261,-101 52,-68 78,-180 78,-339l0 -11c0,-151 -26,-260 -78,-328 -53,-67 -136,-101 -251,-101 -108,0 -190,39 -246,115 -57,77 -85,189 -85,337 0,142 28,248 83,320 55,72 134,108 238,108z"/>
  <path id="10" class="fil3" d="M36517 7042l0 651c0,101 22,174 64,220 42,46 108,69 198,69 119,0 207,-30 263,-91 57,-60 85,-158 85,-294l0 -555 90 0 0 1004 -77 0 -17 -139 -5 0c-66,105 -182,158 -349,158 -228,0 -342,-122 -342,-367l0 -656 90 0z"/>
  <path id="11" class="fil3" d="M37958 8065c-145,0 -259,-45 -341,-135 -81,-90 -122,-216 -122,-378 0,-160 39,-288 118,-384 79,-97 185,-145 319,-145 118,0 211,41 280,124 68,81 102,193 102,334l0 74 -723 0c1,138 33,244 96,317 64,73 154,110 271,110 58,0 108,-4 151,-12 44,-8 99,-25 165,-52l0 83c-56,25 -109,42 -157,51 -48,9 -100,13 -159,13zm-26 -962c-97,0 -174,32 -233,95 -58,64 -93,157 -103,277l621 0c0,-117 -25,-208 -76,-274 -50,-66 -120,-98 -209,-98z"/>
  <path id="12" class="fil3" d="M25740 10286l-23 -159 -8 0c-50,65 -102,111 -155,138 -54,27 -117,40 -189,40 -99,0 -175,-25 -230,-75 -55,-51 -82,-121 -82,-210 0,-98 40,-174 122,-228 82,-55 200,-83 354,-86l191 -6 0 -66c0,-96 -19,-168 -58,-217 -39,-48 -101,-72 -187,-72 -93,0 -190,26 -290,77l-34 -79c111,-52 220,-78 327,-78 111,0 193,29 247,86 55,57 82,146 82,268l0 667 -67 0zm-370 -64c107,0 192,-31 254,-92 62,-61 93,-146 93,-255l0 -99 -176 7c-141,7 -241,29 -301,66 -60,37 -90,96 -90,174 0,63 19,112 57,147 39,35 93,52 163,52z"/>
  <path id="13" class="fil3" d="M26532 10305c-143,0 -255,-45 -337,-136 -81,-90 -121,-216 -121,-378 0,-167 42,-296 126,-389 84,-92 200,-139 346,-139 87,0 170,16 249,46l-24 81c-87,-29 -163,-43 -227,-43 -123,0 -216,38 -279,114 -64,76 -95,185 -95,328 0,135 31,241 95,318 63,77 152,115 266,115 91,0 175,-16 253,-49l0 85c-64,31 -148,47 -252,47z"/>
  <path id="14" class="fil3" d="M27860 9783c0,164 -39,292 -119,384 -79,92 -189,138 -329,138 -88,0 -165,-21 -232,-63 -67,-43 -119,-104 -154,-184 -36,-79 -54,-171 -54,-275 0,-164 40,-291 119,-383 80,-91 188,-137 327,-137 138,0 246,47 325,139 78,93 117,220 117,381zm-792 0c0,138 31,246 91,323 61,77 146,116 257,116 111,0 197,-39 257,-116 61,-77 91,-185 91,-323 0,-138 -30,-245 -92,-322 -61,-76 -147,-114 -258,-114 -110,0 -196,38 -256,114 -60,76 -90,183 -90,322z"/>
  <path id="15" class="fil3" d="M28838 10286l0 -650c0,-101 -21,-175 -64,-221 -42,-45 -108,-68 -197,-68 -120,0 -208,30 -264,91 -55,60 -83,158 -83,294l0 554 -92 0 0 -1004 78 0 17 138 6 0c65,-104 181,-157 348,-157 228,0 342,123 342,367l0 656 -91 0z"/>
  <path id="16" class="fil3" d="M29518 10226c58,0 109,-5 152,-15l0 72c-45,15 -96,22 -154,22 -88,0 -153,-24 -196,-71 -42,-47 -63,-122 -63,-224l0 -648 -149 0 0 -54 149 -41 46 -227 47 0 0 242 295 0 0 80 -295 0 0 637c0,77 14,134 41,171 27,37 70,56 127,56z"/>
  <path id="17" class="fil3" d="M30292 10305c-146,0 -259,-45 -341,-135 -82,-89 -122,-216 -122,-378 0,-160 39,-288 118,-384 79,-96 185,-145 319,-145 118,0 211,41 279,124 69,82 103,193 103,334l0 74 -723 0c1,138 33,244 96,317 63,73 154,110 271,110 58,0 108,-4 151,-12 44,-8 99,-25 165,-52l0 84c-57,24 -109,41 -157,50 -48,9 -101,13 -159,13zm-26 -962c-97,0 -175,32 -233,96 -59,64 -93,156 -103,276l621 0c0,-117 -26,-208 -76,-274 -50,-65 -120,-98 -209,-98z"/>
  <path id="18" class="fil3" d="M31325 10305c-143,0 -256,-45 -337,-136 -81,-90 -122,-216 -122,-378 0,-167 42,-296 127,-389 84,-92 200,-139 346,-139 87,0 170,16 249,46l-25 81c-86,-29 -162,-43 -226,-43 -123,0 -216,38 -280,114 -63,76 -95,185 -95,328 0,135 32,241 95,318 64,77 152,115 266,115 91,0 176,-16 254,-49l0 85c-64,31 -148,47 -252,47z"/>
  <path id="19" class="fil3" d="M32228 10305c-146,0 -259,-45 -341,-135 -81,-89 -122,-216 -122,-378 0,-160 39,-288 118,-384 79,-96 185,-145 319,-145 118,0 211,41 279,124 69,82 103,193 103,334l0 74 -723 0c1,138 33,244 96,317 63,73 154,110 271,110 58,0 108,-4 151,-12 44,-8 99,-25 165,-52l0 84c-57,24 -109,41 -157,50 -48,9 -101,13 -159,13zm-26 -962c-97,0 -175,32 -233,96 -59,64 -93,156 -103,276l621 0c0,-117 -25,-208 -76,-274 -50,-65 -120,-98 -209,-98z"/>
  <path id="20" class="fil3" d="M33752 10305c-143,0 -255,-45 -337,-136 -81,-90 -121,-216 -121,-378 0,-167 42,-296 126,-389 84,-92 200,-139 346,-139 87,0 170,16 249,46l-24 81c-87,-29 -163,-43 -227,-43 -123,0 -216,38 -279,114 -64,76 -95,185 -95,328 0,135 31,241 95,318 63,77 152,115 266,115 91,0 175,-16 253,-49l0 85c-64,31 -148,47 -252,47z"/>
  <path id="21" class="fil3" d="M35080 9783c0,164 -39,292 -119,384 -79,92 -189,138 -329,138 -88,0 -165,-21 -232,-63 -67,-43 -119,-104 -154,-184 -36,-79 -54,-171 -54,-275 0,-164 40,-291 119,-383 80,-91 188,-137 327,-137 138,0 246,47 325,139 78,93 117,220 117,381zm-792 0c0,138 31,246 91,323 61,77 146,116 257,116 111,0 197,-39 257,-116 61,-77 91,-185 91,-323 0,-138 -31,-245 -92,-322 -61,-76 -147,-114 -258,-114 -110,0 -196,38 -256,114 -60,76 -90,183 -90,322z"/>
  <path id="22" class="fil3" d="M36612 10286l0 -658c0,-98 -19,-169 -57,-214 -38,-45 -97,-67 -176,-67 -102,0 -178,28 -228,84 -49,57 -73,146 -73,267l0 588 -94 0 0 -685c0,-170 -77,-254 -232,-254 -106,0 -182,30 -230,91 -48,62 -72,160 -72,294l0 554 -92 0 0 -1004 76 0 19 138 6 0c28,-49 67,-88 118,-116 51,-27 108,-41 169,-41 158,0 260,60 305,178l4 0c32,-57 76,-101 131,-132 55,-30 118,-46 188,-46 109,0 192,30 247,88 54,59 82,152 82,279l0 656 -91 0z"/>
  <path id="23" class="fil3" d="M38349 9783c0,164 -40,292 -119,384 -80,92 -189,138 -329,138 -88,0 -166,-21 -233,-63 -67,-43 -118,-104 -154,-184 -36,-79 -53,-171 -53,-275 0,-164 39,-291 119,-383 79,-91 188,-137 327,-137 137,0 246,47 324,139 79,93 118,220 118,381zm-793 0c0,138 31,246 92,323 60,77 146,116 257,116 111,0 196,-39 257,-116 60,-77 91,-185 91,-323 0,-138 -31,-245 -92,-322 -61,-76 -147,-114 -258,-114 -111,0 -196,38 -256,114 -60,76 -91,183 -91,322z"/>
  <path id="24" class="fil3" d="M25497 11503c73,0 136,14 189,40 53,27 100,72 142,136l5 0c-3,-78 -5,-154 -5,-228l0 -362 90 0 0 1437 -60 0 -23 -153 -7 0c-77,115 -186,172 -329,172 -138,0 -244,-43 -317,-129 -73,-86 -110,-212 -110,-377 0,-173 36,-306 109,-398 72,-92 178,-138 316,-138zm0 84c-109,0 -191,38 -247,115 -54,78 -82,189 -82,336 0,285 110,428 331,428 114,0 196,-33 249,-99 53,-66 80,-175 80,-327l0 -16c0,-155 -26,-267 -78,-335 -52,-68 -136,-102 -253,-102z"/>
  <path id="25" class="fil3" d="M26347 12526l-92 0 0 -1004 92 0 0 1004zm-105 -1282c0,-59 20,-88 59,-88 19,0 33,7 44,23 11,15 16,37 16,65 0,28 -5,49 -16,65 -11,16 -25,24 -44,24 -39,0 -59,-30 -59,-89z"/>
  <path id="26" class="fil3" d="M27383 12526l0 -650c0,-101 -22,-175 -64,-221 -42,-45 -108,-68 -198,-68 -120,0 -208,30 -263,91 -56,60 -84,159 -84,294l0 554 -91 0 0 -1004 77 0 18 138 5 0c66,-104 182,-157 349,-157 227,0 341,123 341,367l0 656 -90 0z"/>
  <path id="27" class="fil3" d="M28498 12526l0 -650c0,-101 -21,-175 -64,-221 -42,-45 -108,-68 -198,-68 -120,0 -208,30 -263,91 -56,60 -84,159 -84,294l0 554 -91 0 0 -1437 91 0 0 458 -4 128 6 0c38,-60 85,-104 142,-131 58,-27 129,-41 214,-41 227,0 341,123 341,367l0 656 -90 0z"/>
  <path id="28" class="fil3" d="M29318 12545c-145,0 -259,-45 -341,-135 -81,-89 -122,-216 -122,-378 0,-160 39,-288 118,-384 79,-96 185,-145 319,-145 118,0 211,41 280,124 68,82 102,193 102,334l0 74 -723 0c1,138 33,244 96,317 64,74 154,110 271,110 58,0 108,-4 152,-12 43,-8 98,-25 164,-52l0 84c-56,24 -109,41 -157,50 -48,9 -100,13 -159,13zm-26 -962c-97,0 -174,32 -233,96 -58,64 -93,156 -103,276l621 0c0,-117 -25,-208 -76,-274 -50,-65 -120,-98 -209,-98z"/>
  <path id="29" class="fil3" d="M30042 12526l-91 0 0 -1004 91 0 0 1004zm-104 -1282c0,-59 19,-88 58,-88 19,0 34,7 45,23 11,15 16,37 16,65 0,28 -5,49 -16,65 -11,16 -26,24 -45,24 -39,0 -58,-30 -58,-89z"/>
  <path id="30" class="fil3" d="M30773 11503c42,0 88,5 137,13l-18 88c-42,-10 -85,-15 -130,-15 -86,0 -156,36 -210,109 -55,72 -83,164 -83,275l0 553 -91 0 0 -1004 78 0 9 182 6 0c42,-74 85,-126 132,-156 47,-30 104,-45 170,-45z"/>
  <path id="31" class="fil3" d="M31906 12023c0,164 -40,292 -119,384 -79,92 -189,138 -329,138 -88,0 -165,-21 -232,-63 -67,-43 -119,-104 -154,-183 -36,-80 -54,-172 -54,-276 0,-163 40,-291 119,-382 80,-92 188,-138 327,-138 138,0 246,47 325,139 78,93 117,220 117,381zm-792 0c0,138 30,246 91,323 60,77 146,116 257,116 111,0 197,-39 257,-116 61,-77 91,-185 91,-323 0,-138 -31,-245 -92,-322 -61,-76 -147,-114 -258,-114 -111,0 -196,38 -256,114 -60,76 -90,183 -90,322z"/>
  <path id="32" class="fil3" d="M33043 11503c72,0 135,14 188,40 53,27 100,72 142,136l6 0c-4,-78 -6,-154 -6,-228l0 -362 90 0 0 1437 -59 0 -24 -153 -7 0c-76,115 -186,172 -329,172 -138,0 -244,-43 -317,-129 -73,-86 -110,-212 -110,-377 0,-173 37,-306 109,-398 72,-92 178,-138 317,-138zm0 84c-110,0 -192,38 -247,115 -55,78 -83,189 -83,336 0,285 111,428 331,428 114,0 197,-33 250,-99 52,-66 79,-175 79,-327l0 -16c0,-155 -26,-267 -78,-335 -52,-68 -136,-102 -252,-102z"/>
  <path id="33" class="fil3" d="M34631 12023c0,164 -40,292 -120,384 -79,92 -188,138 -328,138 -88,0 -166,-21 -233,-63 -67,-43 -118,-104 -154,-183 -36,-80 -53,-172 -53,-276 0,-163 39,-291 119,-382 79,-92 188,-138 326,-138 138,0 247,47 325,139 79,93 118,220 118,381zm-793 0c0,138 31,246 91,323 61,77 147,116 258,116 110,0 196,-39 257,-116 60,-77 91,-185 91,-323 0,-138 -31,-245 -92,-322 -61,-76 -147,-114 -258,-114 -111,0 -196,38 -257,114 -59,76 -90,183 -90,322z"/>
  <path id="34" class="fil3" d="M35531 12265c0,90 -34,160 -103,208 -68,48 -165,72 -290,72 -135,0 -241,-21 -320,-62l0 -99c101,51 208,76 320,76 99,0 174,-16 226,-49 51,-33 77,-77 77,-132 0,-50 -21,-93 -62,-127 -41,-35 -108,-68 -202,-102 -100,-36 -170,-67 -211,-93 -41,-27 -71,-56 -92,-89 -21,-33 -31,-73 -31,-121 0,-75 31,-134 95,-178 63,-44 151,-66 264,-66 109,0 212,21 309,62l-34 82c-99,-40 -190,-60 -275,-60 -82,0 -147,13 -195,40 -48,27 -72,65 -72,113 0,52 19,94 56,126 38,31 110,66 219,105 90,33 156,62 197,88 42,26 73,56 93,89 21,33 31,72 31,117z"/>
  <path id="35" class="fil3" d="M25830 14766l0 -650c0,-101 -21,-175 -64,-221 -42,-45 -108,-68 -197,-68 -120,0 -208,30 -264,91 -56,60 -84,159 -84,294l0 554 -91 0 0 -1004 78 0 17 138 6 0c65,-104 181,-156 348,-156 228,0 342,122 342,366l0 656 -91 0z"/>
  <path id="36" class="fil3" d="M27075 14263c0,164 -39,292 -119,384 -79,92 -189,138 -329,138 -88,0 -165,-21 -232,-63 -67,-43 -119,-104 -154,-183 -36,-80 -54,-172 -54,-276 0,-163 40,-291 119,-382 80,-92 189,-137 327,-137 138,0 246,46 325,139 78,92 117,219 117,380zm-792 0c0,138 31,246 91,323 61,77 146,116 257,116 111,0 197,-39 257,-116 61,-77 91,-185 91,-323 0,-138 -30,-245 -92,-322 -61,-76 -147,-114 -258,-114 -110,0 -196,38 -256,114 -60,76 -90,184 -90,322z"/>
  <path id="37" class="fil3" d="M27976 14505c0,90 -34,160 -103,208 -68,48 -165,72 -291,72 -134,0 -240,-21 -319,-62l0 -98c101,50 207,75 319,75 100,0 175,-16 226,-49 52,-33 77,-77 77,-132 0,-50 -20,-93 -61,-127 -41,-35 -108,-68 -202,-102 -100,-36 -171,-67 -211,-93 -41,-27 -72,-56 -92,-89 -21,-33 -31,-73 -31,-121 0,-75 31,-134 95,-178 63,-44 151,-65 264,-65 108,0 211,20 308,61l-34 83c-98,-41 -190,-61 -274,-61 -82,0 -147,13 -195,40 -48,27 -72,65 -72,113 0,52 19,94 56,126 37,31 110,66 218,105 91,33 157,62 198,88 41,26 72,56 93,89 20,33 31,72 31,117z"/>
  <path id="38" class="fil3" d="M28857 14505c0,90 -35,160 -103,208 -68,48 -165,72 -291,72 -134,0 -241,-21 -320,-62l0 -98c102,50 208,75 320,75 99,0 175,-16 226,-49 51,-33 77,-77 77,-132 0,-50 -20,-93 -61,-127 -41,-35 -109,-68 -202,-102 -101,-36 -171,-67 -212,-93 -40,-27 -71,-56 -91,-89 -21,-33 -32,-73 -32,-121 0,-75 32,-134 95,-178 63,-44 151,-65 265,-65 108,0 211,20 308,61l-34 83c-99,-41 -190,-61 -274,-61 -82,0 -147,13 -195,40 -48,27 -72,65 -72,113 0,52 18,94 56,126 37,31 110,66 218,105 91,33 156,62 198,88 41,26 72,56 93,89 20,33 31,72 31,117z"/>
  <path id="39" class="fil3" d="M29945 14263c0,164 -40,292 -119,384 -80,92 -189,138 -329,138 -88,0 -166,-21 -233,-63 -67,-43 -118,-104 -154,-183 -36,-80 -53,-172 -53,-276 0,-163 39,-291 119,-382 79,-92 188,-137 327,-137 137,0 246,46 324,139 79,92 118,219 118,380zm-793 0c0,138 31,246 92,323 60,77 146,116 257,116 111,0 196,-39 257,-116 60,-77 91,-185 91,-323 0,-138 -31,-245 -92,-322 -61,-76 -147,-114 -258,-114 -111,0 -196,38 -256,114 -60,76 -91,184 -91,322z"/>
  <path id="40" class="fil3" d="M30845 14505c0,90 -34,160 -102,208 -69,48 -166,72 -291,72 -135,0 -241,-21 -320,-62l0 -98c101,50 208,75 320,75 99,0 174,-16 226,-49 51,-33 77,-77 77,-132 0,-50 -21,-93 -62,-127 -41,-35 -108,-68 -202,-102 -100,-36 -170,-67 -211,-93 -41,-27 -71,-56 -92,-89 -21,-33 -31,-73 -31,-121 0,-75 32,-134 95,-178 63,-44 151,-65 264,-65 109,0 212,20 309,61l-34 83c-99,-41 -190,-61 -275,-61 -82,0 -147,13 -194,40 -49,27 -73,65 -73,113 0,52 19,94 57,126 37,31 109,66 218,105 90,33 156,62 197,88 42,26 73,56 93,89 21,33 31,72 31,117z"/>
  <path id="41" class="fil3" d="M31686 14766l-91 0 0 -1004 91 0 0 1004zm-104 -1282c0,-59 19,-88 58,-88 19,0 34,7 45,23 11,15 16,37 16,65 0,28 -5,49 -16,65 -11,16 -26,24 -45,24 -39,0 -58,-30 -58,-89z"/>
  <path id="42" class="fil3" d="M33276 14766l0 -658c0,-98 -19,-169 -57,-214 -38,-45 -97,-67 -176,-67 -102,0 -178,28 -228,84 -49,57 -74,146 -74,267l0 588 -93 0 0 -685c0,-170 -77,-254 -232,-254 -106,0 -183,30 -231,91 -47,62 -72,160 -72,294l0 554 -91 0 0 -1004 76 0 19 138 6 0c28,-49 67,-88 118,-116 51,-27 107,-40 169,-40 158,0 260,59 305,178l3 0c33,-57 77,-102 132,-132 55,-31 118,-46 188,-46 109,0 191,29 246,87 55,59 83,152 83,279l0 656 -91 0z"/>
  <path id="43" class="fil3" d="M34120 14785c-154,0 -267,-58 -337,-173l-7 0 3 77c2,46 4,95 4,150l0 381 -92 0 0 -1458 78 0 17 144 6 0c69,-108 179,-162 330,-162 135,0 239,44 310,133 71,89 107,219 107,388 0,166 -38,293 -113,384 -75,91 -176,136 -306,136zm-2 -79c103,0 183,-38 239,-115 56,-76 84,-184 84,-321 0,-296 -106,-443 -319,-443 -117,0 -203,32 -257,96 -55,65 -82,170 -82,316l0 29c0,157 26,270 78,337 53,67 139,101 257,101z"/>
  <path id="44" class="fil3" d="M35646 14263c0,164 -39,292 -119,384 -79,92 -188,138 -328,138 -88,0 -166,-21 -233,-63 -67,-43 -118,-104 -154,-183 -36,-80 -54,-172 -54,-276 0,-163 40,-291 120,-382 79,-92 188,-137 326,-137 138,0 246,46 325,139 78,92 117,219 117,380zm-792 0c0,138 31,246 91,323 61,77 147,116 257,116 111,0 197,-39 258,-116 60,-77 91,-185 91,-323 0,-138 -31,-245 -92,-322 -61,-76 -147,-114 -258,-114 -111,0 -196,38 -257,114 -60,76 -90,184 -90,322z"/>
  <path id="45" class="fil3" d="M36547 14505c0,90 -34,160 -103,208 -68,48 -165,72 -290,72 -135,0 -241,-21 -320,-62l0 -98c101,50 208,75 320,75 99,0 174,-16 225,-49 52,-33 78,-77 78,-132 0,-50 -21,-93 -62,-127 -41,-35 -108,-68 -202,-102 -100,-36 -171,-67 -211,-93 -41,-27 -71,-56 -92,-89 -21,-33 -31,-73 -31,-121 0,-75 31,-134 95,-178 63,-44 151,-65 264,-65 109,0 212,20 309,61l-34 83c-99,-41 -190,-61 -275,-61 -82,0 -147,13 -195,40 -48,27 -72,65 -72,113 0,52 19,94 56,126 37,31 110,66 219,105 90,33 156,62 197,88 41,26 72,56 93,89 21,33 31,72 31,117z"/>
  <path id="46" class="fil3" d="M37070 14706c58,0 109,-5 152,-15l0 73c-45,14 -96,21 -154,21 -88,0 -154,-23 -196,-71 -42,-47 -63,-122 -63,-223l0 -649 -149 0 0 -54 149 -41 46 -227 47 0 0 242 295 0 0 80 -295 0 0 637c0,77 14,134 41,171 27,37 69,56 127,56z"/>
  <path id="47" class="fil3" d="M38269 14263c0,164 -40,292 -120,384 -79,92 -188,138 -328,138 -88,0 -166,-21 -233,-63 -67,-43 -118,-104 -154,-183 -36,-80 -53,-172 -53,-276 0,-163 39,-291 119,-382 79,-92 188,-137 326,-137 138,0 247,46 325,139 79,92 118,219 118,380zm-793 0c0,138 31,246 91,323 61,77 147,116 258,116 111,0 196,-39 257,-116 60,-77 91,-185 91,-323 0,-138 -31,-245 -92,-322 -61,-76 -147,-114 -258,-114 -111,0 -196,38 -256,114 -60,76 -91,184 -91,322z"/>
  <path id="48" class="fil3" d="M39169 14505c0,90 -34,160 -103,208 -68,48 -165,72 -290,72 -135,0 -241,-21 -320,-62l0 -98c101,50 208,75 320,75 99,0 174,-16 226,-49 51,-33 77,-77 77,-132 0,-50 -21,-93 -62,-127 -41,-35 -108,-68 -202,-102 -100,-36 -170,-67 -211,-93 -41,-27 -71,-56 -92,-89 -21,-33 -31,-73 -31,-121 0,-75 32,-134 95,-178 63,-44 151,-65 264,-65 109,0 212,20 309,61l-34 83c-99,-41 -190,-61 -275,-61 -82,0 -147,13 -194,40 -49,27 -73,65 -73,113 0,52 19,94 56,126 38,31 110,66 219,105 90,33 156,62 197,88 42,26 73,56 93,89 21,33 31,72 31,117z"/>
  <g id="_1144938752">
   <g>
    <path class="fil5 str1" d="M55067 4849l32 -42 57 -35 20 19 -24 53 -61 11 -24 -6zm-75 -4l0 0 32 -7 13 -30 93 -88 43 -3 72 -73 -18 -30 -30 8 -37 -5 -40 16 -78 79 -50 133zm360 -291l0 0 -10 -34 -50 -25 -9 48 24 36 42 14 3 -39zm3 -84l0 0 -14 -73 47 -53 42 -20 56 -41 37 6 -35 58 -47 15 -41 62 -45 46zm29 56l0 0 37 21 102 5 31 19 54 -25 18 -52 -46 -38 -118 29 -61 5 -17 36zm231 101l0 0 63 -25 19 -36 57 -3 46 36 -31 47 -93 5 -61 -24zm-248 -865l0 0 -40 -63 -32 -105 12 -29 56 39 59 108 -10 57c0,0 -38,-7 -45,-7zm-357 -825l0 0 -34 -33 -13 -81 -49 -99 -21 11 5 66 -34 50 -96 62 1 -2 -5 5 -32 48 -104 125 -109 138 -2 74 -82 172 -69 108 -52 100 -72 11 -44 31 -17 67 -74 53 -49 -17 -2 -109 -30 -14 -10 -34 -46 -6 -59 22 -46 49 -71 -13 -56 -65 2 -40 -23 -20 -25 -68 -14 -39 -57 -13 -80 -77 -107 -6 -80 35 -173 5 -92 -25 -82 53 -14 75 75 76 19 48 38 91 -15 31 -71 2 -104 -31 -26 -19 -34 -2 -7 -2 2 2 -135 -2 -75 11 -32 -36 -123 4 -87 35 -49 131 -171 -8 -87 25 -12 39 -58 68 -96 8 -11 -27 -57 14 -52 65 -65 -27 -163 -143 -59 -75 -2 -60 -89 -91 -73 -78 -9 -84 19 -56 -20 -42 13 -75 30 -59 -5 -90 83 -139 28 -114 76 -91 -2 -45 -78 5 -38 -60 -27 -60 -86 5 -72 -37 37 -50 52 -80 1 -111 -68 -87 -92 -10 -46 29 -32 -36 -41 -6 7 86 -40 98 -217 150 -135 10 -186 75 -69 -33 -116 10 -136 118 -133 43 -44 -30 -186 22 -143 7 -128 -74 -128 -22 -120 -38 53 103 86 34 89 85 29 77 -119 178 44 84 -29 137 191 66 132 -14 131 28 5 84 -96 44 -195 36 -70 74 -40 107 -214 108 -69 80 -144 91 -99 116 -170 7 -95 -15 -163 -129 -159 -111 -109 12 5 -114 -15 -92 -68 -84 -23 -64 -113 28 -82 89 -54 8 -45 -42 -80 -1 -52 56 -469 -3 -29 134 38 99 158 44 58 111 -45 50 47 52 -22 68 -98 -67 -279 93 9 227 71 93 154 122 99 180 -7 140 -4 62 -244 862 -72 228 9 42 -37 59 -89 -25 9 -27 -92 -61 -33 9 -81 -1 -35 -15 -31 65 -285 89 -213 42 -54 53 -48 14 -88 86 -99 44 -76 47 11 107 -43 62 17 66 -115 112 38 144 37 75 -69 65 -60 -12 -117 73 -7 83 -43 45 27 57 -17 92 -33 77 29 69 -22 63 112 115 199 330 -106 131 258 -18 122 22 88 133 25 116 179 9 211 17 177 -158 149 -84 41 45 -20 91 -30 32 -5 148 19 244 4 98 50 48 83 -12 79 -22 90 -5 46 -5 41 20 11 5 0 0 264 3 120 7 120 -64 66 1 91 -71 102 1 120 -34 74 -185 199 -123 138 -22 133 -64 89 1 84 61 96 -59 48 43 -14 95 47 150 -68 119 52 192 -37 83 70 157 95 43 29 126 95 49 131 85 88 85 37 -41 174 -40 142 145 108 -28 148 163 66 -5 179 62 113 43 23 120 83 25 107 61 240 -21 167 98 35 72 -27 191 34 156 -49 95 153 265 -15 191 731 21 33 264 -14 167 215 51 211 385 9 203 -208 405 11 60 -57 76 37 43 -25 89 101 80 5 125 82 126 -45 251 23 102 -31 90 28 90 156 -10 66 31 192 -10 119 43 193 -75 100 73 78 24 29 97 99 451 70 159 74 22 166 -87 92 37 62 57 60 13 -41 66 -15 390 -18 45 -11 15 -1 52 -11 43 -4 50 72 -46 192 29 5 84 75 177 -8 140 16 162 13 149 -24 59 -84 -4 -102 53 -15 33 -61 49 -27 -15 -171 111 -34 54 -66 17 -157 126 -51 18 -7 101 -58 17 -50 -9 -134 159 -24 63 1 92 -60 18 -33 50 -86 151 -60 62 -70 113 -1 39 -78 53 -12 36 62 3 45 25 210 -61 86 58 94 133 83 37 49 114 97 162 48 1 82 -86 42 6 94 157 113 52 98 22 94 97 5 113 81 -16 161 73 94 121 100 153 91 67 -19 117 -79 106 37 126 15 31 11 20 48 65 23 20 158 -128 56 -125 72 -288 65 -197 28 -38 -36 -45 -58 -100 30 -83 61 -29 3 -54 70 -77 1 -59 41 33 57 10 70 -80 10 -83 27 -27 7 -95 30 -39 42 0 31 -80 -20 -60 -44 -48 7 -125 -35 -34 41 13 47 99 98 109 38 0 43 -23 26 27 8 72 -33 8 -40 143 -98 163 -87 2 -13 105 -31 56 -26 -9 -88 46 -63 53 -7 45 -69 11 -33 33 3 44 80 25 266 -203 136 -150 198 -329 77 -167 77 -214 193 -356 188 -218 31 -66 -18 -24 10 -56 39 -12 31 -92 54 -32 -17 -75 19 -54 -18 -24 -32 -27 7 -84 -79 -114 0 -51 16 -50 -15 -54 -25 -120 -40 -126 33 -29 105 -20 -26 -69 -51 -30 99 -23 4 -81 -101 -46 84 -23 55 -77 41 34 133 -121 79 -50 -3 -42 112 -94 130 -82 172 -192 150 -16 82 -77 90 -70 84 1 54 45 62 16 4 -60 64 -109 178 -109 69 -20 0 -33 -42 -27 -56 -13 -27 -51 64 -14 108 -64 62 18 71 -5 51 -40 71 6 -5 33 -101 55 -106 20 -21 24 35 27 160 -58 195 -74 -17 -31 52 -43 48 8 -17 46c0,0 4,69 11,72 7,3 121,20 121,20l68 -37 114 2 138 16 84 -56 2 -42 -21 -21 13 -42 189 -125 157 -53 82 -49 25 -50 -23 -32 -66 -158 52 -108 59 -70 4 -80 40 -33 69 -47 16 -83 -21 -12 119 -187 161 -183 4 -83 -30 -264 -26 -51 53 -158 42 -61 10 -54 124 -97 18 -48 -31 -154 69 -184 -17 -144 26 -107 -6 -60 38 -155 -35 -563 0 -104 34 -78 2 -74 -36 38 -66 -49 1 -47 61 -92 -14 -93 16 -63 54 -14 13 -98 -56 -93 -110 -52 30 -12 16 -36 20 45 65 40 60 22 25 -90 57 4 23 51 41 21 -45 62 -60 44 -16 51 42 4 82 -74 111 -55 143 -213 65 -158 22 -95 54 -47 56 -143 61 -122 220 -146 28 -72 66 -20 49 -77 187 -165 167 -219 43 -59 104 -223 29 -98 51 -71 1 -72 -53 -81 22 -83 49 -44 -10 -205 -48 -31 -16 -102 -140 -318 1 -108 -22 -131 -268 -124 -156 4 -114 47 -77 -109 -90 -19 -88 -103 -119 -61 -84 -13 -183 -199 -147 -211 -72 -19 -101 -97 -90 5 -249 -183 -114 -1 -125 -56 -78 41 -120 -1 -71 -37 -79 35 -36 54 -48 -49 -112 -85 -19 35 -47 -42 -19 53 0 43 -66 -55 -11 -42 -49 -15 14 42 -24 16 -122 -49 -41 7 -103 -21 -226 -110 -87 4 -5 26 17 46 -19 23 -48 -26 -21 11 -14 35 -80 36 -29 42 -13 97 -40 -72 -24 -63 -42 17 5 78 -70 130 -2 111 -22 -105 28 -104 -14 -93 44 -134 36 -32 -29 -27 -66 -4 88 -98 -113 -123 -64 -106 -63 5 -92 -16 -55 68 -54 27 -26 -64 -39 -24 -17 -60 -48 -39 -65 5 -33 -42 -56 -22 -34 42 1 -36 -45 -27 -29 -61 -51 20 -92 -27 -122 -74 -36 -6 -21 36 -74 -52 -54 5 -13 51 -36 2 -20 -56 -96 -5 -81 44 -46 80 6 48 -91 88 -117 68 -151 84 -73 89 -46 116 -20 113 -39 59 -69 71 4 50 13 85 -17 156 -26 -95 -56 -93 4 -69 58 -71 68 -55 -9 -114 35 -95 -7 -51 -49 -2 -98 33 -106 -33 -93 5 -75 18 -52 -45 60 8 71 -52 74 -15 124 24 70 -16 67 -82 30 -1 39 31 42 -13 72 -41 122 -41 1 -95 110 -125 1 -89 43 -59 6 -72 -113 -26 -89 -72 -84 -1 -121 70 -102 5 -142 -62 -156 -14 -115 119 5 47 37 29 23 40 -54 6 -33 17 -31 72 -20 -64 -39 -15 -90 35 -97 133 -130 145 97 -133 -2 -87 21 -48 10 -59 -42 -1 -84 68 -43 95 -44 107 -69 44 67 -125 14 -98 148 -180 38 -123 55 -73 81 -44 87 -62 64 -26 79 -115 196 -195 13 -48 39 -29 -41 -54 16 -57 27 -23 4 -81 -77 -58 -87 5 -27 30 -38 -67 -52 -156 -90 -231 -83 -120 -57 -159 4 -86 -20 -87z"/>
   </g>
   <g>
    <path class="fil3 str1" d="M50773 5108l-201 -38 -3 -9c-1,-2 -103,-256 -133,-445 -31,-190 -212,-720 -333,-840 -121,-119 -265,-140 -266,-140l4 -32c6,1 156,22 285,149 128,126 310,659 342,857 27,167 111,386 128,431l154 29c17,-58 82,-248 167,-272 17,-5 44,-6 72,20 91,85 175,131 215,118 5,-2 21,-7 28,-40 22,-114 68,-271 222,-335 145,-60 440,-69 452,-69l1 32c-3,0 -301,10 -441,68 -139,57 -182,204 -202,310 -8,43 -32,59 -50,65 -75,25 -198,-79 -248,-125 -18,-17 -32,-15 -40,-13 -66,19 -130,197 -149,265l-4 14z"/>
   </g>
   <g>
    <path class="fil3 str1" d="M48966 8701l-6 -32c24,-5 239,-44 288,-34 44,8 160,-48 170,-101 14,-72 233,-63 306,-58 18,-6 139,-59 228,-293 43,-111 132,-178 253,-188 129,-10 266,49 319,140 81,138 398,73 401,72 13,-1 994,-28 1159,-29 111,-1 174,-376 188,-613l0 -7 6 -5c0,0 33,-27 34,-69 1,-30 -16,-61 -49,-92 -120,-111 133,-570 162,-622 232,-430 470,-914 454,-966 -20,-40 11,-115 43,-195 26,-65 63,-155 36,-166 -44,-18 -215,-118 -412,-234 -151,-89 -323,-190 -461,-268 -322,-180 -229,-918 -224,-949l32 4c-1,8 -95,747 208,917 139,78 311,179 462,268 196,115 365,214 408,231 56,24 20,114 -19,210 -25,63 -57,141 -44,168 37,76 -338,781 -454,996 -76,135 -254,503 -169,582 41,38 61,77 59,118 -1,44 -28,76 -40,88 -6,90 -47,635 -219,637 -165,1 -1146,28 -1156,28 -11,3 -340,71 -433,-88 -46,-79 -173,-133 -289,-123 -62,5 -173,34 -224,167 -102,269 -247,312 -253,314l-5 0c-126,-9 -269,2 -275,31 -15,77 -155,137 -208,127 -33,-6 -183,17 -276,34z"/>
   </g>
   <g>
    <path class="fil3 str2" d="M51023 10351l-16 -29c8,-4 202,-110 304,-108 94,3 158,0 199,-53 42,-55 161,-331 163,-425 3,-114 -22,-182 -81,-220 -56,-35 -28,-91 -1,-145 19,-38 40,-80 42,-124 2,-47 -63,-55 -163,-62 -66,-5 -135,-10 -175,-38 -31,-22 -71,-12 -113,-1 -57,16 -128,35 -166,-59 -57,-140 -102,-834 -104,-863l33 -2c0,7 46,717 101,853 26,63 64,57 128,40 45,-12 96,-26 140,5 32,23 97,28 159,32 96,7 196,14 193,96 -3,51 -25,97 -46,137 -30,61 -39,86 -11,103 90,58 99,163 97,248 -3,105 -124,384 -170,445 -50,65 -125,69 -225,66 -94,-2 -286,103 -288,104z"/>
   </g>
   <g>
    <path class="fil3 str2" d="M52933 8335c-69,-13 -123,-27 -154,-42 -248,-115 -496,-696 -506,-721l30 -12c3,6 253,594 489,704 240,110 1827,184 1843,185l1006 57 -2 33 -1006 -57c-57,-3 -1234,-58 -1700,-147z"/>
   </g>
   <g>
    <path class="fil3 str1" d="M54796 4966l-225 -153c-5,-8 -133,-197 -129,-309 2,-37 -23,-50 -62,-66 -40,-18 -96,-41 -71,-122 32,-105 -106,-269 -234,-379 -98,-84 -344,-265 -346,-267l19 -27c2,2 249,184 349,269 49,42 291,259 244,413 -16,51 5,63 52,82 37,16 84,36 82,98 -4,95 106,264 121,287l219 147 -19 27z"/>
   </g>
   <g>
    <path class="fil3 str1" d="M55847 9823c-61,-11 -121,-32 -152,-56 -49,-37 -59,-105 -62,-138 -14,0 -33,-3 -54,-16 -57,-34 -96,-118 -115,-249 -46,-303 225,-1102 290,-1146 49,-34 242,-422 200,-542 -29,-81 6,-179 39,-273 21,-61 41,-118 44,-168 9,-130 166,-156 202,-160l63 -82c54,-71 59,-189 59,-220l-52 -40c-70,-53 1,-221 46,-280 29,-37 116,-84 208,-133 62,-33 127,-67 173,-99 91,-61 380,-798 483,-1077l31 12c-39,103 -379,1014 -495,1092 -48,33 -114,68 -177,101 -85,46 -173,92 -197,124 -44,58 -98,200 -52,234l64 49 1 8c0,7 3,158 -66,249l-71 93 -8 1c-1,0 -172,15 -179,130 -4,55 -24,114 -46,177 -32,89 -64,181 -39,251 47,135 -153,539 -213,580 -53,39 -319,827 -276,1114 23,150 66,205 98,226 27,16 49,10 50,10l22 -7 -1 23c0,1 -1,92 50,130 53,41 224,74 273,54 10,-4 25,-15 41,-26 43,-30 102,-71 158,-56 29,7 54,30 73,66 58,23 157,52 191,38 44,-19 119,6 180,26 22,7 41,13 54,16 33,6 168,-17 251,-34l446 -164 11 31 -448 164c-24,5 -216,45 -266,35 -15,-3 -35,-10 -59,-17 -52,-18 -123,-41 -157,-27 -59,25 -205,-33 -221,-40l-6 -2 -3 -6c-15,-31 -33,-49 -55,-55 -40,-10 -90,24 -130,52 -18,13 -34,23 -47,29 -31,13 -92,10 -154,-2z"/>
   </g>
   <g>
    <path class="fil3 str2" d="M54574 12119c-4,-5 -98,-125 -83,-294l4 -45c13,-144 22,-248 72,-347 32,-63 82,-85 122,-102 33,-14 51,-23 55,-43 9,-44 61,-89 112,-132 32,-27 63,-53 79,-76 22,-30 53,-51 85,-74 38,-27 78,-55 110,-101 28,-41 31,-70 34,-94 3,-26 5,-50 41,-65 41,-17 119,-95 150,-128 33,-507 277,-1010 279,-1015l30 15c-3,5 -246,506 -276,1007l-1 6 -4 5c-4,4 -108,116 -165,140 -18,8 -19,15 -22,39 -3,26 -7,61 -39,109 -36,51 -79,82 -118,109 -30,21 -58,41 -77,67 -19,26 -51,53 -85,81 -44,38 -95,80 -101,113 -7,38 -40,52 -74,67 -37,16 -79,34 -106,87 -47,94 -56,195 -68,335l-4 45c-14,155 75,269 76,270l-26 21z"/>
   </g>
   <g>
    <path class="fil3 str2" d="M53917 14925c-11,-466 527,-799 786,-959 51,-31 91,-56 114,-73 134,-106 363,-811 349,-884 -17,-87 139,-172 184,-194l-8 -208c-4,-124 -102,-154 -206,-185 -64,-20 -130,-40 -170,-85 -88,-100 -287,-53 -289,-53l-14 3 -5 -13c-93,-264 -324,-314 -326,-314l-10 -2 -44 -179c-39,28 -131,85 -225,92 -125,10 -261,-15 -665,-126 -396,-106 -881,551 -886,558l-26 -20c20,-27 502,-684 920,-569 400,109 534,134 654,125 113,-9 227,-100 228,-101l20 -16 51 208c47,13 243,78 335,319 50,-9 220,-32 307,67 33,37 92,55 154,74 105,32 225,68 230,216l9 229 -10 5c-73,34 -186,109 -176,163 17,89 -215,801 -361,915 -24,19 -65,44 -117,76 -253,157 -780,483 -770,930l-33 1z"/>
   </g>
   <g>
    <path class="fil3 str2" d="M56505 15420c-11,-539 -105,-563 -109,-564 -70,-11 -292,-71 -315,-356 -22,-270 -222,-435 -534,-440 -284,-5 -721,-138 -725,-139l9 -31c5,1 437,133 717,137 325,5 542,186 565,471 22,261 224,315 286,326 0,0 0,0 0,0 49,9 129,98 139,596l-33 0z"/>
   </g>
   <g>
    <path class="fil3 str2" d="M54141 15602l3 -33c382,41 1129,113 1224,92 24,-5 39,-16 46,-32 17,-38 -11,-100 -23,-120l-11 -19 21 -6c2,0 159,-37 298,-76 84,-23 190,18 276,51 45,17 108,42 119,31 43,-45 269,-54 314,-55l1 33c-106,3 -267,19 -292,45 -26,26 -80,5 -154,-24 -81,-31 -182,-70 -255,-49 -111,31 -232,60 -279,72 14,29 34,86 15,130 -11,27 -35,44 -69,51 -123,27 -1189,-86 -1234,-91z"/>
   </g>
   <g>
    <path class="fil3 str1" d="M55990 17236l-155 -211 1 -6c1,-11 26,-249 64,-359 34,-97 25,-178 -28,-269 -9,-17 -11,-17 -33,-13 -57,11 -176,32 -545,-250 -509,-389 -1053,-53 -1059,-50l-17 -27c5,-4 569,-352 1096,51 358,273 471,253 519,244 25,-4 47,-8 68,28 57,100 67,191 30,297 -33,97 -58,306 -62,345l148 200 -27 20z"/>
   </g>
   <g>
    <path class="fil3 str2" d="M58196 14287c-44,-146 -123,-242 -228,-279 -97,-33 -197,-8 -253,31 -121,84 -348,24 -471,-87 -82,-73 -69,-257 -58,-420 5,-78 10,-153 3,-203 -3,-22 -9,-36 -19,-42 -17,-10 -49,1 -84,12 -54,18 -121,41 -166,-14 -43,-53 -49,-120 -54,-184 -5,-66 -10,-127 -50,-178 -73,-94 -150,-90 -266,-49 -15,5 -32,12 -49,19 -103,43 -244,101 -379,-61 -141,-168 -744,7 -750,9l-10 -32c26,-7 631,-182 785,2 120,144 238,95 342,52 17,-8 34,-15 50,-20 102,-36 209,-61 303,60 46,58 52,128 57,195 5,63 10,121 46,166 29,35 70,25 131,4 42,-14 81,-28 112,-9 18,12 29,33 33,66 8,53 3,129 -3,209 -10,155 -22,331 48,394 111,100 324,159 430,84 63,-44 175,-72 283,-35 80,28 188,103 248,300l-31 10z"/>
   </g>
   <g>
    <path class="fil3 str1" d="M55376 12681l-29 -14c7,-16 194,-373 550,-423 190,-27 281,-101 347,-155 54,-44 97,-78 161,-49 108,50 306,61 342,63 27,-21 160,-135 168,-269 4,-65 -24,-126 -82,-182l-4 -4 -1 -6c0,-3 -5,-62 37,-194 36,-114 42,-172 39,-202 0,3 -1,5 -3,8 -10,13 -10,13 -97,-39 -162,-97 -285,-154 -286,-155l-7 -3 -2 -7c-3,-12 -31,-116 16,-164 47,-48 184,-123 299,-83 67,23 76,69 84,110 7,33 13,62 49,83 54,30 109,6 130,-20 5,-6 13,-17 5,-26 -4,-5 -9,-10 -14,-15 -35,-37 -82,-88 -64,-179 20,-103 231,-175 255,-183l15 -5 5 14c17,38 71,135 130,135 34,-1 98,-54 160,-105 74,-61 158,-130 234,-152 35,-10 68,-28 102,-48 94,-54 201,-115 366,43 106,102 146,100 197,99 49,-2 109,-4 234,78 100,65 146,53 191,42 68,-18 132,-34 321,173 139,151 201,131 266,110 84,-28 172,-56 390,218l9 12 -11 10c-3,3 -315,299 -201,525 118,235 336,426 338,428l-21 25c-2,-2 -225,-198 -346,-438 -114,-225 139,-496 197,-553 -197,-244 -269,-221 -345,-196 -72,24 -147,48 -300,-119 -176,-193 -228,-179 -289,-164 -49,13 -105,28 -217,-46 -116,-76 -169,-74 -215,-73 -56,2 -105,4 -220,-107 -148,-141 -231,-93 -328,-38 -34,19 -70,40 -109,51 -69,19 -150,86 -222,145 -72,60 -135,112 -181,112 -77,1 -135,-102 -153,-140 -68,24 -207,86 -220,153 -14,75 23,115 56,150 5,6 10,12 15,17 16,19 15,45 -4,68 -29,35 -101,67 -173,27 -48,-27 -57,-69 -64,-105 -8,-38 -14,-68 -63,-85 -99,-34 -224,33 -265,75 -26,27 -17,94 -9,125 28,14 140,68 281,152 10,6 19,11 26,16 1,-1 1,-3 2,-4 4,-11 14,-17 30,-18 24,-1 37,10 44,19 17,22 33,73 -26,258 -33,103 -35,159 -35,176 62,61 91,130 86,203 -9,163 -177,291 -184,297l-5 3 -6 0c-9,0 -237,-8 -361,-66 -44,-20 -70,-1 -126,45 -66,53 -164,133 -363,161 -340,48 -524,402 -526,405zm1507 -1468l0 0c4,5 9,10 11,13 3,3 7,7 9,13 -1,-11 -4,-17 -7,-20 -2,-3 -5,-6 -13,-6z"/>
   </g>
   <g>
    <path class="fil3 str1" d="M59437 13490c-49,-25 -480,-253 -454,-390 25,-129 104,-206 257,-249 77,-21 82,-157 89,-329 4,-107 9,-229 32,-350 64,-333 397,-301 400,-301l-4 33c-12,-1 -306,-28 -364,274 -23,119 -27,239 -31,346 -8,185 -13,331 -113,359 -141,39 -211,106 -234,224 -16,84 259,262 437,354l-15 29z"/>
   </g>
   <g>
    <path class="fil3 str2" d="M58028 14019l-27 -18c6,-9 163,-238 456,-269 274,-28 357,-112 452,-236 90,-118 239,-204 245,-208l16 29c-1,0 -149,86 -235,199 -97,127 -188,219 -475,249 -277,28 -431,252 -432,254z"/>
   </g>
   <g>
    <path class="fil3 str1" d="M48490 8821c-703,-411 -1071,-477 -1314,-520 -67,-12 -124,-22 -176,-38 -233,-68 -1340,-256 -1351,-258l6 -32c45,7 1119,190 1354,259 50,15 107,25 173,37 245,44 616,110 1325,523l-17 29z"/>
   </g>
   <g>
    <path class="fil3 str1" d="M57403 10736c-16,-98 -49,-325 -24,-371 -27,-21 -75,-62 -110,-144 -30,-72 6,-119 38,-161 36,-48 67,-89 26,-167 -40,-74 -25,-103 -3,-130 17,-22 33,-42 -56,-163 -52,-70 -71,-120 -61,-158 9,-37 44,-53 72,-65 36,-17 42,-22 36,-38 -15,-41 -9,-67 -5,-89 6,-27 10,-43 -42,-86 -81,-66 -120,-245 -86,-316 13,-28 37,-40 65,-34 50,11 84,8 110,-9 32,-21 54,-66 67,-138 7,-35 14,-64 19,-91 20,-90 32,-145 26,-313 -8,-220 14,-336 55,-463 29,-88 68,-129 118,-180 23,-24 50,-51 80,-88 25,-31 39,-63 53,-95 37,-86 72,-168 303,-211 114,-21 202,-31 272,-39 119,-13 178,-20 204,-60 18,-28 35,-40 46,-47 4,-2 8,-6 9,-7 3,-8 -19,-57 -28,-76 -60,-130 -51,-367 -22,-419 16,-28 63,-132 28,-317 -15,-75 -53,-329 59,-450 45,-48 109,-68 190,-59l-4 33c-69,-9 -124,8 -162,49 -81,87 -80,274 -51,421 38,195 -14,309 -31,339 -24,42 -33,268 23,390 38,82 42,100 8,123 -10,7 -23,15 -37,37 -35,54 -103,62 -228,76 -70,8 -158,18 -270,38 -214,40 -244,110 -279,192 -15,34 -30,69 -58,103 -31,38 -58,66 -82,90 -48,50 -84,86 -110,168 -41,125 -61,235 -53,451 6,172 -6,228 -27,321 -5,26 -12,55 -18,91 -16,80 -43,132 -82,159 -34,22 -76,26 -135,13 -10,-2 -20,-1 -28,16 -29,59 8,221 77,277 62,51 62,80 53,118 -4,19 -8,39 4,70 17,48 -24,66 -53,80 -25,11 -49,21 -55,43 -7,27 12,71 56,131 97,131 84,167 55,203 -14,17 -26,32 7,94 51,96 8,152 -29,201 -32,42 -57,75 -34,129 36,84 87,121 108,137 11,8 21,15 17,28 -4,9 -12,12 -19,12 -10,33 7,201 30,345l-32 6z"/>
   </g>
   <g>
    <path class="fil3 str1" d="M57725 8938l-285 -252c-32,-3 -188,-23 -287,-72 -66,-34 -69,-80 -72,-125 -2,-37 -4,-75 -38,-117 -85,-103 -67,-204 -67,-208l9 -223 148 -73 11 -56c5,-28 0,-50 -16,-67 -47,-51 -178,-51 -224,-46l-11 1 -184 -315 50 -262c-6,-251 -67,-420 -181,-502 -119,-84 -256,-41 -257,-41l-10 -31c6,-2 153,-48 286,46 123,88 189,266 195,529l-1 4 -48 251 168 286c40,-2 183,-7 241,58 23,25 31,57 24,95l-18 93 -27 -5 -114 56 -8 205c-1,6 -16,93 59,185 41,49 44,97 46,135 3,44 4,73 53,97 103,52 279,70 281,70l5 1 286 252c39,5 305,35 411,-62 12,-10 23,-20 34,-30 107,-96 200,-179 157,-298 -6,-16 -11,-31 -16,-44 -29,-78 -49,-130 -24,-162 15,-21 45,-29 97,-25 54,3 122,28 188,51 100,36 204,73 256,38 93,-63 284,-254 286,-256l6 -3 265 -102c20,-24 143,-174 174,-257 14,-39 -10,-94 -34,-147 -28,-64 -58,-130 -31,-184 13,-26 31,-43 47,-58 38,-38 63,-62 -45,-216 -87,-123 -74,-217 -62,-300 10,-72 19,-135 -34,-211 -44,-61 -79,-99 -108,-130 -51,-55 -79,-85 -64,-165 8,-40 13,-77 18,-112 8,-63 15,-117 35,-161 19,-42 -57,-205 -110,-298l29 -16c24,42 142,258 111,327 -18,40 -25,92 -33,152 -4,34 -10,73 -17,114 -13,64 6,84 55,136 28,30 66,71 110,134 62,87 51,162 40,235 -11,80 -23,163 57,276 118,168 92,208 41,258 -15,14 -30,29 -40,50 -20,40 6,99 31,155 26,60 53,121 34,173 -35,95 -175,262 -181,269l-3 3 -270 104c-24,24 -197,196 -289,257 -65,45 -177,5 -285,-34 -64,-23 -129,-46 -180,-50 -37,-2 -60,2 -68,12 -14,19 6,71 28,131 6,14 11,29 17,45 50,140 -55,234 -166,333 -11,10 -23,20 -34,30 -125,115 -429,72 -442,70l-5 -1z"/>
   </g>
   <g>
    <path class="fil3 str1" d="M60742 9357c-1,-3 -111,-234 -154,-308 -31,-52 18,-92 66,-131 37,-31 76,-62 83,-101 10,-54 -30,-144 -77,-248 -31,-69 -67,-147 -96,-232l-15 -45c-44,-130 -44,-130 -99,-152 -13,-6 -30,-12 -50,-22 -96,-44 -136,-47 -225,-52 -22,-1 -46,-3 -75,-5 -89,-7 -118,9 -154,30 -22,12 -47,27 -87,38 -66,17 -86,61 -117,126 -13,30 -29,64 -52,100 -15,26 -34,30 -48,29 -91,-6 -222,-292 -248,-350l30 -13c56,126 164,327 220,330 3,0 10,1 18,-13 22,-35 37,-68 51,-97 31,-68 56,-122 137,-144 37,-10 59,-22 80,-35 39,-22 74,-41 172,-34 29,3 54,4 75,5 90,6 135,8 237,55 19,10 35,16 48,21 69,28 71,33 118,172l15 46c29,83 64,160 95,229 51,113 92,203 79,267 -9,50 -55,88 -95,120 -50,42 -72,64 -58,90 44,75 151,300 156,310l-30 14z"/>
   </g>
   <g>
    <path class="fil3 str1" d="M60182 7749c-23,-4 -42,-29 -68,-64 -30,-42 -72,-98 -140,-150 -167,-128 -446,-86 -448,-85l-6 -32c12,-2 296,-45 474,91 72,55 115,113 147,156 19,26 39,53 48,52 4,0 14,-4 34,-41 77,-137 113,-291 108,-367 -2,-23 -14,-229 18,-289l36 -66 15 18c0,0 23,26 48,22 21,-2 37,-26 47,-46 54,-106 237,-348 245,-359l26 20c-2,3 -189,250 -242,354 -19,39 -44,61 -72,64 -25,3 -46,-8 -60,-19l-14 27c-19,36 -22,164 -14,272 6,95 -42,260 -112,385 -22,40 -40,57 -61,58 -3,0 -6,0 -9,-1z"/>
   </g>
   <g>
    <path class="fil3 str1" d="M61155 7315c-4,0 -8,-2 -12,-3 -22,-10 -37,-22 -48,-32 -20,-15 -27,-21 -53,-12 -64,22 -133,-105 -147,-130l-3 -6 2 -6c44,-156 21,-183 13,-187 -22,-13 -89,37 -128,77l-3 4 -426 116 -9 -32 418 -114c24,-24 114,-109 165,-80 37,22 38,91 3,218 28,51 78,118 104,109 43,-15 63,1 84,18 11,8 23,18 42,27 13,6 34,-5 56,-27 35,-36 52,-79 47,-88 -22,-20 -66,-144 -28,-192 25,-33 74,-26 144,21 201,133 233,202 234,205l-30 13c0,-1 -32,-65 -222,-191 -51,-34 -88,-44 -100,-28 -24,31 11,136 25,149 28,25 -6,81 -17,98 -27,40 -71,81 -111,73z"/>
   </g>
   <g>
    <path class="fil3 str1" d="M61006 7876c-3,0 -5,-1 -7,-2 -21,-6 -35,-22 -38,-46 -5,-32 1,-78 8,-126 9,-69 21,-155 -8,-182 -10,-9 -27,-11 -51,-6 -71,17 -130,58 -183,95 -64,44 -119,82 -181,71 -107,-21 -247,-124 -253,-128l20 -26c1,1 140,102 239,121 49,10 99,-25 157,-65 54,-38 117,-81 194,-99 34,-9 62,-4 80,13 42,38 30,126 18,211 -6,45 -12,89 -8,116 2,14 9,18 15,20 55,16 208,-75 260,-134 42,-46 125,-46 198,-46 47,0 96,0 116,-14 57,-38 130,-99 131,-99l21 25c-3,2 -76,63 -133,102 -29,19 -78,19 -135,19 -66,0 -142,0 -173,35 -53,59 -210,160 -287,145z"/>
   </g>
   <g>
    <path class="fil3 str1" d="M60566 8252l-31 -12c2,-4 42,-110 141,-139 67,-20 144,1 227,63 1,1 215,133 336,66l33 -18c123,-70 262,-149 444,-78l-11 30c-168,-64 -295,7 -417,77 -11,6 -22,12 -33,18 -138,76 -361,-62 -370,-68 -76,-56 -143,-75 -200,-58 -83,24 -119,118 -119,119z"/>
   </g>
   <g>
    <path class="fil3 str1" d="M61275 8831c-336,-356 -619,-307 -621,-306l-7 -33c13,-2 303,-54 652,317l-24 22z"/>
   </g>
  </g>
  <line class="fil6 str3" x1="23511" y1="2510" x2="23511" y2= "19207" />
  <path class="fil5 str1" d="M56825 8209c1281,0 2320,523 2320,1169l0 295 0 511 0 295 0 512 0 294 0 512 0 295 0 511 0 295 0 346 0 166c0,645 -1039,1169 -2320,1169 -1282,0 -2320,-524 -2320,-1169l0 -84 0 -428 0 -295 0 -511 0 -295 0 -512 0 -294 0 -512 0 -295 0 -511 0 -295c0,-646 1038,-1169 2320,-1169z"/>
  <path class="fil2" d="M54505 9378l0 295c0,645 1038,1169 2320,1169 1281,0 2320,-524 2320,-1169l0 -295c0,646 -1039,1169 -2320,1169 -1282,0 -2320,-523 -2320,-1169zm0 806l0 295c0,646 1038,1169 2320,1169 1281,0 2320,-523 2320,-1169l0 -295c0,646 -1039,1169 -2320,1169 -1282,0 -2320,-523 -2320,-1169zm0 807l0 294c0,646 1038,1170 2320,1170 1281,0 2320,-524 2320,-1170l0 -294c0,645 -1039,1169 -2320,1169 -1282,0 -2320,-524 -2320,-1169zm0 806l0 295c0,645 1038,1169 2320,1169 1281,0 2320,-524 2320,-1169l0 -295c0,646 -1039,1169 -2320,1169 -1282,0 -2320,-523 -2320,-1169zm0 806l0 295c0,646 1038,1169 2320,1169 1281,0 2320,-523 2320,-1169l0 -295c0,646 -1039,1169 -2320,1169 -1282,0 -2320,-523 -2320,-1169z"/>
  <path class="fil5 str1" d="M53405 5375c2212,0 4005,904 4005,2018l0 509 0 883 0 509 0 883 0 509 0 883 0 509 0 884 0 508 0 598 0 286c0,1114 -1793,2018 -4005,2018 -2212,0 -4006,-904 -4006,-2018l0 -144 0 -740 0 -508 0 -884 0 -509 0 -883 0 -509 0 -883 0 -509 0 -883 0 -509c0,-1114 1794,-2018 4006,-2018z"/>
  <path class="fil2" d="M49399 7393l0 509c0,1115 1794,2019 4006,2019 2212,0 4005,-904 4005,-2019l0 -509c0,1115 -1793,2019 -4005,2019 -2212,0 -4006,-904 -4006,-2019zm0 1392l0 509c0,1115 1794,2019 4006,2019 2212,0 4005,-904 4005,-2019l0 -509c0,1115 -1793,2019 -4005,2019 -2212,0 -4006,-904 -4006,-2019zm0 1392l0 509c0,1115 1794,2019 4006,2019 2212,0 4005,-904 4005,-2019l0 -509c0,1115 -1793,2019 -4005,2019 -2212,0 -4006,-904 -4006,-2019zm0 1392l0 509c0,1115 1794,2019 4006,2019 2212,0 4005,-904 4005,-2019l0 -509c0,1115 -1793,2019 -4005,2019 -2212,0 -4006,-904 -4006,-2019zm0 1393l0 508c0,1115 1794,2019 4006,2019 2212,0 4005,-904 4005,-2019l0 -508c0,1114 -1793,2018 -4005,2018 -2212,0 -4006,-904 -4006,-2018z"/>
  <path class="fil7" d="M53139 6195c0,36 43,70 115,87l-115 0c-201,6 -402,30 -582,77 -208,53 -352,127 -438,197 -93,77 -144,164 -144,252l0 26c8,77 58,151 137,218 79,67 187,124 309,171 244,94 531,144 804,181 323,43 675,70 947,144 130,33 244,77 324,127 78,50 129,107 136,164l0 24c0,73 -65,151 -179,211 -123,67 -309,120 -517,151 -158,23 -331,33 -503,33 -79,0 -165,-3 -244,-7 -295,-16 -582,-63 -840,-134 -101,-20 -158,-40 -251,-70 -36,-13 -80,-20 -130,-20 -64,0 -129,13 -172,40 -29,17 -43,37 -43,60 0,31 29,61 86,81 93,33 194,63 294,90 302,81 639,138 991,158 101,6 201,10 302,10 215,0 430,-14 639,-44 265,-40 524,-107 711,-211 172,-94 280,-214 280,-341l0 -37c-15,-111 -108,-205 -216,-272 -122,-77 -280,-137 -452,-184 -323,-87 -718,-117 -1034,-161 -137,-17 -431,-57 -646,-140 -86,-34 -158,-74 -209,-118 -50,-40 -78,-87 -86,-134l0 -16c0,-54 29,-108 86,-155 58,-43 151,-90 281,-123 114,-31 251,-47 394,-51l80 0c114,0 236,10 351,27 323,44 575,137 733,231 43,24 93,37 158,37 28,0 50,-3 78,-7 94,-13 144,-47 144,-90l0 -292c0,-57 -93,-100 -215,-100 -122,0 -216,43 -216,100l0 61c-172,-57 -366,-101 -574,-128 -93,-13 -187,-23 -280,-30 79,-13 136,-50 136,-93l0 -108c0,-57 -93,-100 -215,-100 -122,0 -215,43 -215,100l0 108zm7 820c0,57 93,101 215,101 122,0 215,-44 215,-101l0 -368c0,-57 -93,-101 -215,-101 -122,0 -215,44 -215,101l0 368zm0 1086c0,57 93,100 215,100 122,0 215,-43 215,-100l0 -510c0,-57 -93,-100 -215,-100 -122,0 -215,43 -215,100l0 510zm0 599c0,57 93,101 215,101 122,0 215,-44 215,-101l0 -97c0,-57 -93,-100 -215,-100 -122,0 -215,43 -215,100l0 97z"/>
 </g>
</svg>
