<?xml version="1.0" encoding="UTF-8"?>
<!DOCTYPE svg PUBLIC "-//W3C//DTD SVG 1.1//EN" "http://www.w3.org/Graphics/SVG/1.1/DTD/svg11.dtd">
<!-- Creator: CorelDRAW X7 -->
<svg xmlns="http://www.w3.org/2000/svg" xml:space="preserve" width="850px" height="285px" version="1.1" style="shape-rendering:geometricPrecision; text-rendering:geometricPrecision; image-rendering:optimizeQuality; fill-rule:evenodd; clip-rule:evenodd"
viewBox="0 0 128763 43174"
 xmlns:xlink="http://www.w3.org/1999/xlink">
 <defs>
  <style type="text/css">
   <![CDATA[
    .str1 {stroke:white;stroke-width:2583.79}
    .str0 {stroke:white;stroke-width:2837.5}
    .fil8 {fill:none}
    .fil5 {fill:#EC0289}
    .fil2 {fill:#F0F0F0}
    .fil7 {fill:#F6ADAF}
    .fil4 {fill:#FCEEED}
    .fil3 {fill:#FDEFEE}
    .fil1 {fill:#003155;fill-rule:nonzero}
    .fil0 {fill:#D9DADB;fill-rule:nonzero}
    .fil6 {fill:#EC0289;fill-rule:nonzero}
   ]]>
  </style>
 </defs>
<symbol id="Fm0-2212-0" viewBox="429906 -6483214 59163 376926">
 <polygon class="fil0" points="454716,-6106288 430520,-6106288 430520,-6483214 454716,-6483214 "/>
 <polygon class="fil1" points="489069,-6287236 429906,-6287236 429906,-6302266 489069,-6302266 "/>
</symbol>
<symbol id="Symbol1" viewBox="429906 -6483214 59163 376926">
 <polygon class="fil0" points="454716,-6106288 430520,-6106288 430520,-6483214 454716,-6483214 "/>
 <polygon class="fil1" points="489069,-6287236 429906,-6287236 429906,-6302266 489069,-6302266 "/>
</symbol>
 <g id="Camada_x0020_1">
  <metadata id="CorelCorpID_0Corel-Layer"/>
  <rect class="fil2" width="128763" height="43174"/>
  <g id="_1440309520">
   <ellipse class="fil2" cx="64336" cy="19370" rx="13345" ry="10473"/>
   <path class="fil3" d="M72887 24582c650,-76 2565,-424 3018,-3116l-7338 4c184,2339 1948,3089 4320,3112z"/>
   <path class="fil4" d="M60550 24572c-37,-786 -321,-1586 -852,-2021l-547 -402c-2479,-1179 -5488,-261 -5599,2438l6998 -15z"/>
   <path class="fil5" d="M59874 32526c-202,-928 -1027,-1623 -2015,-1623 -981,0 -1803,687 -2010,1606l0 -1599 6 -7 -938 0 0 7 -964 1838 -965 -1845 -945 0 0 4125 932 0 0 -1484 978 1484 0 0 964 -1437 0 1437 932 0 0 -1607c207,920 1029,1607 2010,1607 988,0 1813,-695 2015,-1623l0 1623 931 0 0 -2063 1164 2063 945 0 0 -4125 -931 0 0 2062 -1158 -2062 -951 0 0 1623zm0 845l-959 0c-163,424 -574,725 -1056,725 -624,0 -1130,-506 -1130,-1131 0,-624 506,-1131 1130,-1131 482,0 893,302 1056,726l959 0 0 811z"/>
   <path class="fil6" d="M65377 34555c0,68 -55,123 -123,123 -67,0 -122,-55 -122,-123l0 -2108 -188 -342c-32,-59 -11,-133 48,-166 51,-28 114,-15 151,27 292,309 544,605 769,868 381,447 681,799 956,957 453,259 893,-53 1695,-1455l654 -1439c28,-62 100,-89 162,-61 49,22 76,72 71,122 -6,235 -16,452 -25,664 -44,993 -82,1846 212,2864 19,65 -19,132 -84,151 -64,18 -132,-19 -150,-84 -305,-1057 -267,-1928 -222,-2942l2 -48 -398 876c-2,5 -5,10 -7,14 -898,1569 -1430,1894 -2031,1550 -312,-178 -624,-545 -1021,-1010 -109,-129 -225,-265 -349,-407l0 1969zm7433 -883c9,-25 26,-46 47,-60 17,-37 26,-85 28,-147 -45,51 -122,55 -172,10 -51,-45 -55,-122 -10,-172 55,-61 115,-119 180,-177 -5,-923 27,-2404 659,-3064l12 -11c254,-205 467,-288 639,-282 152,5 270,75 355,192 76,103 124,243 145,405 55,410 -60,982 -311,1429l-2 4c-452,749 -866,1104 -1182,1376l-71 61 2 180c1,64 -3,121 -12,171l108 -1c97,-36 150,-95 191,-140 19,-21 36,-41 55,-58 133,-116 238,-111 539,223l111 7c194,11 355,20 510,-21l-8 -20c-53,-137 -37,-293 102,-475l2 -4c109,-142 261,-191 385,-173 59,8 112,31 154,67l0 0c46,39 78,90 91,152 22,110 -20,252 -173,399 -55,53 -107,97 -158,134l13 9c139,100 303,132 472,128 180,-6 368,-53 541,-109 306,-100 317,-241 329,-384 2,-27 4,-54 7,-82 8,-67 69,-115 136,-107 46,5 82,35 99,74l71 152 270 0c67,0 122,55 122,122l-1 16c-3,56 -9,108 -15,158 -21,180 -40,351 120,418 62,26 92,98 66,160 -26,62 -97,92 -160,66 -330,-138 -300,-398 -269,-671l3 -25 -213 0c-13,0 -26,-2 -39,-6 -51,130 -167,249 -451,341l0 0c-191,62 -401,114 -609,120 -219,7 -434,-37 -622,-172 -35,-25 -69,-52 -101,-80 -214,84 -426,72 -687,56 -51,-3 -104,-6 -153,-8 -35,1 -69,-13 -94,-41 -189,-215 -221,-246 -228,-240 -10,9 -22,22 -36,37 -61,69 -143,159 -311,214 -12,4 -24,6 -36,6l-254 5c-85,84 -209,133 -392,171 -309,64 -571,-11 -777,-171 -120,-93 -220,-214 -298,-353 -191,228 -383,395 -556,438 -206,52 -381,-29 -502,-306 -170,203 -327,271 -473,227 -176,-53 -305,-272 -404,-613 -19,-64 19,-132 83,-151 65,-19 133,19 151,83 76,260 154,421 239,447 74,22 184,-75 342,-323 36,-57 111,-73 168,-37 28,17 46,44 53,73l0 0c74,294 173,391 283,363 149,-37 326,-208 507,-442 -19,-57 -36,-114 -50,-173 -68,-299 -86,-640 -72,-975 17,-399 81,-789 159,-1081l2 -8c251,-736 549,-1134 806,-1268 132,-69 259,-76 370,-28 107,47 193,142 250,278 127,305 114,853 -154,1525 -3,8 -6,16 -10,23 -37,64 -80,145 -134,246 -200,376 -537,1009 -892,1491 68,149 162,279 281,371 152,118 347,173 579,125 123,-26 206,-54 255,-94zm2044 -175c52,-34 105,-77 160,-130 84,-80 111,-139 104,-174 -1,-6 -4,-11 -8,-14 -8,-6 -19,-11 -32,-13 -47,-6 -108,17 -157,80l-2 4c-79,102 -92,179 -69,239l4 8zm-3251 -509c300,-442 591,-989 769,-1324 59,-109 106,-199 133,-246 242,-607 261,-1085 154,-1340 -32,-76 -73,-127 -121,-147 -42,-19 -97,-13 -161,20 -206,109 -457,459 -685,1126 -74,278 -134,647 -150,1025 -13,305 2,615 61,886zm2110 -2752c-519,549 -584,1794 -587,2678 290,-251 652,-591 1044,-1240 226,-404 329,-914 282,-1277 -16,-121 -50,-223 -100,-292 -42,-56 -97,-90 -167,-92 -114,-4 -270,62 -472,223z"/>
   <path class="fil7" d="M66744 24572l1438 -15761 -3811 0 0 15761 -570 0 0 -15761 -3811 0 1438 15761 -7875 0c121,-2688 3123,-3600 5598,-2423 -860,-922 -2848,-1124 -4309,-548 -842,331 -1105,576 -1622,1183 -460,541 -462,1319 -751,1788l-1693 0 0 928 13025 0 570 0 13005 0 0 -928 -4850 0c-2188,-94 -3784,-883 -3959,-3102l7338 -4c-68,408 -171,762 -297,1069l-1 3c160,-132 408,-691 436,-1435l-8523 37c126,1998 1554,3064 2754,3432l-3530 0z"/>
   <path class="fil5" d="M72016 19491c98,-624 588,-1601 1117,-1797 258,1265 -27,1701 -347,2776 909,-225 2400,-2039 1105,-4047 -606,-938 -1718,-1850 -2108,-2483 -290,-473 -188,-795 -464,-1205 -334,1695 297,1900 899,3070 492,956 -37,1626 -298,2545 -76,265 -338,1141 96,1141zm-710 1020l249 202c-138,-375 -170,-468 -158,-880 35,-1280 667,-1880 619,-3100 -36,-911 -617,-1489 -1284,-2375 -44,-58 -73,-99 -122,-155 -112,-133 -115,-131 -221,-232l698 2542 80 629c-563,-468 -331,-924 -1229,-1181 477,1429 310,928 359,2535 32,1021 445,1467 1009,2015z"/>
  </g>
  <path class="fil6" d="M14146 15189l0 1390 -223 0 0 -3191 759 0c396,0 689,73 878,219 188,146 283,366 283,660 0,214 -56,395 -169,542 -113,147 -284,253 -513,317l865 1453 -266 0 -822 -1390 -792 0zm0 -192l609 0c269,0 477,-61 625,-181 149,-120 223,-298 223,-533 0,-244 -73,-422 -218,-533 -145,-111 -382,-166 -711,-166l-528 0 0 1413z"/>
  <path id="1" class="fil6" d="M17483 16624c-345,0 -613,-107 -806,-319 -193,-213 -289,-510 -289,-893 0,-379 93,-682 279,-909 186,-228 437,-342 753,-342 279,0 500,97 662,291 161,194 242,457 242,791l0 174 -1710 0c3,328 79,578 229,751 149,173 363,259 640,259 136,0 254,-10 357,-28 103,-19 233,-60 390,-122l0 196c-134,58 -258,98 -371,119 -113,21 -239,32 -376,32zm-63 -2275c-229,0 -412,75 -550,226 -138,151 -219,370 -243,654l1467 0c0,-276 -59,-492 -179,-647 -119,-156 -284,-233 -495,-233z"/>
  <path id="2" class="fil6" d="M19992 16624c-365,0 -630,-137 -798,-411l-15 0 6 183c6,108 9,225 9,353l0 903 -216 0 0 -3446 183 0 42 339 12 0c164,-256 423,-384 782,-384 319,0 564,105 731,316 169,210 253,516 253,917 0,391 -89,693 -265,908 -178,214 -418,322 -724,322zm-4 -188c243,0 431,-90 564,-271 133,-181 200,-434 200,-759 0,-699 -252,-1049 -755,-1049 -277,0 -480,77 -609,229 -129,152 -194,401 -194,745l0 70c0,372 62,637 186,796 124,159 327,239 608,239z"/>
  <path id="3" class="fil6" d="M22571 14161c101,0 209,10 324,30l-42 208c-99,-24 -201,-37 -308,-37 -202,0 -368,86 -497,258 -129,171 -194,388 -194,650l0 1309 -216 0 0 -2373 183 0 22 429 16 0c97,-176 201,-298 312,-368 110,-71 244,-106 400,-106z"/>
  <path id="4" class="fil6" d="M24247 16624c-345,0 -614,-107 -807,-319 -193,-213 -289,-510 -289,-893 0,-379 93,-682 279,-909 186,-228 438,-342 753,-342 280,0 500,97 662,291 162,194 242,457 242,791l0 174 -1710 0c3,328 79,578 229,751 149,173 363,259 641,259 135,0 254,-10 357,-28 102,-19 232,-60 389,-122l0 196c-134,58 -258,98 -371,119 -113,21 -238,32 -375,32zm-64 -2275c-228,0 -412,75 -550,226 -138,151 -219,370 -242,654l1467 0c0,-276 -60,-492 -179,-647 -119,-156 -285,-233 -496,-233z"/>
  <path id="5" class="fil6" d="M27213 15962c0,212 -81,376 -243,490 -161,114 -390,172 -687,172 -318,0 -569,-50 -756,-147l0 -233c240,119 491,179 756,179 234,0 412,-39 534,-117 121,-78 182,-182 182,-311 0,-119 -48,-220 -145,-302 -97,-81 -256,-161 -477,-240 -237,-85 -404,-159 -500,-221 -96,-63 -169,-132 -217,-210 -49,-77 -74,-173 -74,-285 0,-178 75,-318 224,-421 149,-104 358,-155 626,-155 256,0 499,48 729,144l-81 196c-233,-96 -449,-144 -648,-144 -194,0 -348,33 -461,97 -114,64 -171,152 -171,265 0,124 44,223 133,298 88,74 260,157 516,248 214,78 370,147 467,209 98,62 171,132 220,211 49,78 73,171 73,277z"/>
  <path id="6" class="fil6" d="M28782 16624c-345,0 -614,-107 -807,-319 -193,-213 -289,-510 -289,-893 0,-379 93,-682 279,-909 187,-228 438,-342 754,-342 279,0 500,97 661,291 162,194 242,457 242,791l0 174 -1709 0c3,328 79,578 228,751 149,173 363,259 641,259 136,0 254,-10 357,-28 103,-19 232,-60 389,-122l0 196c-134,58 -257,98 -371,119 -113,21 -238,32 -375,32zm-63 -2275c-229,0 -412,75 -551,226 -138,151 -219,370 -242,654l1467 0c0,-276 -60,-492 -179,-647 -119,-156 -285,-233 -495,-233z"/>
  <path id="7" class="fil6" d="M31932 16579l0 -1538c0,-239 -51,-412 -151,-521 -100,-108 -256,-163 -468,-163 -283,0 -491,72 -622,216 -132,143 -198,375 -198,696l0 1310 -217 0 0 -2373 184 0 41 326 14 0c154,-248 428,-371 823,-371 538,0 808,289 808,866l0 1552 -214 0z"/>
  <path id="8" class="fil6" d="M33539 16436c137,0 257,-12 359,-35l0 171c-105,35 -226,52 -363,52 -209,0 -364,-56 -464,-169 -99,-112 -149,-288 -149,-528l0 -1534 -352 0 0 -126 352 -99 109 -535 111 0 0 573 697 0 0 187 -697 0 0 1507c0,182 32,317 96,405 64,87 165,131 301,131z"/>
  <path id="9" class="fil6" d="M35852 16579l-55 -375 -18 0c-119,153 -242,261 -368,324 -125,64 -274,96 -446,96 -233,0 -414,-60 -544,-179 -129,-120 -194,-285 -194,-496 0,-232 97,-412 290,-540 193,-128 471,-196 837,-202l452 -14 0 -157c0,-226 -46,-395 -137,-511 -92,-115 -240,-172 -444,-172 -220,0 -448,61 -684,183l-80 -187c261,-123 518,-184 772,-184 261,0 456,68 584,203 129,135 194,346 194,633l0 1578 -159 0zm-874 -152c253,0 454,-72 600,-218 146,-144 219,-345 219,-603l0 -234 -415 17c-333,17 -571,69 -713,157 -142,88 -213,225 -213,412 0,148 46,263 137,345 91,83 220,124 385,124z"/>
  <path id="10" class="fil6" d="M37725 16624c-339,0 -604,-108 -796,-321 -192,-214 -288,-513 -288,-895 0,-394 99,-700 299,-919 199,-219 472,-328 818,-328 206,0 402,36 589,107l-59 192c-204,-68 -383,-103 -535,-103 -290,0 -511,91 -660,270 -150,180 -225,438 -225,776 0,320 75,571 225,752 149,181 359,272 628,272 216,0 416,-39 600,-116l0 201c-151,74 -350,112 -596,112zm233 589c0,146 -49,255 -147,328 -98,74 -235,111 -411,111 -99,0 -167,-8 -205,-24l0 -192c43,14 110,21 200,21 114,0 201,-20 260,-61 60,-40 90,-98 90,-174 0,-137 -140,-224 -421,-264l202 -379 210 0 -144 255c244,53 366,180 366,379z"/>
  <path id="11" class="fil6" d="M40344 16579l-55 -375 -17 0c-120,153 -242,261 -368,324 -126,64 -275,96 -447,96 -233,0 -414,-60 -543,-179 -130,-120 -195,-285 -195,-496 0,-232 97,-412 290,-540 193,-128 471,-196 837,-202l452 -14 0 -157c0,-226 -46,-395 -137,-511 -92,-115 -240,-172 -444,-172 -219,0 -447,61 -684,183l-80 -187c261,-123 518,-184 773,-184 260,0 455,68 584,203 129,135 193,346 193,633l0 1578 -159 0zm-874 -152c253,0 454,-72 600,-218 146,-144 219,-345 219,-603l0 -234 -414 17c-334,17 -572,69 -713,157 -143,88 -214,225 -214,412 0,148 46,263 137,345 91,83 220,124 385,124zm554 -2561c-53,0 -107,-14 -164,-40 -56,-27 -130,-79 -220,-156 -46,-38 -92,-71 -137,-100 -44,-29 -90,-44 -136,-44 -65,0 -120,25 -164,75 -43,50 -78,138 -104,265l-159 0c14,-161 60,-288 137,-380 77,-93 177,-139 299,-139 70,0 134,18 192,55 58,36 118,79 179,128 49,41 97,77 144,109 46,32 91,48 133,48 67,0 123,-27 168,-80 45,-53 80,-139 105,-260l165 0c-23,169 -73,297 -150,386 -77,89 -173,133 -288,133z"/>
  <path id="12" class="fil6" d="M43233 15390c0,387 -94,690 -282,907 -188,218 -446,327 -777,327 -208,0 -391,-50 -550,-151 -158,-100 -280,-244 -364,-433 -85,-187 -127,-404 -127,-650 0,-387 94,-689 282,-905 188,-216 445,-324 773,-324 325,0 582,109 767,328 185,219 278,520 278,901zm-1873 0c0,326 72,580 215,763 143,182 346,274 608,274 262,0 465,-92 608,-274 143,-183 215,-437 215,-763 0,-327 -73,-581 -217,-762 -145,-180 -348,-271 -610,-271 -262,0 -464,91 -606,270 -141,180 -213,435 -213,763z"/>
  <path id="13" class="fil6" d="M14752 20480l-560 0 0 2186 -216 0 0 -2186 -441 0 0 -126 441 -81 0 -183c0,-290 54,-504 161,-640 107,-135 282,-203 524,-203 132,0 263,19 393,57l-50 185c-116,-37 -232,-54 -347,-54 -168,0 -288,49 -359,149 -70,101 -106,263 -106,487l0 222 560 0 0 187z"/>
  <path id="14" class="fil6" d="M16168 22711c-345,0 -614,-107 -807,-319 -193,-212 -289,-510 -289,-893 0,-379 93,-682 279,-909 186,-228 438,-342 753,-342 280,0 500,97 662,291 162,194 242,458 242,792l0 173 -1710 0c3,328 79,578 229,751 149,173 363,259 641,259 135,0 254,-10 357,-28 102,-19 232,-60 389,-122l0 196c-134,59 -258,98 -371,119 -113,22 -238,32 -375,32zm-64 -2275c-228,0 -412,75 -550,226 -138,151 -219,370 -242,654l1467 0c0,-276 -60,-491 -179,-647 -119,-156 -285,-233 -496,-233z"/>
  <path id="15" class="fil6" d="M20627 22666l0 -1556c0,-231 -45,-400 -135,-506 -91,-106 -229,-159 -415,-159 -243,0 -423,67 -540,200 -116,134 -174,344 -174,631l0 1390 -221 0 0 -1621c0,-400 -183,-600 -549,-600 -249,0 -431,72 -544,217 -113,145 -171,376 -171,694l0 1310 -216 0 0 -2373 180 0 45 326 14 0c65,-118 158,-209 279,-274 121,-65 254,-97 399,-97 374,0 614,140 721,421l9 0c76,-135 181,-239 310,-312 131,-72 279,-109 445,-109 259,0 453,69 583,207 129,139 194,358 194,659l0 1552 -214 0z"/>
  <path id="16" class="fil6" d="M21824 22666l-216 0 0 -2373 216 0 0 2373zm-246 -3032c0,-139 46,-208 138,-208 44,0 79,17 105,54 26,36 38,88 38,154 0,66 -12,117 -38,155 -26,38 -61,57 -105,57 -92,0 -138,-71 -138,-212z"/>
  <path id="17" class="fil6" d="M24274 22666l0 -1538c0,-238 -51,-412 -151,-521 -100,-108 -256,-162 -468,-162 -283,0 -491,71 -622,215 -132,143 -198,376 -198,696l0 1310 -217 0 0 -2373 184 0 41 326 14 0c154,-247 428,-371 823,-371 538,0 808,289 808,866l0 1552 -214 0z"/>
  <path id="18" class="fil6" d="M25471 22666l-216 0 0 -2373 216 0 0 2373zm-247 -3032c0,-139 47,-208 138,-208 45,0 80,17 106,54 25,36 38,88 38,154 0,66 -13,117 -38,155 -26,38 -61,57 -106,57 -91,0 -138,-71 -138,-212z"/>
  <path id="19" class="fil6" d="M27920 22666l0 -1538c0,-238 -50,-412 -151,-521 -100,-108 -255,-162 -467,-162 -284,0 -492,71 -623,215 -132,143 -198,376 -198,696l0 1310 -216 0 0 -2373 183 0 42 326 13 0c155,-247 429,-371 824,-371 538,0 807,289 807,866l0 1552 -214 0z"/>
  <path id="20" class="fil6" d="M30343 22666l-54 -375 -18 0c-120,153 -242,261 -368,325 -126,63 -275,95 -447,95 -233,0 -414,-60 -543,-179 -130,-120 -195,-284 -195,-496 0,-232 97,-411 290,-539 193,-129 471,-196 837,-203l452 -13 0 -158c0,-225 -46,-395 -137,-511 -92,-114 -240,-172 -444,-172 -219,0 -447,61 -683,183l-81 -187c261,-122 518,-183 773,-183 260,0 455,67 584,202 129,136 193,346 193,633l0 1578 -159 0zm-874 -152c253,0 454,-72 600,-217 146,-145 220,-346 220,-604l0 -234 -415 18c-334,16 -572,68 -713,156 -143,88 -213,226 -213,412 0,148 45,264 136,345 91,83 220,124 385,124z"/>
  <path id="21" class="fil6" d="M34086 22666l0 -1538c0,-238 -50,-412 -151,-521 -100,-108 -255,-162 -467,-162 -284,0 -492,71 -623,215 -132,143 -198,376 -198,696l0 1310 -216 0 0 -2373 183 0 42 326 13 0c154,-247 429,-371 823,-371 538,0 808,289 808,866l0 1552 -214 0z"/>
  <path id="22" class="fil6" d="M37030 21477c0,388 -94,690 -282,908 -188,217 -446,326 -777,326 -208,0 -391,-50 -550,-151 -158,-100 -280,-244 -364,-432 -85,-188 -127,-405 -127,-651 0,-387 94,-689 282,-905 188,-216 445,-324 772,-324 326,0 582,110 768,329 185,219 278,519 278,900zm-1873 0c0,326 72,580 215,763 143,182 346,274 608,274 262,0 465,-92 608,-274 143,-183 215,-437 215,-763 0,-327 -73,-581 -217,-762 -145,-180 -348,-270 -610,-270 -262,0 -464,90 -606,269 -142,180 -213,435 -213,763z"/>
  <path id="23" class="fil6" d="M14816 28798c-339,0 -604,-107 -797,-321 -192,-214 -287,-512 -287,-895 0,-393 99,-699 299,-918 198,-219 472,-329 817,-329 206,0 402,36 590,107l-59 193c-205,-69 -384,-103 -535,-103 -290,0 -511,90 -661,270 -150,179 -225,438 -225,776 0,319 75,570 225,752 150,181 359,272 629,272 215,0 415,-39 600,-116l0 200c-152,75 -350,112 -596,112z"/>
  <path id="24" class="fil6" d="M17955 27564c0,388 -94,690 -282,908 -187,217 -446,326 -776,326 -208,0 -392,-50 -550,-150 -159,-101 -280,-245 -365,-433 -85,-188 -126,-405 -126,-651 0,-387 94,-689 281,-905 188,-216 445,-324 773,-324 325,0 582,110 767,329 186,219 278,519 278,900zm-1873 0c0,327 73,581 216,763 143,183 345,275 607,275 263,0 465,-92 608,-275 143,-182 216,-436 216,-763 0,-327 -73,-581 -218,-762 -144,-180 -348,-270 -610,-270 -262,0 -463,90 -606,270 -141,179 -213,434 -213,762z"/>
  <path id="25" class="fil6" d="M20267 28753l0 -1538c0,-238 -50,-412 -151,-521 -100,-108 -255,-162 -467,-162 -284,0 -492,72 -623,215 -132,143 -198,376 -198,697l0 1309 -216 0 0 -2373 183 0 42 326 14 0c154,-247 428,-371 823,-371 538,0 807,289 807,867l0 1551 -214 0z"/>
  <path id="26" class="fil6" d="M23100 26380l0 148 -491 31c130,164 196,344 196,541 0,228 -76,414 -228,555 -152,143 -356,213 -613,213 -107,0 -183,-4 -226,-13 -86,46 -152,98 -197,159 -45,61 -68,126 -68,195 0,76 29,131 87,166 57,35 153,52 289,52l415 0c257,0 454,52 591,156 137,104 205,258 205,461 0,250 -101,442 -305,578 -202,136 -491,204 -867,204 -298,0 -529,-57 -693,-172 -163,-115 -245,-275 -245,-480 0,-163 50,-298 151,-405 101,-108 238,-181 412,-220 -72,-31 -129,-74 -171,-130 -44,-56 -65,-121 -65,-193 0,-159 101,-298 304,-419 -139,-56 -247,-146 -324,-267 -77,-122 -115,-262 -115,-419 0,-237 75,-427 226,-570 150,-144 353,-216 610,-216 156,0 276,15 362,45l760 0zm-1921 2774c0,326 242,489 727,489 622,0 934,-198 934,-595 0,-143 -49,-246 -146,-310 -98,-64 -256,-96 -474,-96l-388 0c-435,0 -653,170 -653,512zm181 -2034c0,184 55,326 167,427 111,101 260,151 446,151 198,0 350,-49 455,-150 106,-101 158,-246 158,-437 0,-201 -53,-353 -162,-454 -109,-101 -260,-152 -455,-152 -189,0 -338,54 -446,163 -109,108 -163,259 -163,452z"/>
  <path id="27" class="fil6" d="M24520 26335c100,0 208,11 323,31l-42 208c-99,-25 -201,-38 -307,-38 -202,0 -368,86 -497,258 -130,171 -195,388 -195,650l0 1309 -216 0 0 -2373 183 0 22 429 16 0c97,-175 201,-297 312,-368 110,-71 244,-106 401,-106z"/>
  <path id="28" class="fil6" d="M26195 28798c-345,0 -614,-106 -807,-319 -193,-212 -289,-510 -289,-893 0,-378 93,-682 279,-909 187,-228 438,-342 754,-342 279,0 500,97 661,292 162,193 242,457 242,791l0 173 -1709 0c3,328 79,578 228,751 149,173 363,260 641,260 136,0 254,-10 357,-29 103,-19 232,-60 389,-122l0 197c-134,58 -257,97 -371,118 -113,22 -238,32 -375,32zm-63 -2275c-229,0 -412,75 -551,227 -138,151 -219,369 -242,653l1467 0c0,-276 -60,-491 -179,-647 -119,-156 -285,-233 -495,-233z"/>
  <path id="29" class="fil6" d="M29162 28136c0,213 -82,377 -243,491 -161,114 -391,171 -688,171 -317,0 -569,-49 -755,-147l0 -233c239,119 491,179 755,179 235,0 413,-39 534,-117 122,-77 183,-181 183,-311 0,-119 -49,-219 -146,-301 -97,-81 -256,-161 -477,-240 -237,-86 -404,-160 -500,-221 -96,-63 -168,-132 -217,-211 -49,-77 -74,-172 -74,-284 0,-178 75,-318 225,-422 149,-103 357,-155 625,-155 256,0 500,49 729,145l-80 196c-234,-96 -450,-144 -649,-144 -194,0 -347,32 -461,96 -114,64 -170,153 -170,266 0,124 44,223 132,297 88,75 260,157 517,249 213,77 369,147 467,209 97,61 170,131 220,211 48,78 73,170 73,276z"/>
  <path id="30" class="fil6" d="M31244 28136c0,213 -82,377 -243,491 -161,114 -391,171 -688,171 -317,0 -569,-49 -755,-147l0 -233c239,119 491,179 755,179 235,0 413,-39 534,-117 122,-77 183,-181 183,-311 0,-119 -49,-219 -145,-301 -97,-81 -257,-161 -478,-240 -237,-86 -404,-160 -500,-221 -96,-63 -168,-132 -217,-211 -49,-77 -73,-172 -73,-284 0,-178 74,-318 224,-422 149,-103 357,-155 625,-155 256,0 500,49 729,145l-80 196c-234,-96 -449,-144 -649,-144 -194,0 -347,32 -460,96 -114,64 -171,153 -171,266 0,124 44,223 132,297 88,75 260,157 517,249 214,77 369,147 467,209 97,61 170,131 220,211 48,78 73,170 73,276z"/>
  <path id="31" class="fil6" d="M33816 27564c0,388 -94,690 -282,908 -188,217 -446,326 -777,326 -208,0 -391,-50 -550,-150 -158,-101 -280,-245 -364,-433 -85,-188 -126,-405 -126,-651 0,-387 93,-689 281,-905 188,-216 445,-324 773,-324 325,0 582,110 767,329 185,219 278,519 278,900zm-1873 0c0,327 72,581 215,763 143,183 346,275 608,275 262,0 465,-92 608,-275 143,-182 215,-436 215,-763 0,-327 -73,-581 -217,-762 -145,-180 -348,-270 -610,-270 -262,0 -464,90 -606,270 -141,179 -213,434 -213,762z"/>
  <path id="32" class="fil6" d="M34430 28584c0,-144 58,-215 174,-215 120,0 179,71 179,215 0,143 -59,214 -179,214 -116,0 -174,-71 -174,-214z"/>
  <g id="_1338685872">
   <circle class="fil8 str0" cx="105941" cy="16094" r="7428"/>
   <path class="fil8 str1" d="M105941 24323l0 10356m-5376 -5170l10752 0"/>
  </g>
 </g>
</svg>
