<?xml version="1.0" encoding="UTF-8"?>
<!DOCTYPE svg PUBLIC "-//W3C//DTD SVG 1.1//EN" "http://www.w3.org/Graphics/SVG/1.1/DTD/svg11.dtd">
<!-- Creator: CorelDRAW X7 -->
<svg xmlns="http://www.w3.org/2000/svg" xml:space="preserve" width="850px" height="285px" version="1.1" style="shape-rendering:geometricPrecision; text-rendering:geometricPrecision; image-rendering:optimizeQuality; fill-rule:evenodd; clip-rule:evenodd"
viewBox="0 0 16919 5673"
 xmlns:xlink="http://www.w3.org/1999/xlink">
 <defs>
  <style type="text/css">
   <![CDATA[
    .fil12 {fill:none}
    .fil2 {fill:#1F531D}
    .fil7 {fill:#336699}
    .fil6 {fill:#3C6A24}
    .fil9 {fill:#4684C2}
    .fil10 {fill:#49802C}
    .fil11 {fill:#669933}
    .fil5 {fill:#CC9933}
    .fil3 {fill:#D3BC4B}
    .fil4 {fill:#FFCC00}
    .fil8 {fill:white}
    .fil1 {fill:#003155;fill-rule:nonzero}
    .fil0 {fill:#D9DADB;fill-rule:nonzero}
    .fil14 {fill:#FFCC00;fill-rule:nonzero}
    .fil13 {fill:white;fill-rule:nonzero}
   ]]>
  </style>
 </defs>
<symbol id="Fm0-2212-0" viewBox="-424355 -831688 7774 49526">
 <polygon class="fil0" points="-421096,-782162 -424275,-782162 -424275,-831688 -421096,-831688 "/>
 <polygon class="fil1" points="-416582,-805938 -424355,-805938 -424355,-807913 -416582,-807913 "/>
</symbol>
<symbol id="Symbol1" viewBox="-424355 -831688 7774 49526">
 <polygon class="fil0" points="-421096,-782162 -424275,-782162 -424275,-831688 -421096,-831688 "/>
 <polygon class="fil1" points="-416582,-805938 -424355,-805938 -424355,-807913 -416582,-807913 "/>
</symbol>
 <g id="Camada_x0020_1">
  <metadata id="CorelCorpID_0Corel-Layer"/>
  <rect class="fil2" width="16919" height="5673"/>
  <g id="_1248047888">
   <circle class="fil2" cx="5755" cy="2836" r="2836"/>
   <polygon class="fil3" points="4120,3454 4023,2782 3447,3544 "/>
   <polygon class="fil4" points="4023,2782 4120,3454 4981,3627 "/>
   <polygon class="fil5" points="4023,2782 4981,3627 4756,2235 "/>
   <polygon class="fil4" points="4756,2235 4981,3627 5709,1956 "/>
   <polygon class="fil5" points="5709,1956 4981,3627 5954,3717 "/>
   <polygon class="fil4" points="5709,1956 5954,3717 7128,2200 "/>
   <polygon class="fil5" points="7128,2200 5954,3717 7170,3385 "/>
   <polygon class="fil4" points="7128,2200 7170,3385 8131,2910 "/>
   <polygon class="fil6" points="3433,2469 3902,1854 4760,1467 5722,1273 7065,1460 8131,2201 7038,1561 5730,1406 4839,1575 3988,1927 "/>
   <g>
    <polygon class="fil7" points="6466,2086 6581,2311 6746,2630 6636,2972 6526,3313 6207,3477 5887,3642 5546,3532 5204,3422 5040,3103 4876,2783 4986,2442 5083,2139 5709,1956 "/>
    <polygon class="fil8" points="5795,2510 5901,2600 6008,2691 5917,2797 5827,2904 5720,2813 5614,2723 5704,2616 "/>
    <polygon class="fil9" points="5119,2129 5614,2723 4876,2783 5083,2139 "/>
    <polygon class="fil9" points="4876,2783 5204,3422 5720,2813 "/>
    <polygon class="fil9" points="5204,3422 5827,2904 5887,3642 "/>
    <polygon class="fil9" points="5887,3642 5917,2797 6526,3313 "/>
    <polygon class="fil9" points="6526,3313 6008,2691 6746,2630 "/>
    <polygon class="fil9" points="6746,2630 5901,2600 6354,2067 6466,2086 "/>
    <polygon class="fil9" points="6331,2063 5795,2510 5750,1963 "/>
    <polygon class="fil9" points="5727,1959 5704,2616 5127,2127 5709,1956 "/>
   </g>
   <polygon class="fil6" points="3433,2469 3447,3544 4023,2782 "/>
   <polygon class="fil10" points="3433,2469 4023,2782 3988,1927 "/>
   <polygon class="fil11" points="4023,2782 4756,2235 3988,1927 "/>
   <polygon class="fil6" points="3988,1927 4839,1575 4756,2235 "/>
   <polygon class="fil12" points="4756,2235 5709,1956 4839,1575 "/>
   <polygon class="fil10" points="4839,1575 5730,1406 5709,1956 "/>
   <polygon class="fil6" points="5730,1406 7038,1561 5709,1956 "/>
   <polygon class="fil12" points="5709,1956 7128,2200 7038,1561 "/>
   <polygon class="fil10" points="7128,2200 7038,1561 8131,2201 "/>
   <polygon class="fil12" points="7128,2200 8131,2910 8131,2201 "/>
  </g>
  <g id="_1271828320">
   <path class="fil13" d="M10471 1875c0,106 -26,190 -79,251 -53,61 -126,92 -218,92 -93,0 -166,-31 -218,-92 -53,-61 -80,-145 -80,-251 0,-106 27,-190 80,-250 54,-61 126,-92 218,-92 93,0 166,31 218,92 53,61 79,145 79,250zm-544 0c0,96 21,169 64,221 42,52 103,78 183,78 80,0 141,-25 183,-77 42,-52 63,-125 63,-222 0,-96 -21,-169 -63,-220 -42,-51 -103,-77 -183,-77 -79,0 -140,26 -183,77 -43,52 -64,125 -64,220z"/>
   <polygon id="1" class="fil13" points="10658,2209 10613,2209 10613,1501 10658,1501 "/>
   <path id="2" class="fil13" d="M11168 2209l0 -321c0,-50 -10,-86 -31,-108 -21,-23 -54,-34 -98,-34 -59,0 -102,15 -130,45 -27,29 -41,78 -41,145l0 273 -45 0 0 -708 45 0 0 225 -2 63 3 0c19,-29 42,-51 70,-64 28,-14 63,-20 105,-20 113,0 169,60 169,180l0 324 -45 0z"/>
   <path id="3" class="fil13" d="M11782 1961c0,81 -20,144 -59,189 -39,45 -93,68 -162,68 -43,0 -81,-10 -115,-31 -33,-21 -58,-51 -76,-90 -17,-40 -26,-85 -26,-136 0,-81 20,-144 59,-189 39,-45 93,-67 161,-67 68,0 121,23 160,68 38,46 58,108 58,188zm-391 0c0,68 15,121 45,159 30,38 72,57 127,57 55,0 97,-19 127,-57 29,-38 45,-91 45,-159 0,-68 -16,-121 -46,-159 -30,-37 -72,-56 -127,-56 -55,0 -97,19 -126,56 -30,37 -45,90 -45,159z"/>
   <path id="4" class="fil13" d="M10395 3097l-46 0 -394 -591 -4 0c4,71 5,124 5,160l0 431 -44 0 0 -665 46 0 394 590 2 0c-2,-55 -4,-107 -4,-156l0 -434 45 0 0 665z"/>
   <path id="5" class="fil13" d="M10772 3106c-72,0 -128,-22 -168,-66 -40,-44 -60,-107 -60,-186 0,-79 19,-142 58,-190 39,-47 91,-71 157,-71 58,0 104,20 138,61 34,40 51,95 51,165l0 36 -357 0c1,68 17,120 48,156 31,36 75,54 133,54 29,0 53,-2 75,-6 21,-3 48,-12 81,-25l0 41c-28,12 -54,20 -77,25 -24,4 -50,6 -79,6zm-13 -474c-48,0 -86,16 -115,47 -28,32 -45,77 -50,137l306 0c0,-58 -13,-103 -38,-135 -24,-33 -59,-49 -103,-49z"/>
   <polygon id="6" class="fil13" points="11129,3097 11084,3097 11084,2389 11129,2389 "/>
   <path id="7" class="fil13" d="M11494 3106c-72,0 -128,-22 -168,-66 -40,-44 -60,-107 -60,-186 0,-79 19,-142 58,-190 39,-47 91,-71 157,-71 58,0 104,20 138,61 34,40 50,95 50,165l0 36 -356 0c1,68 17,120 48,156 31,36 75,54 133,54 29,0 53,-2 75,-6 21,-3 48,-12 81,-25l0 41c-28,12 -54,20 -77,25 -24,4 -50,6 -79,6zm-13 -474c-48,0 -86,16 -115,47 -28,32 -45,77 -50,137l306 0c0,-58 -13,-103 -38,-135 -25,-33 -59,-49 -103,-49z"/>
   <path id="8" class="fil13" d="M12113 2968c0,45 -17,79 -51,103 -34,23 -81,35 -143,35 -66,0 -119,-10 -158,-30l0 -49c50,25 103,37 158,37 49,0 86,-8 111,-24 25,-16 38,-38 38,-65 0,-25 -10,-46 -30,-63 -20,-17 -54,-33 -100,-50 -49,-18 -84,-33 -104,-46 -20,-13 -35,-27 -45,-44 -10,-16 -16,-36 -16,-59 0,-37 16,-66 47,-88 31,-21 75,-32 131,-32 53,0 104,10 152,30l-17 41c-49,-20 -94,-30 -135,-30 -41,0 -73,7 -96,20 -24,13 -36,32 -36,55 0,26 9,47 28,62 18,16 54,33 107,52 45,16 77,31 98,44 20,13 35,27 45,44 11,16 16,35 16,57z"/>
   <path id="9" class="fil13" d="M12283 2926l-28 0 -13 -494 54 0 -13 494zm-51 136c0,-30 12,-45 36,-45 25,0 37,15 37,45 0,29 -12,44 -37,44 -24,0 -36,-15 -36,-44z"/>
   <path class="fil14" d="M10061 3763l-19 -59 -91 0 -18 59 -57 0 88 -250 65 0 88 250 -56 0zm-31 -103c-17,-54 -26,-85 -28,-92 -3,-7 -4,-12 -5,-16 -4,14 -14,50 -32,108l65 0z"/>
   <path id="1" class="fil14" d="M10222 3767c-59,0 -89,-33 -89,-98 0,-32 8,-57 24,-74 16,-17 40,-26 70,-26 22,0 42,4 59,13l-15 40c-9,-3 -16,-6 -23,-8 -7,-2 -14,-3 -21,-3 -27,0 -41,19 -41,58 0,37 14,55 41,55 10,0 19,-1 28,-4 8,-2 17,-6 25,-12l0 45c-8,5 -17,9 -25,11 -9,2 -20,3 -33,3z"/>
   <path id="2" class="fil14" d="M10366 3668c0,18 3,33 9,42 6,10 16,15 30,15 14,0 24,-5 30,-15 6,-9 9,-23 9,-42 0,-19 -3,-33 -9,-43 -6,-9 -16,-14 -30,-14 -14,0 -24,5 -30,14 -6,9 -9,24 -9,43zm131 0c0,31 -8,55 -24,72 -16,18 -39,27 -68,27 -19,0 -35,-4 -49,-12 -14,-8 -25,-20 -32,-35 -8,-15 -11,-32 -11,-52 0,-32 8,-56 24,-73 16,-17 39,-26 69,-26 18,0 34,4 48,12 14,8 25,19 32,34 8,15 11,33 11,53z"/>
   <path id="3" class="fil14" d="M10711 3763l-52 0 0 -111c0,-14 -2,-24 -7,-31 -4,-7 -12,-10 -21,-10 -14,0 -23,5 -29,14 -6,10 -9,26 -9,49l0 89 -52 0 0 -190 39 0 7 24 3 0c5,-9 13,-16 22,-21 10,-4 21,-7 34,-7 28,0 47,9 58,28l4 0c5,-9 13,-16 23,-21 10,-4 21,-7 33,-7 22,0 38,6 49,17 12,11 17,29 17,53l0 124 -52 0 0 -111c0,-14 -2,-24 -7,-31 -5,-7 -12,-10 -22,-10 -12,0 -22,4 -28,13 -7,9 -10,24 -10,44l0 95z"/>
   <path id="4" class="fil14" d="M10988 3767c-22,0 -40,-8 -53,-25l-2 0c2,16 2,25 2,28l0 77 -52 0 0 -274 43 0 7 24 2 0c13,-18 31,-28 55,-28 22,0 40,9 52,26 13,18 20,42 20,73 0,20 -3,38 -9,53 -6,15 -15,26 -26,34 -11,8 -24,12 -39,12zm-15 -156c-13,0 -22,4 -28,11 -6,8 -9,21 -10,40l0 5c0,21 4,35 10,44 6,9 15,13 29,13 23,0 35,-19 35,-57 0,-19 -3,-33 -9,-42 -6,-10 -15,-14 -27,-14z"/>
   <path id="5" class="fil14" d="M11226 3763l-10 -26 -2 0c-9,11 -18,19 -27,23 -9,5 -21,7 -36,7 -18,0 -33,-5 -43,-16 -11,-10 -16,-25 -16,-45 0,-20 7,-35 21,-44 14,-10 36,-15 64,-16l33 -1 0 -9c0,-19 -10,-29 -29,-29 -16,0 -34,5 -54,14l-17 -35c22,-12 46,-17 73,-17 25,0 45,5 58,16 14,12 21,28 21,51l0 127 -36 0zm-16 -88l-20 1c-15,0 -26,3 -34,8 -7,5 -11,12 -11,23 0,14 9,22 26,22 12,0 21,-4 28,-11 8,-7 11,-16 11,-27l0 -16z"/>
   <path id="6" class="fil14" d="M11491 3763l-52 0 0 -111c0,-14 -2,-24 -7,-31 -5,-7 -13,-10 -23,-10 -15,0 -25,4 -32,14 -6,10 -10,26 -10,49l0 89 -52 0 0 -190 40 0 7 24 3 0c6,-9 14,-16 24,-21 10,-5 22,-7 35,-7 22,0 39,6 50,18 12,12 17,29 17,52l0 124z"/>
   <path id="7" class="fil14" d="M11721 3763l-52 0 0 -111c0,-28 -10,-41 -31,-41 -14,0 -25,5 -31,14 -7,10 -10,26 -10,49l0 89 -52 0 0 -265 52 0 0 54c0,4 -1,14 -1,30l-1 15 2 0c12,-19 30,-28 55,-28 23,0 40,6 51,18 12,12 18,29 18,52l0 124z"/>
   <path id="8" class="fil14" d="M11853 3606c-11,0 -19,4 -26,11 -6,7 -9,16 -10,29l73 0c-1,-13 -4,-22 -10,-29 -7,-7 -16,-11 -27,-11zm8 161c-31,0 -55,-9 -72,-26 -18,-17 -26,-41 -26,-72 0,-32 8,-56 24,-74 16,-17 38,-26 66,-26 27,0 48,8 63,23 15,15 22,37 22,64l0 25 -123 0c1,15 5,26 14,35 8,8 19,12 34,12 12,0 22,-1 33,-4 10,-2 21,-6 32,-11l0 40c-9,5 -19,8 -29,10 -11,3 -23,4 -38,4z"/>
   <path id="9" class="fil14" d="M12113 3668c0,18 3,33 9,42 6,10 16,15 30,15 14,0 24,-5 30,-15 6,-9 9,-23 9,-42 0,-19 -3,-33 -9,-43 -6,-9 -16,-14 -30,-14 -14,0 -24,5 -30,14 -6,9 -9,24 -9,43zm132 0c0,31 -9,55 -25,72 -16,18 -39,27 -68,27 -19,0 -35,-4 -49,-12 -14,-8 -24,-20 -32,-35 -7,-15 -11,-32 -11,-52 0,-32 8,-56 24,-73 17,-17 39,-26 69,-26 18,0 34,4 48,12 14,8 25,19 32,34 8,15 12,33 12,53z"/>
   <path id="10" class="fil14" d="M10074 4168l-52 0 0 -112c0,-14 -2,-24 -6,-31 -5,-7 -12,-10 -22,-10 -14,0 -23,5 -29,15 -6,9 -9,25 -9,48l0 90 -52 0 0 -191 39 0 7 24 3 0c5,-8 13,-15 23,-20 9,-5 20,-8 33,-8 28,0 48,10 58,28l4 0c6,-9 13,-15 23,-20 10,-5 21,-8 34,-8 21,0 38,6 49,17 11,11 16,29 16,53l0 125 -52 0 0 -112c0,-14 -2,-24 -7,-31 -4,-7 -12,-10 -21,-10 -13,0 -23,4 -29,14 -6,9 -10,23 -10,43l0 96z"/>
   <path id="11" class="fil14" d="M10368 4168l-10 -26 -2 0c-8,11 -17,18 -27,23 -9,4 -21,6 -36,6 -18,0 -33,-5 -43,-16 -11,-10 -16,-25 -16,-44 0,-21 7,-36 21,-45 14,-10 36,-15 64,-16l33 -1 0 -9c0,-19 -9,-29 -29,-29 -15,0 -33,5 -54,14l-17 -35c22,-11 46,-17 73,-17 25,0 45,6 59,17 13,11 20,28 20,51l0 127 -36 0zm-16 -89l-20 1c-15,0 -26,3 -33,8 -8,5 -12,13 -12,23 0,15 9,22 26,22 12,0 21,-4 29,-10 7,-7 10,-17 10,-28l0 -16z"/>
   <path id="12" class="fil14" d="M10634 4168l-52 0 0 -112c0,-14 -3,-24 -8,-31 -5,-7 -12,-10 -23,-10 -15,0 -25,5 -32,14 -6,10 -9,26 -9,49l0 90 -52 0 0 -191 39 0 7 24 3 0c6,-9 14,-16 24,-21 10,-4 22,-7 35,-7 22,0 39,6 50,18 12,12 18,30 18,52l0 125z"/>
   <path id="13" class="fil14" d="M10748 4171c-23,0 -40,-9 -53,-26 -13,-17 -19,-42 -19,-72 0,-32 6,-56 19,-73 13,-18 31,-27 54,-27 24,0 42,10 55,28l2 0c-3,-14 -4,-27 -4,-38l0 -61 52 0 0 266 -40 0 -10 -25 -2 0c-12,19 -30,28 -54,28zm18 -42c13,0 23,-3 29,-11 6,-8 10,-21 10,-40l0 -5c0,-21 -3,-35 -9,-44 -7,-9 -17,-13 -31,-13 -12,0 -21,4 -27,14 -7,10 -10,24 -10,43 0,19 3,33 10,42 6,10 16,14 28,14z"/>
   <path id="14" class="fil14" d="M11029 4168l-10 -26 -1 0c-9,11 -18,18 -27,23 -10,4 -22,6 -36,6 -19,0 -33,-5 -44,-16 -10,-10 -15,-25 -15,-44 0,-21 7,-36 21,-45 14,-10 35,-15 64,-16l33 -1 0 -9c0,-19 -10,-29 -30,-29 -15,0 -33,5 -53,14l-18 -35c22,-11 47,-17 73,-17 26,0 45,6 59,17 14,11 21,28 21,51l0 127 -37 0zm-15 -89l-20 1c-15,0 -27,3 -34,8 -7,5 -11,13 -11,23 0,15 8,22 25,22 12,0 22,-4 29,-10 7,-7 11,-17 11,-28l0 -16z"/>
   <path id="15" class="fil14" d="M11199 4129c9,0 20,-2 33,-6l0 39c-13,6 -29,9 -48,9 -20,0 -36,-5 -45,-16 -10,-10 -14,-26 -14,-47l0 -92 -25 0 0 -22 28 -18 15 -40 34 0 0 41 53 0 0 39 -53 0 0 92c0,7 2,13 6,16 4,4 10,5 16,5z"/>
   <path id="16" class="fil14" d="M11312 4072c0,19 3,33 9,43 7,9 17,14 31,14 13,0 23,-5 30,-14 6,-10 9,-24 9,-43 0,-19 -3,-33 -10,-43 -6,-9 -16,-14 -30,-14 -14,0 -24,5 -30,14 -6,10 -9,24 -9,43zm132 0c0,31 -8,55 -25,73 -16,17 -39,26 -68,26 -18,0 -35,-4 -49,-12 -14,-8 -24,-20 -32,-35 -7,-15 -11,-32 -11,-52 0,-31 8,-55 24,-73 17,-17 39,-26 69,-26 18,0 34,4 48,12 14,8 25,20 33,35 7,14 11,32 11,52z"/>
   <path id="17" class="fil14" d="M11638 4171c-22,0 -40,-9 -53,-26 -13,-17 -19,-42 -19,-72 0,-32 6,-56 20,-73 13,-18 30,-27 53,-27 24,0 43,10 55,28l2 0c-3,-14 -4,-27 -4,-38l0 -61 52 0 0 266 -40 0 -10 -25 -2 0c-12,19 -30,28 -54,28zm18 -42c14,0 23,-3 30,-11 6,-8 9,-21 10,-40l0 -5c0,-21 -3,-35 -10,-44 -6,-9 -16,-13 -31,-13 -11,0 -20,4 -27,14 -6,10 -9,24 -9,43 0,19 3,33 9,42 7,10 16,14 28,14z"/>
   <path id="18" class="fil14" d="M11840 4072c0,19 3,33 9,43 7,9 17,14 31,14 13,0 23,-5 30,-14 6,-10 9,-24 9,-43 0,-19 -3,-33 -10,-43 -6,-9 -16,-14 -30,-14 -14,0 -24,5 -30,14 -6,10 -9,24 -9,43zm132 0c0,31 -8,55 -25,73 -16,17 -39,26 -68,26 -18,0 -35,-4 -49,-12 -14,-8 -24,-20 -32,-35 -7,-15 -11,-32 -11,-52 0,-31 8,-55 24,-73 17,-17 39,-26 69,-26 18,0 34,4 48,12 14,8 25,20 33,35 7,14 11,32 11,52z"/>
   <path id="19" class="fil14" d="M12148 4111c0,19 -7,34 -21,45 -13,10 -33,15 -61,15 -13,0 -25,-1 -35,-3 -10,-2 -19,-4 -27,-8l0 -43c9,4 20,8 32,11 12,3 23,5 32,5 19,0 29,-6 29,-16 0,-5 -2,-8 -4,-10 -3,-3 -7,-6 -13,-9 -6,-3 -15,-7 -25,-12 -14,-6 -25,-11 -32,-17 -7,-5 -12,-11 -15,-18 -3,-6 -5,-15 -5,-25 0,-16 7,-30 20,-39 13,-9 32,-14 56,-14 23,0 45,5 67,15l-16 38c-9,-4 -18,-8 -27,-10 -8,-3 -16,-4 -25,-4 -15,0 -23,4 -23,12 0,5 2,9 7,12 5,4 16,9 33,16 15,6 26,11 33,16 6,6 12,12 15,18 3,7 5,15 5,25z"/>
   <path id="20" class="fil14" d="M12358 4010c-11,0 -20,4 -26,11 -6,7 -10,17 -11,30l73 0c0,-13 -3,-23 -10,-30 -6,-7 -15,-11 -26,-11zm7 161c-30,0 -54,-8 -72,-25 -17,-17 -25,-41 -25,-72 0,-32 8,-57 24,-74 16,-18 38,-27 66,-27 27,0 48,8 63,23 15,16 22,37 22,64l0 25 -123 0c1,15 5,26 13,35 9,8 20,12 35,12 11,0 22,-1 32,-3 11,-3 21,-7 33,-12l0 40c-10,5 -19,8 -30,11 -10,2 -23,3 -38,3z"/>
   <polygon id="21" class="fil14" points="12537,4168 12486,4168 12486,3902 12537,3902 "/>
   <path id="22" class="fil14" d="M12671 4010c-11,0 -20,4 -26,11 -6,7 -10,17 -11,30l73 0c0,-13 -3,-23 -10,-30 -6,-7 -15,-11 -26,-11zm7 161c-30,0 -54,-8 -72,-25 -17,-17 -26,-41 -26,-72 0,-32 8,-57 24,-74 16,-18 38,-27 67,-27 27,0 48,8 63,23 15,16 22,37 22,64l0 25 -123 0c1,15 5,26 13,35 8,8 20,12 35,12 11,0 22,-1 32,-3 11,-3 21,-7 32,-12l0 40c-9,5 -18,8 -29,11 -10,2 -23,3 -38,3z"/>
   <path id="23" class="fil14" d="M12796 3927c0,-16 10,-25 28,-25 19,0 29,9 29,25 0,9 -3,15 -7,19 -5,5 -12,7 -22,7 -18,0 -28,-8 -28,-26zm54 241l-52 0 0 -191 52 0 0 191z"/>
   <path id="24" class="fil14" d="M12985 4129c9,0 20,-2 33,-6l0 39c-13,6 -29,9 -48,9 -21,0 -36,-5 -45,-16 -10,-10 -14,-26 -14,-47l0 -92 -25 0 0 -22 28 -18 15 -40 34 0 0 41 53 0 0 39 -53 0 0 92c0,7 2,13 6,16 4,4 9,5 16,5z"/>
   <path id="25" class="fil14" d="M13098 4072c0,19 3,33 9,43 6,9 17,14 31,14 13,0 23,-5 29,-14 6,-10 10,-24 10,-43 0,-19 -4,-33 -10,-43 -6,-9 -16,-14 -30,-14 -14,0 -24,5 -30,14 -6,10 -9,24 -9,43zm132 0c0,31 -8,55 -25,73 -16,17 -39,26 -68,26 -18,0 -35,-4 -49,-12 -14,-8 -24,-20 -32,-35 -7,-15 -11,-32 -11,-52 0,-31 8,-55 24,-73 17,-17 39,-26 69,-26 18,0 34,4 48,12 14,8 25,20 32,35 8,14 12,32 12,52z"/>
   <path id="26" class="fil14" d="M13406 4111c0,19 -7,34 -21,45 -13,10 -34,15 -61,15 -13,0 -25,-1 -35,-3 -10,-2 -19,-4 -28,-8l0 -43c10,4 21,8 33,11 12,3 23,5 32,5 19,0 28,-6 28,-16 0,-5 -1,-8 -3,-10 -3,-3 -7,-6 -13,-9 -6,-3 -15,-7 -25,-12 -15,-6 -25,-11 -32,-17 -7,-5 -12,-11 -15,-18 -3,-6 -5,-15 -5,-25 0,-16 7,-30 20,-39 13,-9 32,-14 56,-14 23,0 45,5 67,15l-16 38c-10,-4 -18,-8 -27,-10 -8,-3 -17,-4 -25,-4 -16,0 -23,4 -23,12 0,5 2,9 7,12 5,4 16,9 33,16 15,6 26,11 32,16 7,6 13,12 16,18 3,7 5,15 5,25z"/>
   <path id="27" class="fil14" d="M13439 4143c0,-9 3,-17 8,-22 5,-4 12,-7 22,-7 9,0 17,3 22,8 5,5 8,12 8,21 0,9 -3,16 -8,21 -5,5 -13,8 -22,8 -10,0 -17,-2 -22,-8 -5,-5 -8,-12 -8,-21z"/>
  </g>
 </g>
</svg>
